<svg width="67" height="67" viewBox="0 0 67 67" fill="none" xmlns="http://www.w3.org/2000/svg">
  <g clip-path="url(#clip0_22_19)">
    <path d="M34.5638 65.9919C16.1793 66.1525 1.158 51.7329 1.00125 33.7838C0.84449 15.8348 15.6149 1.15496 33.9962 0.994429C44.3665 0.90386 53.9977 5.49018 60.3318 13.2644C60.5094 13.4815 60.6415 13.7321 60.7203 14.0013C60.7991 14.2705 60.823 14.5528 60.7905 14.8314C60.7581 15.11 60.67 15.3792 60.5315 15.6231C60.3929 15.867 60.2068 16.0805 59.9841 16.2511C59.5301 16.6028 58.9569 16.764 58.3861 16.7004C57.8152 16.6368 57.2916 16.3535 56.926 15.9105C54.1552 12.5278 50.6582 9.81258 46.6946 7.96625C42.7309 6.11993 38.4023 5.18994 34.03 5.2453C18.0569 5.3848 5.2166 18.1464 5.35283 33.7458C5.48907 49.3452 18.5503 61.8806 34.5234 61.7411C38.8335 61.7201 43.0852 60.7426 46.9718 58.8792C50.8583 57.0158 54.2828 54.313 56.9982 50.9657C57.3617 50.5204 57.8844 50.2342 58.4554 50.1679C59.0265 50.1017 59.6009 50.2605 60.0567 50.6107C60.2804 50.7803 60.4677 50.9931 60.6075 51.2365C60.7473 51.48 60.8367 51.749 60.8703 52.0277C60.904 52.3064 60.8813 52.589 60.8035 52.8587C60.7257 53.1284 60.5944 53.3797 60.4175 53.5977C54.2087 61.2897 44.7847 65.9027 34.5606 65.992L34.5638 65.9919ZM32.5979 43.7068L23.7236 34.9862C22.8647 34.1422 22.8366 32.7838 23.6613 31.9446L32.1756 23.2737C32.3761 23.0741 32.6139 22.916 32.8755 22.8084C33.1371 22.7008 33.4174 22.6459 33.7003 22.6467C33.9831 22.6476 34.2631 22.7042 34.524 22.8133C34.785 22.9225 35.0219 23.082 35.2211 23.2828C35.4251 23.4787 35.5885 23.713 35.7019 23.9721C35.8154 24.2312 35.8766 24.5102 35.8821 24.793C35.8875 25.0758 35.8372 25.3569 35.7339 25.6203C35.6307 25.8836 35.4765 26.124 35.2802 26.3277L30.2966 31.4024L63.8028 31.1065C64.0855 31.1006 64.3667 31.1505 64.6302 31.2534C64.8936 31.3563 65.1342 31.5101 65.3382 31.706C65.5422 31.902 65.7055 32.1362 65.8188 32.3953C65.9322 32.6545 65.9933 32.9334 65.9988 33.2162C66.009 34.3894 65.0424 35.3501 63.8399 35.3606L30.4702 35.652L35.5777 40.6744C35.7818 40.8703 35.9452 41.1045 36.0586 41.3636C36.172 41.6228 36.2332 41.9017 36.2387 42.1845C36.2442 42.4674 36.1939 42.7485 36.0906 43.0118C35.9873 43.2752 35.8331 43.5155 35.6368 43.7192C35.2323 44.1204 34.6852 44.3447 34.1155 44.3429C33.5458 44.3412 33 44.1136 32.5979 43.71L32.5979 43.7068Z" fill="white"/>
  </g>
  <defs>
    <clipPath id="clip0_22_19">
      <rect width="65" height="65" fill="white" transform="translate(66.2826 65.7149) rotate(179.5)"/>
    </clipPath>
  </defs>
</svg>
