<svg width="65" height="65" viewBox="0 0 65 65" fill="none" xmlns="http://www.w3.org/2000/svg">
  <path
    d="M31.72 0C50.1053 0 65 14.5503 65 32.5C65 50.4497 50.102 65 31.72 65C21.3493 65 11.7585 60.3297 5.4925 52.5005C5.31685 52.2818 5.18694 52.0301 5.11049 51.7602C5.03404 51.4904 5.01261 51.2079 5.04748 50.9296C5.08234 50.6513 5.17279 50.3828 5.31344 50.1402C5.45409 49.8975 5.64209 49.6856 5.86625 49.517C6.32336 49.1692 6.8979 49.0131 7.46816 49.0816C8.03842 49.1502 8.55959 49.438 8.92125 49.8843C11.6624 53.291 15.1355 56.0367 19.083 57.9175C23.0304 59.7984 27.3507 60.7662 31.7232 60.749C47.697 60.749 60.6482 48.1 60.6482 32.5C60.6482 16.9 47.697 4.251 31.7232 4.251C27.4131 4.23443 23.1531 5.17475 19.2504 7.00413C15.3477 8.8335 11.8998 11.5063 9.15525 14.8298C8.78786 15.2719 8.26265 15.5535 7.69107 15.6148C7.11949 15.6761 6.54652 15.5122 6.09375 15.158C5.87153 14.9865 5.68608 14.772 5.54844 14.5274C5.41079 14.2828 5.32377 14.0129 5.29254 13.734C5.2613 13.455 5.28651 13.1726 5.36664 12.9036C5.44678 12.6346 5.58021 12.3844 5.759 12.168C12.0347 4.5305 21.4987 0 31.7232 0H31.72ZM33.4912 22.3015L42.289 31.0993C43.1405 31.9508 43.1567 33.3092 42.3247 34.1413L33.735 42.7375C33.5328 42.9353 33.2936 43.0914 33.0311 43.1967C32.7685 43.302 32.4878 43.3545 32.205 43.3511C31.9221 43.3478 31.6427 43.2887 31.3827 43.1773C31.1227 43.0659 30.8872 42.9043 30.6897 42.7018C30.4874 42.5041 30.3261 42.2684 30.2149 42.0083C30.1038 41.7482 30.045 41.4687 30.042 41.1859C30.039 40.903 30.0918 40.6223 30.1973 40.3599C30.3029 40.0975 30.4592 39.8585 30.6572 39.6565L35.685 34.6255L2.1775 34.6287C1.89469 34.6322 1.61397 34.5798 1.35141 34.4747C1.08885 34.3695 0.849607 34.2136 0.64736 34.0159C0.445114 33.8182 0.283837 33.5825 0.172756 33.3224C0.0616747 33.0623 0.00296987 32.7828 0 32.5C0 31.3267 0.975 30.3745 2.1775 30.3745H35.5485L30.485 25.3078C30.2827 25.1101 30.1213 24.8744 30.0102 24.6143C29.899 24.3542 29.8403 24.0747 29.8373 23.7919C29.8342 23.509 29.887 23.2283 29.9926 22.9659C30.0982 22.7035 30.2544 22.4645 30.4525 22.2625C30.8605 21.8649 31.4096 21.6454 31.9793 21.6521C32.5489 21.6588 33.0927 21.8912 33.4912 22.2983V22.3015Z"
    fill="white"/>
</svg>
