<svg width="44" height="36" viewBox="0 0 44 36" fill="none" xmlns="http://www.w3.org/2000/svg">
  <path
    d="M40 2H4C2.89543 2 2 2.89543 2 4V32C2 33.1046 2.89543 34 4 34H40C41.1046 34 42 33.1046 42 32V4C42 2.89543 41.1046 2 40 2Z"
    stroke="white" stroke-width="4" stroke-linejoin="round"/>
  <path
    d="M15 19C16.0609 19 17.0783 18.5786 17.8284 17.8284C18.5786 17.0783 19 16.0609 19 15C19 13.9391 18.5786 12.9217 17.8284 12.1716C17.0783 11.4214 16.0609 11 15 11C13.9391 11 12.9217 11.4214 12.1716 12.1716C11.4214 12.9217 11 13.9391 11 15C11 16.0609 11.4214 17.0783 12.1716 17.8284C12.9217 18.5786 13.9391 19 15 19V19Z"
    stroke="white" stroke-width="4" stroke-linejoin="round"/>
  <path
    d="M28 22H34M21 25C21 23.4087 20.3679 21.8826 19.2426 20.7574C18.1174 19.6321 16.5913 19 15 19C13.4087 19 11.8826 19.6321 10.7574 20.7574C9.63214 21.8826 9 23.4087 9 25H21ZM26 14H34H26Z"
    stroke="white" stroke-width="4" stroke-linecap="round" stroke-linejoin="round"/>
</svg>
