<svg width="20" height="30" viewBox="0 0 20 30" fill="none" xmlns="http://www.w3.org/2000/svg">  <path d="M17.7778 0H2.22222C1.63285 0 1.06762 0.225765 0.650874 0.627628C0.234127 1.02949 0 1.57454 0 2.14286V27.8571C0 28.4255 0.234127 28.9705 0.650874 29.3724C1.06762 29.7742 1.63285 30 2.22222 30H17.7778C18.3671 30 18.9324 29.7742 19.3491 29.3724C19.7659 28.9705 20 28.4255 20 27.8571V2.14286C20 1.57454 19.7659 1.02949 19.3491 0.627628C18.9324 0.225765 18.3671 0 17.7778 0ZM11.1111 27.8571H8.88889V25.7143H11.1111V27.8571ZM2.22222 23.5714V2.14286H17.7778V23.5714H2.22222Z" fill="white"/></svg>