<svg
  height="20px"
  width="24px"
  viewBox="0 0 58 48" xmlns="http://www.w3.org/2000/svg">
  <g id="Page-1" fill="none" fill-rule="evenodd">
    <g id="041---AC-Cold-Air" fill-rule="nonzero">
      <path id="Shape"
            d="m2 0h54c1.1045695 0 2 .8954305 2 2v21c0 3.3137085-2.6862915 6-6 6h-46c-3.3137085 0-6-2.6862915-6-6v-21c0-1.1045695.8954305-2 2-2z"
            fill="#ecf0f1"/>
      <path id="Shape" d="m13 23h32c1.6568542 0 3 1.3431458 3 3v3h-38v-3c0-1.6568542 1.3431458-3 3-3z" fill="#bdc3c7"/>
      <path id="Shape" d="m5 0h48v9c0 1.6568542-1.3431458 3-3 3h-42c-1.65685425 0-3-1.3431458-3-3z" fill="#bdc3c7"/>
      <path id="Shape"
            d="m35 20h-12c-.5522847 0-1-.4477153-1-1s.4477153-1 1-1h12c.5522847 0 1 .4477153 1 1s-.4477153 1-1 1z"
            fill="#95a5a5"/>
      <path id="Shape"
            d="m49 9h-40c-.55228475 0-1-.44771525-1-1s.44771525-1 1-1h40c.5522847 0 1 .44771525 1 1s-.4477153 1-1 1z"
            fill="#7f8c8d"/>
      <path id="Shape"
            d="m49 5h-40c-.55228475 0-1-.44771525-1-1s.44771525-1 1-1h40c.5522847 0 1 .44771525 1 1s-.4477153 1-1 1z"
            fill="#7f8c8d"/>
      <circle id="Oval" cx="49" cy="19" fill="#26b99a" r="1"/>
      <g fill="#ff5364">
        <circle id="Oval" cx="53" cy="19" r="1"/>
        <path id="Shape"
              d="m36 47c-.5522847 0-1-.4477153-1-1 .0059523-1.0836467.4645847-2.1154789 1.265-2.846.4632216-.3550112.7348361-.9053844.7348361-1.489s-.2716145-1.1339888-.7348361-1.489c-.805195-.7264163-1.2648003-1.7600556-1.2648003-2.8445s.4596053-2.1180837 1.2648003-2.8445c.4559123-.3601086.7257851-.9060961.735-1.487 0-.5522847.4477153-1 1-1s1 .4477153 1 1c-.0055091 1.0836617-.4646578 2.115477-1.266 2.845-.4631595.3543951-.7348116.9043083-.7348116 1.4875s.2716521 1.1331049.7348116 1.4875c.8052908.7267787 1.2649231 1.7607417 1.2649231 2.8455s-.4596323 2.1187213-1.2649231 2.8455c-.4555077.3612056-.7249162.9077305-.734 1.489 0 .2652165-.1053568.5195704-.2928932.7071068s-.4418903.2928932-.7071068.2928932z"/>
        <path id="Shape"
              d="m43 47c-.5522847 0-1-.4477153-1-1 .0059523-1.0836467.4645847-2.1154789 1.265-2.846.4632216-.3550112.7348361-.9053844.7348361-1.489s-.2716145-1.1339888-.7348361-1.489c-.805195-.7264163-1.2648003-1.7600556-1.2648003-2.8445s.4596053-2.1180837 1.2648003-2.8445c.4559123-.3601086.7257851-.9060961.735-1.487 0-.5522847.4477153-1 1-1s1 .4477153 1 1c-.0055091 1.0836617-.4646578 2.115477-1.266 2.845-.4631595.3543951-.7348116.9043083-.7348116 1.4875s.2716521 1.1331049.7348116 1.4875c.8052908.7267787 1.2649231 1.7607417 1.2649231 2.8455s-.4596323 2.1187213-1.2649231 2.8455c-.4555077.3612056-.7249162.9077305-.734 1.489 0 .2652165-.1053568.5195704-.2928932.7071068s-.4418903.2928932-.7071068.2928932z"/>
        <path id="Shape"
              d="m49 47c-.5522847 0-1-.4477153-1-1 .0059523-1.0836467.4645847-2.1154789 1.265-2.846.4632216-.3550112.7348361-.9053844.7348361-1.489s-.2716145-1.1339888-.7348361-1.489c-.805195-.7264163-1.2648003-1.7600556-1.2648003-2.8445s.4596053-2.1180837 1.2648003-2.8445c.4559123-.3601086.7257851-.9060961.735-1.487 0-.5522847.4477153-1 1-1s1 .4477153 1 1c-.0055091 1.0836617-.4646578 2.115477-1.266 2.845-.4631595.3543951-.7348116.9043083-.7348116 1.4875s.2716521 1.1331049.7348116 1.4875c.8052908.7267787 1.2649231 1.7607417 1.2649231 2.8455s-.4596323 2.1187213-1.2649231 2.8455c-.4555077.3612056-.7249162.9077305-.734 1.489 0 .2652165-.1053568.5195704-.2928932.7071068s-.4418903.2928932-.7071068.2928932z"/>
      </g>
      <circle id="Oval" cx="16" cy="32" fill="#67b9cc" r="16"/>
      <path id="Shape"
            d="m27.085 32.173-3.145-1.6 3.035-.985c.3558425-.0968478.6294992-.3816856.712027-.7411192.0825279-.3594337-.0394699-.7351158-.317426-.9774871-.2779561-.2423712-.6667494-.3120871-1.011601-.1813937l-3.04.986 1.6-3.15c.2510134-.4920857.0555857-1.0944866-.4365-1.3455s-1.0944866-.0555857-1.3455.4365l-2.513 4.932-3.623 1.173v-3.82l3.912-3.912c.3495386-.3960578.330745-.9956688-.0429104-1.3690596-.3736553-.3733907-.9732796-.3917595-1.3690896-.0419404l-2.5 2.5v-3.194c0-.5522847-.4477153-1-1-1s-1 .4477153-1 1v3.192l-2.5-2.5c-.2510745-.2599566-.6228779-.3642126-.9725073-.2726972-.3496295.0915155-.6226744.3645604-.7141899.7141899-.0915154.3496294.0127406.7214328.2726972.9725073l3.914 3.911v3.82l-3.628-1.178-2.513-4.932c-.25101342-.4920857-.85341429-.6875134-1.3455-.4365s-.68751342.8534143-.4365 1.3455l1.605 3.15-3.04-.986c-.34485162-.1306934-.73364489-.0609775-1.01160098.1813937-.27795608.2423713-.3999539.6180534-.31742605.9774871.08252785.3594336.35618448.6442714.71202703.7411192l3.035.985-3.145 1.6c-.47410212.2598518-.6558263.8494657-.41026423 1.3311243.24556208.4816587.82947964.6809285 1.31826423.4498757l4.927-2.511 3.632 1.179-2.243 3.087-5.465.866c-.35687434.0516431-.65830711.291419-.78889857.6275323-.13059145.3361134-.07011423.7165035.15827872.9955429.22839295.2790393.58932577.4135074.94461985.3519248l3.489-.545-1.877 2.577c-.32474342.4467984-.22579835 1.0722566.22100001 1.397s1.07225655.2257984 1.39699999-.221l1.882-2.579.552 3.488c.0766568.4853784.4946064.8431365.986.844.0529395.0001427.1057957-.0042063.158-.013.5452778-.0860494.9176876-.5976653.832-1.143l-.866-5.465 2.238-3.085 2.243 3.088-.866 5.465c-.0856876.5453347.2867222 1.0569506.832 1.143.0522043.0087937.1050605.0131427.158.013.4913936-.0008635.9093432-.3586216.986-.844l.552-3.488 1.874 2.579c.2106081.2895638.5596984.4447737.915772.4071636.3560736-.03761.6650345-.2623262.8105-.5895s.1053361-.7070998-.105272-.9966636l-1.877-2.577 3.489.553c.3552941.0615826.7162269-.0728855.9446199-.3519248.2283929-.2790394.2888701-.6594295.1582787-.9955429-.1305915-.3361133-.4320243-.5758892-.7888986-.6275323l-5.465-.866-2.243-3.087 3.632-1.179 4.927 2.511c.3195472.1751414.7090678.1625992 1.016686-.0327363.3076182-.1953356.4846313-.5425386.4620211-.9062332-.0226101-.3636945-.2412638-.6862997-.5707071-.8420305z"
            fill="#2980ba"/>
    </g>
  </g>
</svg>
