<svg id="Layer_35" enable-background="new 0 0 64 64"
     height="20px"
     width="24px"
     viewBox="0 0 64 64"
     xmlns="http://www.w3.org/2000/svg">
  <path
    d="m48 9-13.24 8.66.24-.66v-2l-7 4v2.16l-2.63 1.49c-1.55.89-3.31 1.35-5.1 1.35-2.73 0-5.36-1.09-7.29-3.02l-.98-.98v-1l5.01-2.94 7.85-4.6 6.39-3.74 8.46-4.96c.84-.5 1.81-.76 2.78-.76 3.05 0 5.51 2.46 5.51 5.51z"
    fill="#e6e9ed"/>
  <path d="m16.97 16 .04.06-5.01 2.94-5-8 3-1z" fill="#ff826e"/>
  <path d="m31.25 7.71v.01l-6.39 3.74-8.86-6.46 3-2z" fill="#ff826e"/>
  <path d="m35 15v2l-.24.66-3.76 10.34-3 1v-7.84-2.16z" fill="#ff826e"/>
  <path d="m40 30v1l3 9h12l3-9v-1z" fill="#fcd770"/>
  <path d="m53 40v8h-8v-8h2 4z" fill="#aab2bd"/>
  <path d="m34.55 48-2.55 14h30v-14z" fill="#e6e9ed"/>
  <path d="m38 37v2c0 .55-.45 1-1 1h-1-7-6-6-6-7-1c-.55 0-1-.45-1-1v-2c0-.55.45-1 1-1h34c.55 0 1 .45 1 1z"
        fill="#aab2bd"/>
  <g fill="#69d6f4">
    <path d="m29 40h-6-6-6-7l2 11 2 11h3 6 6 6 3l2-11 .55-3 1.45-8z"/>
    <path d="m54 54h4v8h-4z"/>
    <path d="m46 54h4v8h-4z"/>
    <path d="m38 54h4v8h-4z"/>
    <path d="m47 34h4v6h-4z"/>
  </g>
  <path d="m40.143 4.514h2v2h-2z" transform="matrix(.857 -.515 .515 .857 3.029 21.96)"/>
  <path d="m36.713 6.572h2v2h-2z" transform="matrix(.857 -.515 .515 .857 1.48 20.488)"/>
  <path d="m33.283 8.63h2v2h-2z" transform="matrix(.857 -.515 .515 .857 -.068 19.017)"/>
  <path
    d="m11 20.414 1.271 1.271c2.138 2.138 4.979 3.315 8.002 3.315 1.957 0 3.891-.511 5.592-1.479l1.135-.646v7.512l4.774-1.591 3.811-10.48 13.415-8.775v-2.036c0-3.587-2.918-6.505-6.505-6.505-1.156 0-2.293.309-3.29.893l-8.041 4.714-12.288-4.726-4.624 3.082 8.784 6.408-5.894 3.455-6.92-5.954-4.743 1.581 5.521 8.834zm19.226 6.79-1.226.409v-8.033l5-2.857zm9.99-23.585c.69-.405 1.478-.619 2.279-.619 2.484 0 4.505 2.021 4.505 4.505v.954l-11 7.196v-2.378l-9 5.143v2.154l-2.124 1.209c-1.4.796-2.992 1.217-4.603 1.217-2.488 0-4.828-.969-6.587-2.729l-.686-.685zm-22.468 1.418 1.376-.918 9.833 3.781-4.038 2.367zm-7.97 6.091 5.541 4.768-2.986 1.75-3.812-6.099z"/>
  <path
    d="m54 47v-6h1.721l3.279-9.838v-2.162h-20v2.162l3.279 9.838h1.721v6h-8.256l1.091-6h.165c1.103 0 2-.897 2-2v-2c0-1.103-.897-2-2-2h-34c-1.103 0-2 .897-2 2v2c0 1.103.897 2 2 2h.165l4 22h55.835v-16zm-4-8h-2v-4h2zm-8.946-8h15.892l-2.667 8h-2.279v-6h-6v6h-2.279zm4.946 10h6v6h-6zm-12.835 9h-3.165v-9h4.802zm-17.165-9v9h-4v-9zm12 0v9h-4v-9zm-6 9h-4v-9h4zm-6 2v9h-4v-9zm2 0h4v9h-4zm6 0h4v9h-4zm6 0h2.802l-1.636 9h-1.166zm-27-15h34l.001 2h-34.001zm7 4v9h-3.165l-1.636-9zm-2.802 11h2.802v9h-1.166zm33.802 9h-2v-6h2zm8 0h-2v-6h2zm8 0h-2v-6h2zm4 0h-2v-8h-6v8h-2v-8h-6v8h-2v-8h-6v8h-3.802l2.182-12h25.62z"/>
</svg>
