<svg id="Line"
     viewBox="0 0 64 64"
     height="20px"
     width="24px"
     xmlns="http://www.w3.org/2000/svg">
  <path
    d="m54.32324 4h-34.01367a1 1 0 0 0 0 2h34.01367a3.68054 3.68054 0 0 1 3.67676 3.67627v34.01465a1 1 0 1 0 2 0v-34.01465a5.68315 5.68315 0 0 0 -5.67676-5.67627z"/>
  <path
    d="m55.03027 48.94043a.99989.99989 0 1 0 -1.41406 1.41406l2.96961 2.96924h-42.23328a3.68033 3.68033 0 0 1 -3.67578-3.67627v-42.23328l2.96875 2.96912a.99989.99989 0 0 0 1.41406-1.41406l-4.67578-4.67624a.99963.99963 0 0 0 -1.41406 0l-4.67673 4.67624a.99989.99989 0 0 0 1.414 1.41406l2.96976-2.96936v42.23352a5.68231 5.68231 0 0 0 5.67578 5.67627h42.23328l-2.96961 2.96927a.99989.99989 0 1 0 1.41406 1.414l4.67673-4.67624a.99963.99963 0 0 0 0-1.41406z"/>
  <path
    d="m21.7959 20.24512a.99973.99973 0 0 0 -1 1v19.416a1 1 0 0 0 2 0v-14.46581a3.23975 3.23975 0 0 1 6.47949 0v14.46582a1 1 0 0 0 2 0v-14.46582a3.23975 3.23975 0 0 1 6.47949 0v14.46582a1 1 0 0 0 2 0v-14.46582a5.22759 5.22759 0 0 0 -9.47943-3.05346 5.17192 5.17192 0 0 0 -7.47955-1.03241v-.86432a.99974.99974 0 0 0 -1-1z"/>
  <path
    d="m50.27441 20.71436a3.8922 3.8922 0 0 0 .67286-2.18457 3.93409 3.93409 0 1 0 -7.86817 0 1 1 0 0 0 2 0 1.93409 1.93409 0 1 1 3.86817 0 1.87325 1.87325 0 0 1 -.30567 1.02978l-4.67773 5.021a1.38922 1.38922 0 0 0 1.01269 2.33886h4.87793a1 1 0 0 0 0-2h-3.46289l3.583-3.81054c.0264-.02832.29981-.39453.29981-.39453z"/>
</svg>
