<svg id="Glyph"
     height="24px"
     width="27px"
     viewBox="0 0 64 64" xmlns="http://www.w3.org/2000/svg">
  <path
    d="m54.32288 3.5h-34.01368a1.5 1.5 0 0 0 0 3h34.01368a3.17988 3.17988 0 0 1 3.17675 3.17627v34.01465a1.5 1.5 0 0 0 3 0v-34.01465a6.18316 6.18316 0 0 0 -6.17675-6.17627z"/>
  <path
    d="m55.38342 48.58691a1.53626 1.53626 0 0 0 -2.12109 0 1.49947 1.49947 0 0 0 0 2.1211l2.11621 2.11572h-41.02637a3.17968 3.17968 0 0 1 -3.17578-3.17627v-41.02637l2.11524 2.11573a1.53626 1.53626 0 0 0 2.12109 0 1.49947 1.49947 0 0 0 0-2.1211l-4.67578-4.67627a1.53628 1.53628 0 0 0 -2.1211 0l-4.67675 4.67627a1.50123 1.50123 0 0 0 0 2.1211 1.53626 1.53626 0 0 0 2.12109 0l2.11621-2.11573v41.02637a6.183 6.183 0 0 0 6.17578 6.17627h41.02637l-2.11621 2.11572a1.49984 1.49984 0 1 0 2.12109 2.1211l4.67676-4.67627a1.49947 1.49947 0 0 0 0-2.1211z"/>
  <path
    d="m38.75452 42.16113a1.50164 1.50164 0 0 0 1.5-1.5v-14.46582a5.72573 5.72573 0 0 0 -9.9795-3.84668 5.743 5.743 0 0 0 -4.23925-1.89306 5.58435 5.58435 0 0 0 -2.74219.71875 1.49986 1.49986 0 0 0 -2.998.0708v19.416a1.5 1.5 0 0 0 3 0v-14.46581a2.73975 2.73975 0 0 1 5.47949 0v14.46582a1.5 1.5 0 0 0 3 0v-14.46582a2.73975 2.73975 0 0 1 5.4795 0v14.46582a1.50164 1.50164 0 0 0 1.49995 1.5z"/>
  <path
    d="m50.44983 21.31885.23828-.32471a4.39114 4.39114 0 0 0 .75879-2.46435 4.43408 4.43408 0 1 0 -8.86816 0 1.5 1.5 0 0 0 3 0 1.4341 1.4341 0 1 1 2.69628.689l-4.67578 5.01953a1.88912 1.88912 0 0 0 1.377 3.18115h4.87793a1.5 1.5 0 0 0 0-3h-2.30668l2.793-2.96972c.03805-.04155.07516-.08549.10934-.1309z"/>
</svg>
