<svg
  height="24px"
  width="27px"
  id="Layer_5"
  enable-background="new 0 0 64 64" viewBox="0 0 64 64"
  xmlns="http://www.w3.org/2000/svg">
  <g>
    <path
      d="m27 11c-4.411 0-8 3.589-8 8s3.589 8 8 8 8-3.589 8-8-3.589-8-8-8zm5.91 7h-4.91v-4.91c2.507.424 4.486 2.403 4.91 4.91zm-6.91-4.91v4.91h-4.91c.424-2.507 2.403-4.486 4.91-4.91zm-4.91 6.91h4.91v4.91c-2.507-.424-4.486-2.403-4.91-4.91zm6.91 4.91v-4.91h4.91c-.424 2.507-2.403 4.486-4.91 4.91z"/>
    <path
      d="m44 46.942c1.654 0 3-1.346 3-3s-1.346-3-3-3-3 1.346-3 3 1.346 3 3 3zm0-4c.551 0 1 .449 1 1s-.449 1-1 1-1-.449-1-1 .449-1 1-1z"/>
    <path
      d="m54 50.942c-1.654 0-3 1.346-3 3s1.346 3 3 3 3-1.346 3-3-1.346-3-3-3zm0 4c-.551 0-1-.449-1-1s.449-1 1-1 1 .449 1 1-.449 1-1 1z"/>
    <path
      d="m51.879 41.821-10 10c-.567.566-.879 1.32-.879 2.121s.312 1.555.879 2.121c.566.567 1.32.879 2.121.879s1.555-.312 2.121-.879l10-10c.567-.566.879-1.32.879-2.121s-.312-1.555-.879-2.121c-1.133-1.134-3.109-1.134-4.242 0zm2.828 2.828-10 10c-.384.383-1.03.383-1.414 0-.191-.192-.293-.436-.293-.707s.102-.515.293-.707l10-10c.192-.191.436-.293.707-.293s.515.102.707.293c.191.192.293.436.293.707s-.102.515-.293.707z"/>
    <path
      d="m49 35v-14.194c.321.115.654.194.998.194 1.041 0 2.023-.552 2.563-1.439.417-.685.542-1.491.353-2.269-.189-.779-.67-1.438-1.355-1.854l-4.559-2.776v-11.662h-12v4.358l-6.442-3.921c-.939-.571-2.18-.571-3.119.001l-23 14c-.685.417-1.167 1.075-1.355 1.854-.189.778-.064 1.584.351 2.266.548.902 1.506 1.442 2.564 1.442.345 0 .679-.08 1.001-.195v23.195c0 2.757 2.243 5 5 5h25c0 7.72 6.28 14 14 14s14-6.28 14-14-6.28-14-14-14zm-12-32h8v8.445l-8-4.87zm-33.856 15.518c-.138-.228-.18-.496-.117-.755s.223-.478.452-.617l23-14c.314-.191.728-.189 1.04 0l23 14.001c.228.139.388.357.451.617.064.263.023.525-.118.757-.275.452-.918.611-1.375.333l-22.478-13.684-22.48 13.684c-.464.281-1.094.127-1.375-.336zm29.856 28.482h-12v-10c0-3.309 2.691-6 6-6s6 2.691 6 6zm2 0v-10c0-4.411-3.589-8-8-8s-8 3.589-8 8v10h-9c-1.654 0-3-1.346-3-3v-24.315l19.999-12.173 20.001 12.174v15.474c-6.118.881-10.959 5.722-11.84 11.84zm14 14c-6.617 0-12-5.383-12-12s5.383-12 12-12 12 5.383 12 12-5.383 12-12 12z"/>
  </g>
</svg>
