<svg
  height="24px"
  width="27px"
  id="Layer_1" enable-background="new 0 0 1024 1024"
     viewBox="0 0 1024 1024"
     xmlns="http://www.w3.org/2000/svg">
  <g id="_x33_0">
    <path d="m206.29 591.23h381.03v20h-381.03z"/>
    <path d="m637.8 591.23h30.24v20h-30.24z"/>
    <path d="m723.18 591.23h94.53v20h-94.53z"/>
    <path d="m315.99 651.23h20v188h-20z"/>
    <path d="m439.61 651.23h20v188h-20z"/>
    <path d="m563.23 651.23h20v188h-20z"/>
    <path d="m686.84 651.23h20v188h-20z"/>
    <path
      d="m743.18 528.24h-20v-433.27c0-.41-.32-.73-.73-.73h-422.54c-.41 0-.73.32-.73.73v433.26h-20v-433.26c0-11.43 9.3-20.73 20.73-20.73h422.54c11.43 0 20.73 9.3 20.73 20.73z"/>
    <path d="m501.18 84.24h20v443.99h-20z"/>
    <path d="m289.18 243.82h444v20h-444z"/>
    <path
      d="m206.29 899.23h-50c-5.52 0-10-4.48-10-10v-338c0-5.52 4.48-10 10-10h50c5.52 0 10 4.48 10 10v338c0 5.52-4.48 10-10 10zm-40-20h30v-318h-30z"/>
    <path
      d="m867.71 899.24h-50c-5.52 0-10-4.48-10-10v-337.69c0-5.52 4.48-10 10-10h50c5.52 0 10 4.48 10 10v337.69c0 5.52-4.48 10-10 10zm-40-20h30v-317.69h-30z"/>
    <path
      d="m126.29 949.45c-2.65 0-5.2-1.05-7.07-2.93-1.88-1.88-2.93-4.42-2.93-7.07v-50.22c0-5.52 4.48-10 10-10h771.42c5.52 0 10 4.48 10 10v50c0 5.52-4.48 10-10 10zm10-50.22v30.22l751.42-.21v-30h-751.42z"/>
    <path
      d="m867.71 949.76h-50c-5.52 0-10-4.48-10-10v-.53c0-5.52 4.48-10 10-10h50c5.52 0 10 4.48 10 10v.53c0 5.52-4.48 10-10 10z"/>
  </g>
</svg>
