<svg id="Capa_1" enable-background="new 0 0 512 512" height="512" viewBox="0 0 512 512" width="512"
     xmlns="http://www.w3.org/2000/svg">
  <path
    d="m512 271.987v-81.595l-256-190.379-256 190.379v81.595h61v210h-30v30h450v-30h-30v-210zm-482-66.519 226-168.069 226 168.068v36.519h-31v-21.563l-195-146.247-195 146.247v21.563h-31zm61 126.519h60v60h60v30h60v30h60v30h-240zm120-60h30v-30h-30v-30h90v90h-90zm150 210v-60h-60v-30h-60v-30h-60v-30h240v150zm60-180h-90v-120h-150v120h-90c0-14.775 0-53.095 0-66.563l165-123.747 165 123.747z"/>
</svg>
