<svg id="Capa_1" enable-background="new 0 0 512 512"
     viewBox="0 0 512 512"
     height="20px"
     width="24px"
     xmlns="http://www.w3.org/2000/svg">
  <g>
    <path d="m19.827 33.591v40.22l3.49 2.79v24.381l-3.49 3.735v372.968h175.702v-444.094z" fill="#8479c2"/>
    <path d="m19.827 33.591v40.22l3.49 2.79v24.381l-3.49 3.735v372.968h53.412v-444.094z" fill="#6e60b8"/>
    <path d="m256 33.591h-62.436v444.094h62.436l3.228-5.752v-434.959z" fill="#8bcaff"/>
    <path
      d="m73.93 73.811h-54.103v30.905h54.103c11.719 0 21.254 9.534 21.254 21.253v19.534l2.736 3.296h24.982l3.188-3.296v-19.534c-.001-28.759-23.4-52.158-52.16-52.158z"
      fill="#b5dcff"/>
    <g>
      <path
        d="m78.532 222.209c-4.267 0-7.726-3.459-7.726-7.726v-8.499c0-4.267 3.459-7.726 7.726-7.726s7.726 3.459 7.726 7.726v8.499c0 4.267-3.459 7.726-7.726 7.726z"
        fill="#60b9fe"/>
    </g>
    <g>
      <path
        d="m111.749 222.209c-4.267 0-7.726-3.459-7.726-7.726v-8.499c0-4.267 3.459-7.726 7.726-7.726s7.726 3.459 7.726 7.726v8.499c.001 4.267-3.459 7.726-7.726 7.726z"
        fill="#60b9fe"/>
    </g>
    <g>
      <path
        d="m144.967 222.209c-4.267 0-7.726-3.459-7.726-7.726v-8.499c0-4.267 3.459-7.726 7.726-7.726s7.726 3.459 7.726 7.726v8.499c0 4.267-3.459 7.726-7.726 7.726z"
        fill="#60b9fe"/>
    </g>
    <g>
      <path
        d="m78.532 260.326c-4.267 0-7.726-3.459-7.726-7.726v-8.499c0-4.267 3.459-7.726 7.726-7.726s7.726 3.459 7.726 7.726v8.499c0 4.267-3.459 7.726-7.726 7.726z"
        fill="#60b9fe"/>
    </g>
    <g>
      <path
        d="m111.749 260.326c-4.267 0-7.726-3.459-7.726-7.726v-8.499c0-4.267 3.459-7.726 7.726-7.726s7.726 3.459 7.726 7.726v8.499c.001 4.267-3.459 7.726-7.726 7.726z"
        fill="#60b9fe"/>
    </g>
    <g>
      <path
        d="m144.967 260.326c-4.267 0-7.726-3.459-7.726-7.726v-8.499c0-4.267 3.459-7.726 7.726-7.726s7.726 3.459 7.726 7.726v8.499c0 4.267-3.459 7.726-7.726 7.726z"
        fill="#60b9fe"/>
    </g>
    <g>
      <path
        d="m78.532 298.443c-4.267 0-7.726-3.459-7.726-7.726v-8.499c0-4.267 3.459-7.726 7.726-7.726s7.726 3.459 7.726 7.726v8.499c0 4.266-3.459 7.726-7.726 7.726z"
        fill="#60b9fe"/>
    </g>
    <g>
      <path
        d="m111.749 298.443c-4.267 0-7.726-3.459-7.726-7.726v-8.499c0-4.267 3.459-7.726 7.726-7.726s7.726 3.459 7.726 7.726v8.499c.001 4.266-3.459 7.726-7.726 7.726z"
        fill="#60b9fe"/>
    </g>
    <g>
      <path
        d="m144.967 298.443c-4.267 0-7.726-3.459-7.726-7.726v-8.499c0-4.267 3.459-7.726 7.726-7.726s7.726 3.459 7.726 7.726v8.499c0 4.266-3.459 7.726-7.726 7.726z"
        fill="#60b9fe"/>
    </g>
    <g>
      <path
        d="m78.532 336.559c-4.267 0-7.726-3.459-7.726-7.726v-8.499c0-4.267 3.459-7.726 7.726-7.726s7.726 3.459 7.726 7.726v8.499c0 4.267-3.459 7.726-7.726 7.726z"
        fill="#60b9fe"/>
    </g>
    <g>
      <path
        d="m111.749 336.559c-4.267 0-7.726-3.459-7.726-7.726v-8.499c0-4.267 3.459-7.726 7.726-7.726s7.726 3.459 7.726 7.726v8.499c.001 4.267-3.459 7.726-7.726 7.726z"
        fill="#60b9fe"/>
    </g>
    <g>
      <path
        d="m144.967 336.559c-4.267 0-7.726-3.459-7.726-7.726v-8.499c0-4.267 3.459-7.726 7.726-7.726s7.726 3.459 7.726 7.726v8.499c0 4.267-3.459 7.726-7.726 7.726z"
        fill="#60b9fe"/>
    </g>
    <path
      d="m256 67.88h-23.809c-4.265 0-7.722 3.457-7.722 7.722v144.441l4.025 4.733v64.043l-4.025 3.139v144.441c0 4.265 3.457 7.722 7.722 7.722h23.809l3.228-2.964v-368.401z"
      fill="#60b9fe"/>
    <path d="m224.469 220.042h34.759v71.915h-34.759z" fill="#1ca8ff"/>
    <path d="m294.211 33.953-7.306 5.046v427.011l6.337 12.037h198.931v-444.094z" fill="#dbedff"/>
    <path d="m256 33.953h38.378v444.094h-38.378z" fill="#b5dcff"/>
    <path
      d="m453.546 67.88h-126.952l-6.586 8.721v360.22l6.577 7.299h126.96c4.265 0 7.722-3.457 7.722-7.722v-360.796c.001-4.265-3.457-7.722-7.721-7.722z"
      fill="#8bcaff"/>
    <path
      d="m325.283 436.398v-360.796c0-4.265 3.457-7.722 7.722-7.722h-38.378c-4.265 0-7.722 3.457-7.722 7.722v144.441l4.773 3.36v63.184l-4.773 5.371v144.441c0 4.265 3.457 7.722 7.722 7.722h38.378c-4.265-.001-7.722-3.458-7.722-7.723z"
      fill="#60b9fe"/>
    <path
      d="m311.714 220.042h-24.809v71.916h24.809c3.367 0 6.097-2.73 6.097-6.097v-59.722c0-3.367-2.729-6.097-6.097-6.097z"
      fill="#1ca8ff"/>
    <g>
      <path
        d="m414.048 171.429c-1.977 0-3.955-.754-5.463-2.263l-49.291-49.292c-3.018-3.017-3.018-7.909 0-10.927s7.91-3.018 10.927 0l49.291 49.292c3.018 3.017 3.018 7.909 0 10.927-1.51 1.509-3.488 2.263-5.464 2.263z"
        fill="#b5dcff"/>
    </g>
    <g>
      <path
        d="m424.787 136.044c-1.977 0-3.955-.755-5.463-2.263l-24.646-24.646c-3.018-3.017-3.018-7.909 0-10.927 3.017-3.017 7.909-3.017 10.927 0l24.646 24.646c3.018 3.017 3.018 7.909 0 10.927-1.509 1.509-3.487 2.263-5.464 2.263z"
        fill="#b5dcff"/>
    </g>
    <path
      d="m505.107 475.026h-438.657l-4.244 3.99v28.459l5.28 4.526h437.621c3.807 0 6.893-3.086 6.893-6.893v-23.188c0-3.808-3.086-6.894-6.893-6.894z"
      fill="#aea7d7"/>
    <path
      d="m505.107 0h-439.212l-4.204 3.973v28.673l5.014 4.328h438.402c3.807 0 6.893-3.086 6.893-6.893v-23.188c0-3.807-3.086-6.893-6.893-6.893z"
      fill="#aea7d7"/>
    <path
      d="m64.009 505.107v-23.188c0-3.807 3.087-6.893 6.893-6.893h-64.009c-3.807 0-6.893 3.087-6.893 6.893v23.188c0 3.807 3.087 6.893 6.893 6.893h64.009c-3.807 0-6.893-3.086-6.893-6.893z"
      fill="#8479c2"/>
    <path
      d="m64.009 30.081v-23.188c0-3.807 3.086-6.893 6.893-6.893h-64.009c-3.806 0-6.893 3.086-6.893 6.893v23.188c0 3.807 3.087 6.893 6.893 6.893h64.009c-3.807 0-6.893-3.086-6.893-6.893z"
      fill="#8479c2"/>
    <path
      d="m154.072 145.504h-47.479l-5.627 3.468v21.634l4.583 5.804h48.523c4.03 0 7.297-3.267 7.297-7.297v-16.311c.001-4.031-3.266-7.298-7.297-7.298z"
      fill="#dbedff"/>
    <path
      d="m103.072 169.112v-16.311c0-4.03 3.267-7.297 7.297-7.297h-40.943c-4.03 0-7.297 3.267-7.297 7.297v16.311c0 4.03 3.267 7.297 7.297 7.297h40.944c-4.03 0-7.298-3.267-7.298-7.297z"
      fill="#b5dcff"/>
  </g>
</svg>
