<?xml version="1.0" encoding="iso-8859-1"?>
<!-- Generator: Adobe Illustrator 19.0.0, SVG Export Plug-In . SVG Version: 6.00 Build 0)  -->
<svg
  height="20px"
  width="24px"
  version="1.1" id="Capa_1" xmlns="http://www.w3.org/2000/svg" xmlns:xlink="http://www.w3.org/1999/xlink" x="0px"
     y="0px"
     viewBox="0 0 512 512" style="enable-background:new 0 0 512 512;" xml:space="preserve">
<path style="fill:#303C42;" d="M512,202.667c0-17.646-14.354-32-32-32h-10.667v-64c0-23.531-19.135-42.667-42.667-42.667
	S384,83.135,384,106.646l-0.021,10.688c-0.01,5.896,4.75,10.677,10.646,10.688c0.01,0,0.01,0,0.01,0
	c5.896,0,10.667-4.76,10.677-10.646l0.021-10.708c0-11.76,9.573-21.333,21.333-21.333c11.76,0,21.333,9.573,21.333,21.333v64H32
	c-17.646,0-32,14.354-32,32c0,13.888,8.944,25.617,21.333,30.035v33.965c0,48.961,25.574,91.979,64,116.66v54.007
	C85.333,443.229,90.104,448,96,448h21.333c4.042,0,7.729-2.281,9.542-5.896l18.764-37.52c4.723,0.488,9.512,0.749,14.361,0.749h192
	c4.849,0,9.638-0.26,14.361-0.749l18.764,37.52c1.813,3.615,5.5,5.896,9.542,5.896H416c5.896,0,10.667-4.771,10.667-10.667v-54.007
	c38.426-24.681,64-67.699,64-116.66v-33.965C503.056,228.284,512,216.555,512,202.667z"/>
  <polygon style="fill:#2D98D4;" points="128,192 234.667,192 234.667,296.74 128,278.969 "/>
  <polygon style="opacity:0.1;fill:#010101;enable-background:new    ;" points="213.333,192 234.667,192 234.667,296.74
	213.333,293.185 "/>
  <polygon style="opacity:0.2;fill:#FFFFFF;enable-background:new    ;"
           points="128,192 149.333,192 149.333,282.667 128,279.113 "/>
  <path style="fill:#F3F3F3;" d="M32,192h74.667v21.333H32c-5.885,0-10.667-4.781-10.667-10.667S26.115,192,32,192z"/>
  <g>
	<path style="fill:#BDBDBD;" d="M110.74,426.667h-4.073v-32.033c5.549,2.322,11.327,4.168,17.212,5.76L110.74,426.667z"/>
    <path style="fill:#BDBDBD;"
          d="M405.333,426.667h-4.073l-13.139-26.272c5.884-1.592,11.663-3.439,17.212-5.76V426.667z"/>
</g>
  <path style="fill:#F3F3F3;" d="M352,384H160c-64.698,0-117.333-52.635-117.333-117.333v-32h64V288c0,5.219,3.771,9.667,8.917,10.521
	l128,21.333c0.583,0.094,1.167,0.146,1.75,0.146c2.51,0,4.958-0.885,6.896-2.531c2.396-2.021,3.771-5,3.771-8.135v-74.667h213.333
	v32C469.333,331.365,416.698,384,352,384z"/>
  <path style="opacity:0.1;fill:#010101;enable-background:new    ;" d="M441.777,234.667v4.444
	c0,64.698-52.635,117.333-117.333,117.333h-192c-25.326,0-48.738-8.147-67.934-21.844C85.803,364.443,120.628,384,160,384h192
	c64.698,0,117.333-52.635,117.333-117.333v-32H441.777z"/>
  <path style="fill:#F3F3F3;"
        d="M480,213.333H256V192h224c5.885,0,10.667,4.781,10.667,10.667S485.885,213.333,480,213.333z"/>
  <path style="opacity:0.1;fill:#010101;enable-background:new    ;" d="M480,192h-45.5c4.69,0,8.5,4.781,8.5,10.667
	s-3.81,10.667-8.5,10.667H480c5.885,0,10.667-4.781,10.667-10.667S485.885,192,480,192z"/>
  <linearGradient id="SVGID_1_" gradientUnits="userSpaceOnUse" x1="-38.3199" y1="635.3512" x2="-29.7269" y2="626.7582"
                  gradientTransform="matrix(21.3333 0 0 -21.3333 996.3334 13791.667)">
	<stop offset="0" style="stop-color:#010101;stop-opacity:0.1"/>
    <stop offset="1" style="stop-color:#010101;stop-opacity:0"/>
</linearGradient>
  <path style="fill:url(#SVGID_1_);" d="M256,192v21.333h21.333L256,192z M298.667,234.667H256v74.667
	c0,3.135-1.375,6.115-3.771,8.135c-1.938,1.646-4.385,2.531-6.896,2.531c-0.583,0-1.167-0.052-1.75-0.146l-126.076-21.013
	L202.667,384H352c26.918,0,51.673-9.207,71.492-24.508L298.667,234.667z"/>
  <linearGradient id="SVGID_2_" gradientUnits="userSpaceOnUse" x1="-45.5705" y1="639.7457" x2="-24.7594" y2="630.0416"
                  gradientTransform="matrix(21.3333 0 0 -21.3333 996.3334 13791.667)">
	<stop offset="0" style="stop-color:#FFFFFF;stop-opacity:0.2"/>
    <stop offset="1" style="stop-color:#FFFFFF;stop-opacity:0"/>
</linearGradient>
  <path style="fill:url(#SVGID_2_);" d="M512,202.667c0-17.646-14.354-32-32-32h-10.667v-64c0-23.531-19.135-42.667-42.667-42.667
	S384,83.135,384,106.646l-0.021,10.688c-0.01,5.896,4.75,10.677,10.646,10.688c0.01,0,0.01,0,0.01,0
	c5.896,0,10.667-4.76,10.677-10.646l0.021-10.708c0-11.76,9.573-21.333,21.333-21.333c11.76,0,21.333,9.573,21.333,21.333v64H32
	c-17.646,0-32,14.354-32,32c0,13.888,8.944,25.617,21.333,30.035v33.965c0,48.961,25.574,91.979,64,116.66v54.007
	C85.333,443.229,90.104,448,96,448h21.333c4.042,0,7.729-2.281,9.542-5.896l18.764-37.52c4.723,0.488,9.512,0.749,14.361,0.749h192
	c4.849,0,9.638-0.26,14.361-0.749l18.764,37.52c1.813,3.615,5.5,5.896,9.542,5.896H416c5.896,0,10.667-4.771,10.667-10.667v-54.007
	c38.426-24.681,64-67.699,64-116.66v-33.965C503.056,228.284,512,216.555,512,202.667z"/>
  <g>
</g>
  <g>
</g>
  <g>
</g>
  <g>
</g>
  <g>
</g>
  <g>
</g>
  <g>
</g>
  <g>
</g>
  <g>
</g>
  <g>
</g>
  <g>
</g>
  <g>
</g>
  <g>
</g>
  <g>
</g>
  <g>
</g>
</svg>
