<svg
  height="24px"
  width="27px"
  viewBox="0 -48 512 512" xmlns="http://www.w3.org/2000/svg">
  <path
    d="m482.742188 0h-394.101563c-4.183594 0-7.574219 3.394531-7.574219 7.574219 0 4.179687 3.390625 7.574219 7.574219 7.574219h394.101563c7.777343 0 14.109374 6.332031 14.109374 14.117187v186.519531c-5.210937-8.007812-11.613281-15.15625-18.964843-21.226562-17.308594-64.011719 4.109375-106.386719 4.109375-118.714844 0-12.15625-11.175782-20.875-21.996094-16.632812-3.339844 1.09375-22.757812 10.382812-50.675781 10.382812h-65.753907c-4.183593 0-7.574218 3.390625-7.574218 7.574219 0 4.179687 3.390625 7.574219 7.574218 7.574219h65.753907c30.792969 0 52.300781-10.101563 55.503906-11.171876 1.964844-.625 2.28125 2.113282 1.828125 3.503907-11.082031 34.128906-13.65625 70.730469-7.019531 105.699219-12.433594-6.132813-26.417969-9.574219-41.195313-9.574219h-128.386718c1.382812-9.828125 2.078124-19.773438 2.078124-29.8125 0-29.863281-7.152343-57.097657-9.925781-64.039063-1.355469-4.234375-.132812-6.3125.453125-6.019531 10.601563 4.339844 20.757813 7.207031 29.328125 8.859375 4.121094.785156 8.078125-1.898438 8.867188-6.011719.789062-4.109375-1.898438-8.078125-6-8.867187-14.132813-2.71875-23.199219-6.933594-26.71875-8.109375-12.46875-4.804688-25.996094 6.929687-20.390625 24.652343 1.09375 4.363282 14.441406 40.507813 6.996094 89.347657h-38.820313c-7.207031-47.085938 5.292969-81.605469 7.839844-91.863281 4.179687-14.0625-8.378907-27.117188-21.199219-22.125-.605469.203124-1.324219.484374-2.3125.878906-30.042969 11.945312-43.886719 9.503906-118.855469 9.503906-27.496093 0-45.625-8.703125-50.699219-10.394531-12.183593-4.742188-26.054687 6.746093-20.386718 24.652343.007812.039063.019531.082032.039062.121094 11.484375 36.074219 12.1875 75.542969 2.089844 112.007813-6.644531 5.746093-12.480469 12.414062-17.289062 19.804687v-186.519531c0-7.785156 6.332031-14.117187 14.109374-14.117187h29.085938c4.179688 0 7.574219-3.394532 7.574219-7.574219 0-4.179688-3.394531-7.574219-7.574219-7.574219h-29.085938c-16.128906 0-29.257812 13.128906-29.257812 29.265625v323.835937c0 10.050782 8.171875 18.21875 18.21875 18.21875h33.316406v27.730469c0 9.363281 7.613282 16.988281 16.988282 16.988281h40.960937c9.371094 0 16.996094-7.625 16.996094-16.988281v-27.730469h259.039062v27.730469c0 9.363281 7.625 16.988281 16.996094 16.988281h40.960937c9.375 0 16.988282-7.625 16.988282-16.988281v-27.730469h33.316406c10.046875 0 18.21875-8.167968 18.21875-18.21875 0-12.453124 0-307.238281 0-323.835937 0-16.136719-13.128906-29.265625-29.257812-29.265625zm-371.410157 399.050781c0 1.011719-.828125 1.839844-1.847656 1.839844h-40.960937c-1.023438 0-1.839844-.828125-1.839844-1.839844v-27.730469h44.648437zm333.984375 0c0 1.011719-.816406 1.839844-1.839844 1.839844h-40.960937c-1.019531 0-1.847656-.828125-1.847656-1.839844v-27.730469h44.648437zm51.535156-45.949219c0 1.695313-1.375 3.070313-3.070312 3.070313-1.675781 0-469.835938 0-475.5625 0-1.695312 0-3.070312-1.375-3.070312-3.070313v-30.382812h481.703124zm0-45.53125h-481.703124c0-50.972656 0-30.472656 0-40.804687 0-40.269531 31.058593-78.417969 81.679687-78.417969 4.183594 0 7.574219-3.394531 7.574219-7.574218 0-4.183594-3.390625-7.574219-7.574219-7.574219-16.066406 0-30.164063 2.1875-45.9375 10.308593 6.574219-34.445312 4.554687-70.570312-6.070313-104-.589843-1.46875-1.160156-5.023437.007813-6.078124.191406-.179688.304687-.140626.394531-.101563 19.109375 7.824219 37.613282 11.414063 56.171875 11.414063 75.757813 0 91.53125 2.503906 124.449219-10.574219.003906 0 2.332031-.886719 2.332031-.890625.09375.03125.457031.242187.789063.820312.765625 1.328125.375 2.464844.121094 3.472656-2.363282 9.722657-15.546876 45.957032-8.484376 95.628907h-93.476562c-4.179688 0-7.574219 3.390625-7.574219 7.574219 0 4.179687 3.394531 7.574218 7.574219 7.574218h291.316406c43.144532 0 78.410156 35.117188 78.410156 78.417969zm0 0"/>
</svg>
