<svg id="icons" height="20px" viewBox="0 0 340 340" width="24px" xmlns="http://www.w3.org/2000/svg">
  <path d="m264.445 105.576h14.65v33.877h-14.65z" fill="#fff"/>
  <path d="m267.003 101.302h9.534v14.764h-9.534z" fill="#3c3e4f"/>
  <path
    d="m282.514 63.373h-21.487a7.58 7.58 0 0 0 -7.4 5.958l-7.809 35.623h51.915l-7.809-35.623a7.581 7.581 0 0 0 -7.41-5.958z"
    fill="#ffd983"/>
  <g fill="#fff">
    <path
      d="m266.093 70.537h1.368a1.01 1.01 0 0 1 .992 1.194l-2.68 14.353a1.009 1.009 0 0 1 -.992.824h-4.759a1.009 1.009 0 0 1 -.988-1.215l2.37-11.344a4.79 4.79 0 0 1 4.689-3.812z"/>
    <path
      d="m258.958 90.441h3.942a1.278 1.278 0 0 1 1.258 1.5l-.66 3.766a1.276 1.276 0 0 1 -1.258 1.057h-4.157a1.277 1.277 0 0 1 -1.244-1.566l.876-3.767a1.277 1.277 0 0 1 1.243-.99z"/>
    <path
      d="m200.092 91.435h-122.492a16.182 16.182 0 0 0 -16.182 16.182v45.683h154.856v-45.683a16.182 16.182 0 0 0 -16.182-16.182z"/>
  </g>
  <path d="m324.743 212.949v22.71h-10.989s1.979-19.269-18.785-22.71l1.37-7.92z" fill="#3c3e4f"/>
  <path d="m213.747 139.453h110.996v73.495h-110.996z" fill="#ffaf9f"/>
  <path
    d="m213.747 139.453v73.5h62.791v-12.976a35.021 35.021 0 0 0 -11.815-26.229l-19.353-14.661a22.522 22.522 0 0 1 -8.767-15.314l-.509-4.32z"
    fill="#c96969"/>
  <path d="m15.257 243.443v33.184h14.2s2.868-28.268 27.449-33.184v-7.784z" fill="#3c3e4f"/>
  <path d="m262.433 243.443v33.184h-14.2s-2.868-28.268-27.448-33.184v-7.784z" fill="#3c3e4f"/>
  <path d="m15.257 213.946h247.176v29.497h-247.176z" fill="#3c3e4f"/>
  <path
    d="m256.009 183.6c-15.582-17.339-39.735-30.287-39.735-30.287h-154.858s-24.153 12.949-39.735 30.287a24.935 24.935 0 0 0 -6.424 16.66v20.24h247.176v-20.24a24.93 24.93 0 0 0 -6.424-16.66z"
    fill="#7aaeed"/>
  <path
    d="m22.079 183.168c-.132.145-.268.287-.4.433a24.935 24.935 0 0 0 -6.424 16.66v20.239h247.178v-20.24a24.82 24.82 0 0 0 -3.951-13.385c-19.058 4.789-54.913 10.207-119.637 10.207-82.659.001-108.645-8.835-116.766-13.914z"
    fill="#4e79c4"/>
  <path
    d="m136.28 149.654.37-4.83c0-7.7-7.668-18.74-7.668-18.74a21.27 21.27 0 0 0 -10.924-3.669q-.635-.032-1.291-.032h-30.208a57.767 57.767 0 0 0 -16.35 2.027 41.978 41.978 0 0 0 -5.558 3.508c-6.3 5.681-8.151 15.931-8.151 15.931 0 5.237 2.42 7.287 7.657 7.287z"
    fill="#fff"/>
  <path
    d="m128.968 126.1c.3 6.074-.933 17.424-14.374 17.424h-38.712a10.743 10.743 0 0 1 -4.607-.969c-3.539-1.678-7.733-6.189-1.065-18.148a35.708 35.708 0 0 0 -5.392 2.013 19.226 19.226 0 0 0 -10.84 17.407 9.483 9.483 0 0 0 9.483 9.483h75.384v-8.49a22.673 22.673 0 0 0 -9.877-18.72z"
    fill="#dfe3ea"/>
  <path
    d="m141.411 149.654-.371-4.83c0-7.7 7.669-18.74 7.669-18.74a21.267 21.267 0 0 1 10.923-3.669q.635-.032 1.291-.032h30.208a57.764 57.764 0 0 1 16.35 2.027 41.97 41.97 0 0 1 5.559 3.508c6.3 5.681 8.15 15.931 8.15 15.931 0 5.237-2.419 7.287-7.656 7.287z"
    fill="#fff"/>
  <path
    d="m148.723 126.1c-.3 6.074.933 17.424 14.373 17.424h38.713a10.749 10.749 0 0 0 4.607-.969c3.538-1.678 7.732-6.189 1.065-18.148a35.7 35.7 0 0 1 5.391 2.013 19.226 19.226 0 0 1 10.84 17.407 9.483 9.483 0 0 1 -9.482 9.483h-75.385v-8.49a22.671 22.671 0 0 1 9.878-18.72z"
    fill="#dfe3ea"/>
  <circle cx="275.252" cy="156.997" fill="#3c3e4f" r="3.482"/>
  <circle cx="275.252" cy="195.404" fill="#3c3e4f" r="3.482"/>
  <path
    d="m15.257 280.108h14.2a3.487 3.487 0 0 0 3.463-3.123c.108-1.025 2.883-25.158 23.841-29.951.114-.026.216-.073.324-.109h163.498c.1.031.187.074.288.1 21.007 4.766 23.787 28.937 23.894 29.957a3.481 3.481 0 0 0 3.464 3.13h14.2a3.481 3.481 0 0 0 3.482-3.481v-33.188-27.013h29.689a3.436 3.436 0 0 0 .914.385c14.98 3.665 13.829 17.9 13.775 18.488a3.481 3.481 0 0 0 3.463 3.838h10.989a3.482 3.482 0 0 0 3.482-3.482v-96.206a3.482 3.482 0 0 0 -3.482-3.482h-42.164v-27.535h15.151a3.482 3.482 0 0 0 3.4-4.227l-7.81-35.623a11.127 11.127 0 0 0 -10.806-8.694h-21.485a11.129 11.129 0 0 0 -10.806 8.693l-7.81 35.624a3.482 3.482 0 0 0 3.4 4.227h15.152v27.535h-35.158a22.861 22.861 0 0 0 -6.049-9.058v-19.3a19.686 19.686 0 0 0 -19.664-19.664h-122.492a19.686 19.686 0 0 0 -19.663 19.664v19.3a22.964 22.964 0 0 0 -7.437 16.918 12.917 12.917 0 0 0 4.068 9.405c-8.1 4.855-23.929 15.192-35.473 28.037a28.385 28.385 0 0 0 -7.316 18.988v43.181 33.184a3.481 3.481 0 0 0 3.478 3.482zm243.694-40.147h-240.212v-12.176h240.212zm-232.457 33.184h-7.755v-26.22h22.523c-10.093 8.108-13.627 20.454-14.768 26.22zm224.7 0c-1.14-5.766-4.674-18.112-14.767-26.22h22.522v26.22zm7.4-91.872q-.72-.8-1.464-1.59h64.126v29.784h-55.341v-9.206a28.383 28.383 0 0 0 -7.315-18.988zm58.651 50.9a24.638 24.638 0 0 0 -7.105-15.747h11.116v15.747zm-60.227-162.1a4.124 4.124 0 0 1 4-3.222h21.487a4.124 4.124 0 0 1 4 3.222l6.882 31.395h-43.247zm10.9 38.359h7.687v27.535h-7.687zm53.334 34.5v29.784h-71.3a183.17 183.17 0 0 0 -26.826-19.483 12.917 12.917 0 0 0 4.068-9.405c0-.3-.02-.6-.032-.9zm-107.031 6.9h-71.9v-5.007a18.684 18.684 0 0 1 17.481-18.932c.366-.019.737-.029 1.115-.029h30.208.147c.116-.006 11.4-.428 20.1 3.707a15.789 15.789 0 0 1 8.852 14.262 6.008 6.008 0 0 1 -5.994 5.999zm-136.621-54.915h122.492a12.714 12.714 0 0 1 12.7 12.7v14.966c-9.6-3.991-20.581-3.721-21.727-3.682h-30.142q-.746 0-1.464.037a25.226 25.226 0 0 0 -20.614 12.756 25.223 25.223 0 0 0 -20.611-12.756q-.721-.038-1.467-.037h-30.141c-1.144-.039-12.127-.31-21.728 3.682v-14.966a12.714 12.714 0 0 1 12.702-12.7zm-11.287 34.652c7.206-3.426 16.266-3.72 19.164-3.72.584 0 .917.012.936.013h.146 30.208q.567 0 1.117.029a18.683 18.683 0 0 1 17.479 18.932v5.007h-71.9a6.008 6.008 0 0 1 -6-6 15.788 15.788 0 0 1 8.85-14.261zm-42.043 56.359c13.578-15.108 34.22-27 38.139-29.186.348.028.7.053 1.052.053h150.769c.355 0 .7-.025 1.052-.053 3.919 2.187 24.561 14.078 38.138 29.186a21.429 21.429 0 0 1 5.531 14.333v20.561h-240.212v-20.561a21.438 21.438 0 0 1 5.531-14.333z"
    fill="#3c3e4f"/>
</svg>
