<svg viewBox="0 0 42 60"
     height="20px"
     width="24px"
     xmlns="http://www.w3.org/2000/svg">
  <g id="Page-1" fill="none" fill-rule="evenodd">
    <g id="029---Boiler" fill-rule="nonzero">
      <path id="Shape"
            d="m41 6.25v36.5c.002202.7869345-.4606774 1.5008672-1.18 1.82-.66.29-1.61.67-2.82 1.07-5.1736056 1.6337822-10.5750142 2.4304899-16 2.36-5.4249858.0704899-10.8263944-.7262178-16-2.36-1.21-.4-2.16-.78-2.82-1.07-.71932259-.3191328-1.18220203-1.0330655-1.18-1.82v-36.5c-.00220203-.78693449.46067741-1.50086719 1.18-1.82 2.5-1.11 8.92-3.43 18.82-3.43s16.32 2.32 18.82 3.43c.7193226.31913281 1.182202 1.03306551 1.18 1.82z"
            fill="#f5f5f5"/>
      <path id="Shape"
            d="m39.82 4.43c-2.5-1.11-8.92-3.43-18.82-3.43-.511 0-1.007.01-1.5.022 9.047.218 14.949 2.355 17.32 3.408.7193226.31913281 1.182202 1.03306551 1.18 1.82v36.5c.002202.7869345-.4606774 1.5008672-1.18 1.82-.66.29-1.61.67-2.82 1.07-4.6930795 1.4826074-9.5786792 2.2669989-14.5 2.328.5.012.983.032 1.5.032 5.4249858.0704899 10.8263944-.7262178 16-2.36 1.21-.4 2.16-.78 2.82-1.07.7193226-.3191328 1.182202-1.0330655 1.18-1.82v-36.5c.002202-.78693449-.4606774-1.50086719-1.18-1.82z"
            fill="#cfd8dc"/>
      <path id="Shape"
            d="m18 53.93v3.07c-.0032948 1.1032019-.8967981 1.9967052-2 2h-2c-1.1032019-.0032948-1.9967052-.8967981-2-2v-3.69c1.987017.3173015 3.9900857.5242852 6 .62z"
            fill="#ff9801"/>
      <path id="Shape"
            d="m12 53.31v.39c.954.1 1.952.176 3 .228v3.072c-.0038609.9088331-.6200161 1.7007979-1.5 1.928.1627756.0458819.3308924.0700907.5.072h2c1.1032019-.0032948 1.9967052-.8967981 2-2v-3.07c-2.0099143-.0957148-4.012983-.3026985-6-.62z"
            fill="#f57c00"/>
      <path id="Shape"
            d="m37.0000022 45.64-.0000022 4.53c.0013045.8861191-.5806292 1.6674567-1.43 1.92-1.8286852.525289-3.689168.9327915-5.57 1.22-1.987017.3173015-3.9900857.5242852-6 .62-.96.04-1.96.07-3 .07s-2.04-.03-3-.07c-2.0099143-.0957148-4.012983-.3026985-6-.62-1.880832-.2872085-3.74131484-.694711-5.57-1.22-.84937079-.2525433-1.43130451-1.0338809-1.43-1.92l-.00000219-4.53c5.17360779 1.6337822 10.57501639 2.4304899 16.00000219 2.36 5.4249858.0704899 10.8263944-.7262178 16.0000022-2.36z"
            fill="#9e9e9e"/>
      <path id="Shape" d="m18 48c.517 0 1-.02 1.5-.032" fill="#707070"/>
      <path id="Shape"
            d="m34 46.5v3.67c.0013045.8861191-.5806292 1.6674567-1.43 1.92-1.8286852.525289-3.689168.9327915-5.57 1.22-1.987017.3173015-3.9900857.5242852-6 .62-.489.02-.99.038-1.5.05.491.012.99.02 1.5.02 1.04 0 2.04-.03 3-.07 2.0099143-.0957148 4.012983-.3026985 6-.62 1.880832-.2872085 3.7413148-.694711 5.57-1.22.8493708-.2525433 1.4313045-1.0338809 1.43-1.92l.0000022-4.53c-.8620022.287-1.8670022.582-3.0000022.86z"
            fill="#707070"/>
      <path id="Shape"
            d="m30 53.31v3.69c-.0032948 1.1032019-.8967981 1.9967052-2 2h-2c-1.1032019-.0032948-1.9967052-.8967981-2-2v-3.07c2.0099143-.0957148 4.012983-.3026985 6-.62z"
            fill="#ff9801"/>
      <path id="Shape"
            d="m27 53.7v3.3c-.0038609.9088331-.6200161 1.7007979-1.5 1.928.1627756.0458819.3308924.0700907.5.072h2c1.1032019-.0032948 1.9967052-.8967981 2-2v-3.69c-.941.152-1.943.284-3 .39z"
            fill="#f57c00"/>
      <circle id="Oval" cx="21" cy="14" fill="#00bcd4" r="7"/>
      <path id="Shape"
            d="m21 7c-.5044849.00078729-1.0074065.05610867-1.5.165 3.2064126.70878162 5.4891145 3.5511831 5.4891145 6.835s-2.2827019 6.1262184-5.4891145 6.835c2.6211486.579393 5.3427728-.3912156 7.0057888-2.4984637 1.663016-2.107248 1.9744743-4.9799318.8017312-7.3946348-1.172743-2.41470287-3.6231022-3.94606139-6.30752-3.9419015z"
            fill="#00838f"/>
      <rect id="Rectangle-path" fill="#00bcd4" height="8" rx="1" width="28" x="7" y="30"/>
      <path id="Shape"
            d="m34 30h-3c.5522847 0 1 .4477153 1 1v6c0 .5522847-.4477153 1-1 1h3c.5522847 0 1-.4477153 1-1v-6c0-.5522847-.4477153-1-1-1z"
            fill="#00838f"/>
      <g fill="#000">
        <path id="Shape"
              d="m40.225 3.512c-2.386-1.056-9.036-3.512-19.225-3.512s-16.839 2.456-19.226 3.512c-1.08065576.48219362-1.77591191 1.55564718-1.774 2.739v36.5c-.00199335 1.1836641.69377899 2.2573094 1.775 2.739.53.235 1.282.54 2.225.87v3.813c-.00033582 1.3312984.87673309 2.5035739 2.154 2.879 1.59492206.4527309 3.21247342.82157 4.846 1.105v2.843c0 1.6568542 1.3431458 3 3 3h2c1.6568542 0 3-1.3431458 3-3v-2.031c.6613333.02 1.328.0303333 2 .031s1.3386667-.0096667 2-.031v2.031c0 1.6568542 1.3431458 3 3 3h2c1.6568542 0 3-1.3431458 3-3v-2.843c1.6332152-.2837593 3.2504339-.6529325 4.845-1.106 1.2780186-.3751646 2.1556495-1.5480542 2.155-2.88v-3.813c.943-.33 1.7-.636 2.226-.87 1.0806558-.4821936 1.7759119-1.5556472 1.774-2.739v-36.498c.0019933-1.18366411-.693779-2.25730942-1.775-2.739zm-23.225 53.488c0 .5522847-.4477153 1-1 1h-2c-.5522847 0-1-.4477153-1-1v-2.529c1.3046667.178 2.638.3113333 4 .4zm12 0c0 .5522847-.4477153 1-1 1h-2c-.5522847 0-1-.4477153-1-1v-2.127c1.362-.088 2.6953333-.2213333 4-.4zm7-6.829c.0030269.4406152-.2849476.8304194-.707.957-4.6540591 1.2858229-9.464783 1.9158988-14.293 1.872-4.8285389.0437831-9.6395769-.5862899-14.294-1.872-.42165607-.1269446-.70915811-.5166606-.706-.957l-.00002576-3.171c4.88067746 1.3707672 9.93072416 2.0441068 15.00002576 2 5.0692966.0440263 10.119332-.6293118 15.0000236-2zm4-7.422c.0025424.3921674-.2264215.7489432-.584.91-2.27 1.005-8.608 3.341-18.416 3.341s-16.146-2.336-18.415-3.34c-.35795178-.1613121-.58724712-.5183857-.585-.911v-36.498c-.00254236-.39216738.22642146-.74894318.584-.91 2.27-1.005 8.608-3.341 18.416-3.341s16.146 2.336 18.415 3.34c.3579518.16131207.5872471.51838567.585.911z"/>
        <path id="Shape"
              d="m21 22c4.418278 0 8-3.581722 8-8s-3.581722-8-8-8-8 3.581722-8 8c.0049599 4.4162219 3.5837781 7.9950401 8 8zm0-14c3.3137085 0 6 2.6862915 6 6s-2.6862915 6-6 6-6-2.6862915-6-6c.0033074-3.3123376 2.6876624-5.99669262 6-6z"/>
        <path id="Shape"
              d="m34 29h-26c-1.1045695 0-2 .8954305-2 2v6c0 1.1045695.8954305 2 2 2h26c1.1045695 0 2-.8954305 2-2v-6c0-1.1045695-.8954305-2-2-2zm-26 8v-6h26v6z"/>
        <path id="Shape"
              d="m20.293 14.707c.3923789.3789722 1.0160848.3735524 1.4018186-.0121814s.3911536-1.0094397.0121814-1.4018186l-2-2c-.3923789-.3789722-1.0160848-.3735524-1.4018186.0121814s-.3911536 1.0094397-.0121814 1.4018186z"/>
        <path id="Shape"
              d="m13 33h-2c-.5522847 0-1 .4477153-1 1s.4477153 1 1 1h2c.5522847 0 1-.4477153 1-1s-.4477153-1-1-1z"/>
        <path id="Shape"
              d="m31 33h-14c-.5522847 0-1 .4477153-1 1s.4477153 1 1 1h14c.5522847 0 1-.4477153 1-1s-.4477153-1-1-1z"/>
      </g>
    </g>
  </g>
</svg>
