<svg
  height="24px"
  width="27px"
  id="Layer_1" enable-background="new 0 0 512 512" viewBox="0 0 512 512"
  xmlns="http://www.w3.org/2000/svg">
  <g>
    <circle cx="146.506" cy="414.996" r="10.001"/>
    <path
      d="m49.872 100.213c-5.531.04-9.972 4.425-9.941 9.945.04 5.5 4.51 9.825 10.001 9.825h.06c5.531 0 9.981-4.425 9.941-9.956-.04-5.519-4.54-9.854-10.061-9.814z"/>
    <path
      d="m159.928 111.534c-.14 5.52 4.211 9.45 9.731 10.45h.27c5.401 0 9.852-4.49 9.991-9.921.15-5.52-4.211-10.12-9.731-10.26-5.52-.149-10.111 4.211-10.261 9.731z"/>
    <path
      d="m110.541 59.982h.12c5.471 0 9.932-4.401 10.001-9.881.06-5.52-4.371-10.05-9.891-10.11-5.521-.07-10.052 4.35-10.112 9.88-.07 5.52 4.361 10.051 9.882 10.111z"/>
    <path
      d="m139.945 109.984c0-16.543-13.46-30.001-30.004-30.001-5.039 0-9.789 1.254-13.962 3.458 0 0-22.949-24.574-23.943-25.055-3.724-2.211-8.6-1.817-11.925 1.286-4.038 3.769-4.256 10.097-.487 14.134l22.742 24.364c-1.561 3.628-2.429 7.621-2.429 11.814 0 16.543 13.46 30.001 30.004 30.001s30.004-13.459 30.004-30.001zm-30.004 10c-5.515 0-10.001-4.486-10.001-10 0-2.076.637-4.005 1.723-5.605.033-.03.068-.054.1-.085.548-.511 1.019-1.073 1.426-1.667 1.781-1.636 4.148-2.644 6.752-2.644 5.515 0 10.001 4.486 10.001 10 0 5.515-4.486 10.001-10.001 10.001z"/>
    <path
      d="m67.875 142.985c-5.531.04-9.972 4.54-9.941 10.06.04 5.5 4.51 9.94 10.001 9.94h.06c5.531-.04 9.981-4.54 9.941-10.071-.04-5.519-4.541-9.969-10.061-9.929z"/>
    <path
      d="m150.947 162.986h.06c5.531-.04 9.981-4.54 9.941-10.071-.04-5.52-4.541-9.97-10.062-9.93-5.531.04-9.972 4.54-9.941 10.06.04 5.501 4.511 9.941 10.002 9.941z"/>
    <path
      d="m509.17 242.929c-1.86-1.86-4.34-2.94-6.97-2.94h-15.384c3.416-6 5.382-12.707 5.382-19.991 0-6.553-1.594-12.732-4.4-18.197l14.017-49.051c.014-.049.388-3.016.365-3.37l-4.415-70.636c-.657-10.516-9.426-18.763-19.964-18.763h-51.416c-10.538 0-19.307 8.258-19.964 18.774l-4.415 70.626c-.022.354.351 3.322.365 3.371l13.916 49.043c-2.806 5.465-4.251 11.644-4.251 18.197 0 7.284 2.115 13.995 5.531 19.996h-15.384c-2.641 0-5.311 1.08-7.182 2.94-1.86 1.86-3.021 4.451-3.021 7.081v54.981h-37.005v-54.98c0-2.63-.97-5.221-2.83-7.081s-4.34-2.94-6.97-2.94h-12.194l-5.001-20.001h12.194c5.524 0 9.801-4.456 9.801-9.98v-140.005c0-5.523-4.277-10.021-9.801-10.021h-15.203v-29.98c0-5.523-4.277-10.021-9.801-10.021h-40.006c-5.524 0-10.202 4.498-10.202 10.021v29.98h-14.801c-5.524 0-10.202 4.498-10.202 10.021v140.006c0 5.523 4.679 9.98 10.202 9.98h12.194l-5.001 20.001h-12.194c-2.641 0-5.311 1.08-7.182 2.94-1.86 1.86-3.021 4.451-3.021 7.081v54.981h-65.01v-54.982c0-2.63-.97-5.221-2.83-7.081s-4.34-2.94-6.97-2.94h-20.204v-24.139c46.007-13.091 80.112-55.586 80.112-105.846.002-60.656-49.3-110.004-109.963-110.004s-110.092 49.348-110.092 110.004c0 50.26 33.93 92.755 79.936 105.846v24.139h-19.802c-2.631 0-5.311 1.08-7.172 2.94-1.86 1.86-3.031 4.451-3.031 7.081v145.006c0 8.02 3.221 15.54 8.892 21.2 5.66 5.67 13.302 8.78 21.313 8.78h21.563c5.521 0 10.001-4.48 10.001-10 0-5.51-4.481-10-10.001-10h-21.562c-5.501 0-10.202-4.47-10.202-9.98v-135.026h80.012v55.023c0 2.63 1.161 5.2 3.031 7.06 1.861 1.86 4.531 2.92 7.172 2.92h85.013c2.63 0 5.11-1.06 6.97-2.92s2.83-4.42 2.83-7.06v-55.023h80.012v55.023c0 2.63 1.161 5.2 3.021 7.06 1.87 1.86 4.541 2.92 7.182 2.92h57.008c2.63 0 5.11-1.06 6.97-2.92s2.83-4.43 2.83-7.06v-55.023h80.012v135.026c0 5.51-4.3 9.98-9.801 9.98h-117.018c-8.021 0-15.653 3.14-21.324 8.801-5.661 5.66-8.881 13.211-8.881 21.221v56.982h-79.821l.01-56.992c-.01-8.011-3.131-15.556-8.791-21.216-5.671-5.66-13.202-8.796-21.213-8.796h-33.445c-5.511 0-10.001 4.49-10.001 10 0 5.52 4.49 10 10.001 10h33.445c5.501 0 9.801 4.521 9.801 10.021v67.003c0 2.63 1.161 5.2 3.031 7.06 1.861 1.86 4.531 2.92 7.172 2.92h100.015c2.63 0 5.1-1.06 6.97-2.92 1.86-1.86 2.83-4.43 2.83-7.06v-67.003c0-5.5 4.691-10.021 10.202-10.021h117.017c8.021 0 15.452-3.11 21.113-8.78 5.671-5.66 8.691-13.18 8.691-21.2v-145.006c-.001-2.63-.971-5.221-2.831-7.081zm-489.042-132.925c0-49.628 40.38-90.004 90.013-90.004s90.013 40.376 90.013 90.004-40.38 90.004-90.013 90.004-90.013-40.376-90.013-90.004zm99.814 129.985h-20.003v-20.44c3 .298 6.63.459 10.001.459s7.001-.161 10.001-.459v20.44zm165.025-200.008h20.003v20.001h-20.003zm-25.004 160.006v-120.005h70.01v120.005zm18.011 40.002 5.001-20.001h24.388l5.001 20.001zm174.218.021c-11.029 0-20.003-8.973-20.003-20.001s8.974-20.001 20.003-20.001 20.003 8.973 20.003 20.001-8.974 20.001-20.003 20.001zm19.566-54.883c-5.789-3.26-12.461-5.125-19.566-5.125-7.104 0-13.777 1.862-19.566 5.122l-7.181-25.138h53.493zm-48.926-45.142 3.751-60.002h51.218l3.751 60.002z"/>
    <circle cx="153.192" cy="68.392" r="10.001"/>
  </g>
</svg>
