<?xml version="1.0" encoding="iso-8859-1"?>
<!-- Generator: Adobe Illustrator 19.0.0, SVG Export Plug-In . SVG Version: 6.00 Build 0)  -->
<svg
  height="20px"
  width="24px"
  version="1.1" id="Capa_1" xmlns="http://www.w3.org/2000/svg" xmlns:xlink="http://www.w3.org/1999/xlink" x="0px"
  y="0px"
  viewBox="0 0 512.005 512.005" style="enable-background:new 0 0 512.005 512.005;" xml:space="preserve">
<g>
	<rect x="446.49" y="197.762" style="fill:#1785B8;" width="15.599" height="238.5"/>
  <path style="fill:#1785B8;" d="M18.321,131.15c-2.948,0-5.768-1.679-7.085-4.531c-1.807-3.91-0.101-8.545,3.81-10.35L58.25,96.312
		c3.911-1.808,8.545-0.101,10.351,3.81c1.807,3.91,0.101,8.545-3.81,10.35l-43.204,19.956
		C20.528,130.918,19.415,131.15,18.321,131.15z"/>
  <path style="fill:#1785B8;" d="M350.687,131.15c2.948,0,5.768-1.679,7.085-4.531c1.807-3.91,0.101-8.545-3.81-10.35l-43.203-19.957
		c-3.911-1.808-8.545-0.101-10.351,3.81c-1.807,3.91-0.101,8.545,3.81,10.35l43.204,19.956
		C348.481,130.918,349.593,131.15,350.687,131.15z"/>
</g>
  <circle style="fill:#F94730;" cx="454.29" cy="148.342" r="57.715"/>
  <path style="fill:#EA3326;" d="M454.285,90.631c-8.71,0-16.964,1.941-24.368,5.396c19.693,9.188,33.346,29.154,33.346,52.319
	s-13.653,43.13-33.346,52.319c7.405,3.455,15.658,5.396,24.368,5.396c31.875,0,57.715-25.84,57.715-57.715
	S486.16,90.631,454.285,90.631z"/>
  <path style="fill:#E2EFFA;" d="M476.63,429.983h-44.69c-10.969,0-19.861,8.892-19.861,19.861v2.449c0,1.715,1.39,3.105,3.105,3.105
	h78.201c1.715,0,3.105-1.39,3.105-3.105v-2.449C496.491,438.875,487.599,429.983,476.63,429.983z"/>
  <path style="fill:#D0D1D2;" d="M476.63,429.983h-44.69c-0.101,0-0.198,0.014-0.299,0.015c9.115,0.161,16.457,7.588,16.457,16.741
	v8.66h45.288c1.715,0,3.106-1.39,3.106-3.106v-2.449C496.491,438.875,487.599,429.983,476.63,429.983z"/>
  <path style="fill:#FD8D3E;" d="M242.481,93.288H126.527V62.834c0-3.439,2.788-6.228,6.228-6.228h103.499
	c3.439,0,6.228,2.788,6.228,6.228L242.481,93.288L242.481,93.288z"/>
  <path style="fill:#E26A1A;"
        d="M236.253,56.606h-42.166v36.681h48.394V62.834C242.481,59.394,239.693,56.606,236.253,56.606z"/>
  <g>
	<path style="fill:#096C93;" d="M4.927,171.684h13.959c2.721,0,4.927-2.206,4.927-4.927v-44.609c0-3.754-3.043-6.797-6.797-6.797
		h-0.721c-9,0-16.295,7.295-16.295,16.294v35.113C0,169.479,2.206,171.684,4.927,171.684z"/>
    <path style="fill:#096C93;" d="M364.082,171.684h-13.959c-2.721,0-4.927-2.206-4.927-4.927v-44.609
		c0-3.754,3.043-6.797,6.797-6.797h0.721c8.999,0,16.294,7.295,16.294,16.294v35.113
		C369.008,169.479,366.803,171.684,364.082,171.684z"/>
</g>
  <g>
	<path style="fill:#2A3A4C;" d="M68.196,398.806v44.54c0,6.537,5.3,11.837,11.837,11.837h25.461c6.537,0,11.837-5.3,11.837-11.837
		v-44.54H68.196z"/>
    <path style="fill:#2A3A4C;" d="M251.678,398.806v44.54c0,6.537,5.3,11.837,11.837,11.837h25.461c6.537,0,11.837-5.3,11.837-11.837
		v-44.54H251.678z"/>
</g>
  <path style="fill:#1785B8;" d="M49.808,113.103l-6.746,120.38c-2.119,37.807-3.179,83.13-3.179,120.996v39.322
	c0,10.203,8.271,18.474,18.474,18.474H310.65c10.203,0,18.474-8.271,18.474-18.474v-39.322c0-37.866-1.06-83.189-3.179-120.996
	l-6.746-120.38c-0.946-16.889-14.918-30.1-31.834-30.1H81.641C64.726,83.003,50.754,96.214,49.808,113.103z"/>
  <path style="fill:#0A7693;" d="M325.946,233.483l-6.746-120.38c-0.946-16.889-14.918-30.1-31.834-30.1H239.01
	c16.916,0,30.887,13.211,31.834,30.1l6.746,120.38c2.119,37.807,3.179,83.13,3.179,120.996v39.322
	c0,10.203-8.271,18.474-18.474,18.474h48.356c10.203,0,18.474-8.271,18.474-18.474v-39.322
	C329.125,316.612,328.065,271.289,325.946,233.483z"/>
  <path style="fill:#B5E7FE;" d="M40.003,331.842c23.748,3.833,61.174,7.355,141.382,7.355c80.21,0,123.86-3.521,147.621-7.355
	c-0.33-32.435-1.349-67.844-3.059-98.359l-1.92-34.267l-3.498-62.428c-0.745-13.29-11.738-23.684-25.049-23.684H73.53
	c-13.311,0-24.304,10.395-25.049,23.684l-3.498,62.428l-1.92,34.267C41.352,263.999,40.332,299.408,40.003,331.842z"/>
  <path style="fill:#9AD8ED;" d="M328.934,325.599c-0.014-1.118-0.031-2.244-0.047-3.368c-0.017-1.195-0.034-2.389-0.052-3.589
	c-0.018-1.159-0.038-2.323-0.057-3.487c-0.02-1.198-0.042-2.397-0.064-3.599c-0.021-1.145-0.042-2.29-0.065-3.437
	c-0.025-1.286-0.053-2.574-0.08-3.862c-0.023-1.065-0.044-2.129-0.068-3.195c-0.05-2.215-0.103-4.433-0.159-6.651
	c-0.022-0.869-0.046-1.737-0.069-2.605c-0.04-1.517-0.08-3.034-0.123-4.55c-0.028-0.989-0.057-1.977-0.086-2.965
	c-0.042-1.42-0.085-2.839-0.129-4.257c-0.031-0.975-0.061-1.949-0.093-2.921c-0.05-1.531-0.102-3.057-0.155-4.581
	c-0.028-0.822-0.056-1.645-0.085-2.465c-0.083-2.308-0.168-4.609-0.257-6.896c-0.015-0.395-0.032-0.786-0.048-1.181
	c-0.076-1.929-0.155-3.85-0.236-5.76c-0.034-0.791-0.069-1.575-0.103-2.362c-0.067-1.538-0.136-3.069-0.206-4.591
	c-0.038-0.819-0.076-1.635-0.115-2.449c-0.075-1.573-0.152-3.135-0.23-4.688c-0.035-0.687-0.069-1.378-0.104-2.061
	c-0.115-2.22-0.232-4.425-0.354-6.599l-5.419-96.698c-0.746-13.288-11.739-23.682-25.049-23.682h-24.634l6.746,120.38
	c1.796,32.05,2.828,69.487,3.102,103.218c21.632-1.33,37.163-3.06,48.313-4.859C328.985,329.773,328.961,327.691,328.934,325.599z"
  />
  <g>
	<path style="fill:#FFDF24;" d="M302.303,359.69l-41.759,5.032c-1.702,0.205-3.17,1.291-3.865,2.857l-5.527,12.458
		c-1.427,3.217,0.928,6.839,4.447,6.839h41.798c2.126,0,4.006-1.38,4.642-3.409l5.488-17.49
		C308.586,362.607,305.811,359.268,302.303,359.69z"/>
    <path style="fill:#FFDF24;" d="M66.705,359.69l41.759,5.032c1.702,0.205,3.17,1.291,3.865,2.857l5.527,12.458
		c1.427,3.217-0.928,6.839-4.447,6.839H71.61c-2.126,0-4.006-1.38-4.642-3.409l-5.488-17.49
		C60.423,362.607,63.197,359.268,66.705,359.69z"/>
</g>
  <path style="fill:#E2EFFA;" d="M73.529,113.103c-13.311,0-24.304,10.395-25.049,23.685l-1.596,28.482h275.24l-1.596-28.482
	c-0.745-13.29-11.738-23.685-25.049-23.685H73.529z"/>
  <path style="fill:#CADDEA;" d="M320.528,136.788c-0.745-13.29-11.738-23.684-25.049-23.684h-24.634l0,0l2.923,52.167h48.356
	L320.528,136.788z"/>
  <g>
	<path style="fill:#FFFFFF;" d="M425.02,144.47c-1.149-0.507-2.579-1.137-2.579-1.631c0-0.46,0.82-0.78,1.994-0.78
		c1.243,0,1.864,0.322,2.464,0.633c0.494,0.255,1.003,0.52,1.692,0.52c1.993,0,2.921-2.105,2.921-3.528
		c0-3.442-5.417-3.71-7.077-3.71c-4.063,0-8.807,1.917-8.807,7.32c0,4.793,3.802,6.559,6.579,7.849
		c1.891,0.878,3.039,1.471,3.039,2.284c0,0.951-1.825,0.963-1.903,0.963c-1.295,0-2.08-0.604-2.839-1.189
		c-0.675-0.519-1.372-1.057-2.319-1.057c-1.866,0-3.103,2.16-3.103,3.588c0,2.701,3.824,4.984,8.352,4.984
		c5.239,0,8.624-3.051,8.624-7.775C432.058,147.573,427.822,145.706,425.02,144.47z"/>
    <path style="fill:#FFFFFF;" d="M450.203,136.156h-13.106c-1.452,0-2.466,1.288-2.466,3.133c0,1.851,1.037,3.194,2.466,3.194h3.147
		v15.434c0,1.469,1.4,2.496,3.406,2.496s3.407-1.027,3.407-2.496v-15.434h3.147c1.429,0,2.466-1.343,2.466-3.194
		C452.669,137.444,451.655,136.156,450.203,136.156z"/>
    <path style="fill:#FFFFFF;" d="M464.079,160.596c5.404,0,8.504-2.988,8.504-8.2v-8.039c0-5.211-3.099-8.2-8.504-8.2
		c-5.385,0-8.473,2.989-8.473,8.2v8.039C455.606,157.608,458.694,160.596,464.079,160.596z M462.419,144.356
		c0-1.655,0.664-1.994,1.66-1.994c0.878,0,1.691,0.242,1.691,1.994v8.039c0,1.753-0.812,1.994-1.691,1.994
		c-0.996,0-1.66-0.339-1.66-1.994V144.356z"/>
    <path style="fill:#FFFFFF;" d="M480.656,160.414c2.006,0,3.407-1.027,3.407-2.496v-5.514h1.964c5.404,0,8.503-2.944,8.503-8.079
		v-0.152c0-5.095-2.989-8.018-8.2-8.018h-6.28c-1.57,0-2.8,1.083-2.8,2.466v19.296C477.249,159.387,478.65,160.414,480.656,160.414z
		 M484.062,142.362h1.964c0.836,0,1.69,0.237,1.69,1.994v0.334c0,1.757-0.855,1.994-1.69,1.994h-1.964V142.362z"/>
    <path style="fill:#FFFFFF;" d="M226.93,371.853h-84.852c-4.265,0-7.722-3.457-7.722-7.722s3.457-7.722,7.722-7.722h84.852
		c4.265,0,7.722,3.457,7.722,7.722S231.195,371.853,226.93,371.853z"/>
    <path style="fill:#FFFFFF;" d="M213.073,396.194h-57.138c-4.307,0-7.799-3.491-7.799-7.799s3.492-7.799,7.799-7.799h57.138
		c4.307,0,7.799,3.491,7.799,7.799S217.381,396.194,213.073,396.194z"/>
</g>
  <g>
</g>
  <g>
</g>
  <g>
</g>
  <g>
</g>
  <g>
</g>
  <g>
</g>
  <g>
</g>
  <g>
</g>
  <g>
</g>
  <g>
</g>
  <g>
</g>
  <g>
</g>
  <g>
</g>
  <g>
</g>
  <g>
</g>
</svg>
