<svg id="Layer_1" enable-background="new 0 0 256 256"
     viewBox="0 0 256 256"
     height="20px"
     width="24px"
     xmlns="http://www.w3.org/2000/svg">
  <g>
    <path d="m4.668 84.026h246.667v30.091h-246.667z" fill="#cf941c"/>
    <path
      d="m243.501 96.86h-215c-1.381 0-2.5-1.119-2.5-2.5s1.119-2.5 2.5-2.5h215c1.381 0 2.5 1.119 2.5 2.5s-1.119 2.5-2.5 2.5zm-225 0h-6c-1.381 0-2.5-1.119-2.5-2.5s1.119-2.5 2.5-2.5h6c1.381 0 2.5 1.119 2.5 2.5s-1.119 2.5-2.5 2.5z"
      fill="#f9e5af"/>
    <path
      d="m66.858 229.168h-54.107v-10h54.106c3.38 0 6.129-2.75 6.129-6.129s-2.749-6.129-6.129-6.129h-42.977c-8.894 0-16.129-7.235-16.129-16.128 0-8.894 7.235-16.129 16.129-16.129h42.978c3.38 0 6.129-2.75 6.129-6.129s-2.749-6.129-6.129-6.129h-54.107v-10h54.106c8.894 0 16.129 7.235 16.129 16.129s-7.235 16.129-16.129 16.129h-42.977c-3.38 0-6.129 2.749-6.129 6.128s2.749 6.129 6.129 6.129h42.978c8.894 0 16.129 7.235 16.129 16.129s-7.236 16.129-16.129 16.129z"
      fill="#fc5d3d"/>
    <path
      d="m232.123 229.168h-54.106v-10h54.106c3.38 0 6.129-2.75 6.129-6.129s-2.749-6.129-6.129-6.129h-42.978c-8.894 0-16.129-7.235-16.129-16.128 0-8.894 7.235-16.129 16.129-16.129h42.978c3.38 0 6.129-2.75 6.129-6.129s-2.749-6.129-6.129-6.129h-54.106v-10h54.106c8.894 0 16.129 7.235 16.129 16.129s-7.235 16.129-16.129 16.129h-42.978c-3.38 0-6.129 2.749-6.129 6.128s2.749 6.129 6.129 6.129h42.978c8.894 0 16.129 7.235 16.129 16.129s-7.236 16.129-16.129 16.129z"
      fill="#fc5d3d"/>
    <path d="m4.668 114.117h246.663v22.981h-246.663z" fill="#7c7b7a"/>
    <path
      d="m115.998 225.875 8.871-30.672-16.288-.001c-1.713 0-2.944-1.641-2.465-3.287l11.012-37.673c.316-1.086 1.329-1.847 2.464-1.847h16.463c1.717 0 2.94 1.644 2.468 3.279l-7.389 25.688h16.287c2.062 0 3.277 2.309 2.125 4.009l-28.956 42.66c-1.644 2.421-5.398.633-4.592-2.156z"
      fill="#f0c020"/>
    <path
      d="m243.501 128.107h-215c-1.381 0-2.5-1.119-2.5-2.5s1.119-2.5 2.5-2.5h215c1.381 0 2.5 1.119 2.5 2.5s-1.119 2.5-2.5 2.5zm-225 0h-6c-1.381 0-2.5-1.119-2.5-2.5s1.119-2.5 2.5-2.5h6c1.381 0 2.5 1.119 2.5 2.5s-1.119 2.5-2.5 2.5z"
      fill="#efefef"/>
    <circle cx="30.641" cy="84.026" r="2.5"/>
    <path
      d="m4.671 86.526h15.92c1.38 0 2.5-1.12 2.5-2.5s-1.12-2.5-2.5-2.5h-15.92c-1.38 0-2.5 1.12-2.5 2.5s1.121 2.5 2.5 2.5z"/>
    <path
      d="m66.858 172.153h-42.978c-10.272 0-18.629 8.357-18.629 18.629s8.356 18.628 18.629 18.628h42.978c2.001 0 3.629 1.628 3.629 3.629s-1.628 3.629-3.629 3.629h-54.107c-1.381 0-2.5 1.119-2.5 2.5s1.119 2.5 2.5 2.5h54.106c4.758 0 8.629-3.871 8.629-8.629s-3.871-8.629-8.629-8.629h-42.977c-7.515 0-13.629-6.114-13.629-13.628 0-7.515 6.114-13.629 13.629-13.629h42.978c4.758 0 8.629-3.871 8.629-8.629s-3.871-8.629-8.629-8.629h-54.107c-1.381 0-2.5 1.119-2.5 2.5s1.119 2.5 2.5 2.5h54.106c2.001 0 3.629 1.628 3.629 3.629s-1.627 3.629-3.628 3.629z"/>
    <path
      d="m23.88 187.153h42.978c10.272 0 18.629-8.357 18.629-18.629s-8.356-18.629-18.629-18.629h-54.107c-1.381 0-2.5 1.119-2.5 2.5s1.119 2.5 2.5 2.5h54.106c7.515 0 13.629 6.114 13.629 13.629s-6.114 13.629-13.629 13.629h-42.977c-4.758 0-8.629 3.871-8.629 8.628s3.871 8.629 8.629 8.629h42.978c7.515 0 13.629 6.114 13.629 13.629s-6.114 13.629-13.629 13.629h-54.107c-1.381 0-2.5 1.119-2.5 2.5s1.119 2.5 2.5 2.5h54.106c10.272 0 18.629-8.357 18.629-18.629s-8.356-18.629-18.628-18.629h-42.978c-2.001 0-3.629-1.628-3.629-3.629 0-2 1.628-3.628 3.629-3.628z"/>
    <path
      d="m232.122 216.666h-54.101c-1.38 0-2.51 1.12-2.51 2.5s1.13 2.5 2.51 2.5h54.101c4.75 0 8.63-3.87 8.63-8.63 0-4.75-3.88-8.62-8.63-8.63h-42.98c-7.5-.01-13.609-6.12-13.63-13.62.021-7.51 6.13-13.62 13.63-13.63h2.99c1.37 0 2.49-1.12 2.49-2.5s-1.12-2.5-2.49-2.5h-2.99c-10.27 0-18.62 8.36-18.62 18.63 0 10.26 8.351 18.62 18.62 18.62h42.98c2 .01 3.63 1.64 3.63 3.63-.001 2-1.63 3.63-3.63 3.63z"/>
    <path
      d="m232.122 172.156h-20c-1.38 0-2.5 1.12-2.5 2.5s1.12 2.5 2.5 2.5h20c4.75-.01 8.63-3.88 8.63-8.63 0-4.76-3.88-8.63-8.63-8.63h-54.101c-1.38 0-2.51 1.12-2.51 2.5s1.13 2.5 2.51 2.5h54.101c2 0 3.63 1.63 3.63 3.63-.001 1.99-1.63 3.62-3.63 3.63z"/>
    <circle cx="202.122" cy="174.656" r="2.5"/>
    <path
      d="m189.145 187.153h42.978c10.272 0 18.629-8.357 18.629-18.629s-8.356-18.629-18.629-18.629h-54.106c-1.381 0-2.5 1.119-2.5 2.5s1.119 2.5 2.5 2.5h54.106c7.515 0 13.629 6.114 13.629 13.629s-6.114 13.629-13.629 13.629h-42.978c-4.758 0-8.629 3.871-8.629 8.628s3.871 8.629 8.629 8.629h42.978c7.515 0 13.629 6.114 13.629 13.629s-6.114 13.629-13.629 13.629h-54.106c-1.381 0-2.5 1.119-2.5 2.5s1.119 2.5 2.5 2.5h54.106c10.272 0 18.629-8.357 18.629-18.629s-8.356-18.629-18.629-18.629h-42.978c-2.001 0-3.629-1.628-3.629-3.629 0-2 1.628-3.628 3.629-3.628z"/>
    <path
      d="m4.668 116.617h246.663c1.381 0 2.5-1.119 2.5-2.5s-1.119-2.5-2.5-2.5h-31.232l-18.622-25.09h49.854c1.38 0 2.5-1.12 2.5-2.5s-1.12-2.5-2.5-2.5h-210.65c-1.38 0-2.5 1.12-2.5 2.5s1.12 2.5 2.5 2.5h13.844l-18.622 25.09h-31.235c-1.381 0-2.5 1.119-2.5 2.5s1.12 2.5 2.5 2.5zm144.624-30.091 6.317 25.09h-55.214l6.317-25.09zm64.58 25.091h-53.106l-6.317-25.09h40.802zm-153.12-25.091h40.803l-6.317 25.09h-53.107z"/>
    <path
      d="m4.668 139.598h246.663c1.381 0 2.5-1.119 2.5-2.5s-1.119-2.5-2.5-2.5h-246.663c-1.381 0-2.5 1.119-2.5 2.5s1.12 2.5 2.5 2.5z"/>
    <path
      d="m113.591 225.196c-1.636 5.504 5.93 8.985 9.07 4.24l28.949-42.66c2.31-3.443-.214-7.892-4.189-7.92h-12.97l6.47-22.49.01-.03c.912-3.159-1.495-6.428-4.88-6.44h-16.46c-2.271.01-4.22 1.47-4.86 3.65l-2.59 8.86c-.387 1.306.34 2.7 1.69 3.1 1.3.38 2.729-.41 3.109-1.7l2.591-8.87c0-.01.039-.04.05-.04h.01 16.46c.05 0 .07.05.07.06 0 0 0 .02-.011.05v.01l-7.38 25.65c-.451 1.54.699 3.19 2.4 3.19h16.29c.03 0 .05.02.07.09 0 0-.011 0-.021.03-.008.012-28.969 42.68-28.979 42.69-.03-.01-.08-.03-.101-.05 0-.01 0-.02 0-.02l8.88-30.7c.466-1.584-.722-3.19-2.399-3.19l-16.29-.01c-.04 0-.07-.03-.07-.06l2.81-9.63c.19-.64.12-1.32-.199-1.91-.32-.58-.851-1.01-1.49-1.19-1.29-.38-2.73.41-3.1 1.69l-2.811 9.62c-.969 3.121 1.436 6.467 4.86 6.48h12.96l-7.95 27.48c.001.01.001.01.001.02z"/>
    <path
      d="m111.032 175.106c1.274.39 2.707-.361 3.1-1.7.378-1.278-.333-2.694-1.7-3.1-1.3-.38-2.729.41-3.1 1.7-.391 1.32.37 2.71 1.7 3.1z"/>
    <path
      d="m61.242 68.476c.971.972 2.564.975 3.54 0 6.499-6.5 6.471-17.019 0-23.49-.021-.01-.04-.03-.051-.04-4.48-4.542-4.491-11.85.051-16.37.974-.975.974-2.565 0-3.54-.95-.94-2.591-.94-3.54 0-6.471 6.449-6.512 16.979 0 23.49 4.524 4.525 4.549 11.859 0 16.41-.971.98-.971 2.57 0 3.54z"/>
    <path
      d="m126.231 68.476c.976.975 2.569.972 3.54 0v-.01c6.513-6.512 6.46-17.022 0-23.48-4.52-4.521-4.568-11.841 0-16.41.971-.98.971-2.56 0-3.54-.95-.94-2.6-.94-3.54 0-6.501 6.502-6.482 17.007 0 23.49 4.463 4.462 4.606 11.805 0 16.41-.978.999-.968 2.572 0 3.54z"/>
    <path
      d="m191.221 68.476c.945.946 2.518 1.002 3.54 0 6.474-6.475 6.501-16.979-.01-23.49-4.522-4.521-4.542-11.869 0-16.41.994-.975.978-2.571.01-3.54-.95-.94-2.59-.94-3.54 0-6.513 6.514-6.484 17.005 0 23.49 4.502 4.501 4.572 11.827 0 16.42-.98.981-.963 2.566 0 3.53z"/>
  </g>
</svg>
