<svg id="Layer_1" enable-background="new 0 0 512 512" height="512" viewBox="0 0 512 512" width="512" xmlns="http://www.w3.org/2000/svg"><g><g><path d="m296 70h-10v-10c0-11.028-8.972-20-20-20h-20c-11.028 0-20 8.972-20 20v10h-10c-11.028 0-20 8.972-20 20v20c0 11.028 8.972 20 20 20h10v10c0 11.028 8.972 20 20 20h20c11.028 0 20-8.972 20-20v-10h10c11.028 0 20-8.972 20-20v-20c0-11.028-8.972-20-20-20zm0 40h-20c-5.523 0-10 4.477-10 10v20h-20v-20c0-5.523-4.477-10-10-10h-20v-20h20c5.523 0 10-4.477 10-10l-.002-20h20.002v20c0 5.523 4.477 10 10 10h20z"/><path d="m476 452v-30c0-5.523-4.477-10-10-10h-10.001v-282h10.001c5.523 0 10-4.477 10-10v-40c0-5.523-4.477-10-10-10h-114.599c-12.773-40.528-50.708-70-95.401-70s-82.628 29.472-95.4 70h-114.6c-5.523 0-10 4.477-10 10v40c0 5.523 4.477 10 10 10h10v38.811c0 5.523 4.477 10 10 10s10-4.477 10-10v-38.811h84.6c12.773 40.528 50.708 70 95.4 70s82.628-29.472 95.4-70h84.598v282h-70v-171.999c0-11.028-8.972-20-20-20h-179.998c-11.028 0-20 8.972-20 20v171.999h-70v-153.189c0-5.523-4.477-10-10-10s-10 4.477-10 10v153.189h-10c-5.523 0-10 4.477-10 10v30c-5.523 0-10 4.477-10 10v40c0 5.523 4.477 10 10 10h440c5.523 0 10-4.477 10-10v-40c0-5.523-4.477-10-10-10zm-420-342v-20h100.499c-.328 3.29-.499 6.625-.499 10s.17 6.71.499 10zm200 70c-44.112 0-80-35.888-80-80s35.888-80 80-80 80 35.888 80 80-35.887 80-80 80zm99.502-90h100.498v20h-100.498c.328-3.29.499-6.625.499-10s-.171-6.71-.499-10zm-9.503 322h-79.999v-171.999h79.999zm-179.999 0v-171.999h80v171.999zm-110 40v-20h400v20zm410 40h-420v-20h420z"/><path d="m215.999 306.001c-5.523 0-10 4.477-10 10v20c0 5.523 4.477 10 10 10s10-4.477 10-10v-20c0-5.523-4.478-10-10-10z"/><path d="m296.001 306.001c-5.523 0-10 4.477-10 10v20c0 5.523 4.477 10 10 10s10-4.477 10-10v-20c0-5.523-4.477-10-10-10z"/><path d="m66 223.814c5.523 0 10-4.477 10-10v-.007c0-5.523-4.477-9.996-10-9.996s-10 4.48-10 10.003 4.478 10 10 10z"/></g></g></svg>