<svg id="Capa_1" enable-background="new 0 0 512.322 512.322" height="512" viewBox="0 0 512.322 512.322" width="512"
     xmlns="http://www.w3.org/2000/svg">
  <g>
    <path
      d="m240.951 300.565h30.418c12.3 0 22.307-10.007 22.307-22.307v-30.418c0-12.3-10.007-22.307-22.307-22.307h-30.418c-12.3 0-22.306 10.007-22.306 22.307v30.418c-.001 12.3 10.006 22.307 22.306 22.307zm-7.298-52.726c0-4.024 3.274-7.298 7.298-7.298h30.418c4.024 0 7.298 3.274 7.298 7.298v30.418c0 4.024-3.274 7.298-7.298 7.298h-30.418c-4.024 0-7.298-3.274-7.298-7.298z"/>
    <path
      d="m100.781 247.839v30.418c0 12.3 10.007 22.307 22.306 22.307h30.418c12.3 0 22.307-10.007 22.307-22.307v-30.418c0-12.3-10.007-22.307-22.307-22.307h-30.418c-12.299.001-22.306 10.007-22.306 22.307zm60.023 0v30.418c0 4.024-3.274 7.298-7.298 7.298h-30.418c-4.024 0-7.298-3.274-7.298-7.298v-30.418c0-4.024 3.274-7.298 7.298-7.298h30.418c4.024 0 7.298 3.274 7.298 7.298z"/>
    <path
      d="m153.506 325.982h-30.418c-12.3 0-22.306 10.007-22.306 22.307v30.418c0 12.3 10.007 22.307 22.306 22.307h30.418c12.3 0 22.307-10.007 22.307-22.307v-30.418c0-12.301-10.007-22.307-22.307-22.307zm7.298 52.725c0 4.024-3.274 7.298-7.298 7.298h-30.418c-4.024 0-7.298-3.274-7.298-7.298v-30.418c0-4.024 3.274-7.298 7.298-7.298h30.418c4.024 0 7.298 3.274 7.298 7.298z"/>
    <path
      d="m358.814 300.565h30.418c12.3 0 22.307-10.007 22.307-22.307v-30.418c0-12.3-10.007-22.307-22.307-22.307h-30.418c-12.3 0-22.306 10.007-22.306 22.307v30.418c-.001 12.3 10.006 22.307 22.306 22.307zm-7.298-52.726c0-4.024 3.274-7.298 7.298-7.298h30.418c4.024 0 7.298 3.274 7.298 7.298v30.418c0 4.024-3.274 7.298-7.298 7.298h-30.418c-4.024 0-7.298-3.274-7.298-7.298z"/>
    <path
      d="m358.814 401.014h30.418c12.3 0 22.307-10.007 22.307-22.307v-30.418c0-12.3-10.007-22.307-22.307-22.307h-30.418c-12.3 0-22.306 10.007-22.306 22.307v30.418c-.001 12.3 10.006 22.307 22.306 22.307zm-7.298-52.725c0-4.024 3.274-7.298 7.298-7.298h30.418c4.024 0 7.298 3.274 7.298 7.298v30.418c0 4.024-3.274 7.298-7.298 7.298h-30.418c-4.024 0-7.298-3.274-7.298-7.298z"/>
    <path
      d="m485.561 202.54c20.327 0 33.23-21.802 23.398-39.627l-42.862-77.707c-10.668-19.34-31.016-31.355-53.104-31.355h-87.537c-3.914-6.817-11.263-11.422-19.672-11.422h-19.595v-19.596c0-12.501-10.171-22.672-22.673-22.672h-14.712c-12.501 0-22.672 10.171-22.672 22.672v19.596h-19.596c-8.409 0-15.757 4.605-19.672 11.422h-87.537c-22.088 0-42.436 12.014-53.103 31.355l-42.863 77.708c-9.817 17.798 3.041 39.627 23.398 39.627h12.681v223.891h-11.847c-15.21 0-27.583 12.373-27.583 27.583v30.564c0 15.209 12.373 27.583 27.583 27.583h457.133c15.209 0 27.582-12.374 27.582-27.583v-30.564c0-15.21-12.373-27.583-27.582-27.583h-11.847v-223.892zm-279.025-145.102h27.1c4.145 0 7.504-3.36 7.504-7.504v-27.1c0-4.226 3.438-7.664 7.664-7.664h14.712c4.226 0 7.664 3.438 7.664 7.664v27.1c0 4.145 3.36 7.504 7.504 7.504h27.1c4.296 0 7.645 3.526 7.662 7.635 0 .01.001.019.001.028v14.712c0 4.226-3.438 7.664-7.664 7.664h-27.1c-4.145 0-7.504 3.36-7.504 7.504v27.1c0 4.226-3.438 7.664-7.664 7.664h-14.712c-4.226 0-7.664-3.438-7.664-7.664v-27.1c0-4.145-3.36-7.504-7.504-7.504h-27.1c-4.239 0-7.664-3.451-7.664-7.664v-14.711c.001-4.106 3.346-7.664 7.665-7.664zm251.335 368.993h-68.069c-4.145 0-7.504 3.36-7.504 7.504s3.36 7.504 7.504 7.504h94.925c6.933 0 12.574 5.641 12.574 12.574v30.564c0 6.933-5.641 12.574-12.574 12.574h-457.134c-6.933 0-12.574-5.641-12.574-12.574v-30.564c0-6.933 5.641-12.574 12.574-12.574h332.191c4.145 0 7.504-3.36 7.504-7.504s-3.36-7.504-7.504-7.504h-51.011v-70.137c0-18.052-14.686-32.737-32.737-32.737h-39.752c-18.051 0-32.737 14.686-32.737 32.737v70.137h-149.098v-223.891h67.633c4.145 0 7.504-3.36 7.504-7.504 0-4.145-3.36-7.504-7.504-7.504-9.725 0-85.911 0-95.323 0-8.909 0-14.566-9.556-10.256-17.369l42.862-77.707c8.028-14.555 23.34-23.596 39.962-23.596h84.537v10.954c0 12.559 10.226 22.672 22.672 22.672h19.595v19.595c0 12.502 10.171 22.673 22.672 22.673h14.712c12.502 0 22.673-10.171 22.673-22.673v-19.595h19.595c12.502 0 22.673-10.171 22.673-22.672v-10.954h84.536c16.622 0 31.934 9.041 39.961 23.595l42.862 77.707c4.304 7.802-1.333 17.369-10.255 17.369-9.643 0-317.135 0-333.461 0-4.145 0-7.504 3.36-7.504 7.504 0 4.145 3.36 7.504 7.504 7.504h305.771v223.892zm-164.107 0h-75.208v-70.137c0-9.776 7.953-17.729 17.728-17.729h39.752c9.776 0 17.729 7.953 17.729 17.729v70.137z"/>
  </g>
</svg>
