<svg id="Capa_1" enable-background="new 0 0 512.322 512.322"
     height="20px"
     width="24px"
     viewBox="0 0 512.322 512.322"
     xmlns="http://www.w3.org/2000/svg">
  <g>
    <g>
      <path d="m47.068 174.897h418.186v289.195h-418.186z" fill="#d48880"/>
      <path
        d="m126.419 274.016c0-34.719 5.865-68.063 16.63-99.118h-95.981v289.195h130.644c-33.55-51.949-51.293-118.068-51.293-190.077z"
        fill="#cc7c74"/>
      <path
        d="m502.245 166.59-42.837-77.662c-9.344-16.94-27.159-27.459-46.505-27.459h-313.484c-19.346 0-37.161 10.519-46.505 27.459l-42.837 77.662c-7.06 12.8 2.199 28.481 16.817 28.481h458.534c14.618 0 23.877-15.681 16.817-28.481z"
        fill="#f4d68d"/>
      <path
        d="m305.756 50.054h-27.084v-27.084c0-8.372-6.787-15.159-15.159-15.159h-14.703c-8.372 0-15.159 6.787-15.159 15.159v27.084h-27.084c-8.372 0-15.159 6.787-15.159 15.159v14.703c0 8.372 6.787 15.159 15.159 15.159h27.084v27.084c0 8.372 6.787 15.159 15.159 15.159h14.703c8.372 0 15.159-6.787 15.159-15.159v-27.083h27.084c8.372 0 15.159-6.787 15.159-15.159v-14.704c0-8.372-6.787-15.159-15.159-15.159z"
        fill="#f77a8b"/>
      <path
        d="m276.025 331.018h-39.728c-13.928 0-25.218 11.291-25.218 25.218v107.857h90.165v-107.857c-.001-13.928-11.291-25.218-25.219-25.218z"
        fill="#5f66af"/>
      <g fill="#f4d68d">
        <path
          d="m271.361 233.051h-30.4c-8.17 0-14.794 6.623-14.794 14.794v30.4c0 8.17 6.623 14.794 14.794 14.794h30.4c8.17 0 14.794-6.623 14.794-14.794v-30.4c0-8.171-6.624-14.794-14.794-14.794z"/>
        <path
          d="m153.567 233.051h-30.4c-8.17 0-14.794 6.623-14.794 14.794v30.4c0 8.17 6.623 14.794 14.794 14.794h30.4c8.17 0 14.794-6.623 14.794-14.794v-30.4c-.001-8.171-6.624-14.794-14.794-14.794z"/>
        <path
          d="m153.567 333.441h-30.4c-8.17 0-14.794 6.623-14.794 14.794v30.4c0 8.17 6.623 14.794 14.794 14.794h30.4c8.17 0 14.794-6.623 14.794-14.794v-30.4c-.001-8.17-6.624-14.794-14.794-14.794z"/>
        <path
          d="m358.755 233.051h30.4c8.17 0 14.794 6.623 14.794 14.794v30.4c0 8.17-6.623 14.794-14.794 14.794h-30.4c-8.17 0-14.794-6.623-14.794-14.794v-30.4c0-8.171 6.624-14.794 14.794-14.794z"/>
        <path
          d="m358.755 333.441h30.4c8.17 0 14.794 6.623 14.794 14.794v30.4c0 8.17-6.623 14.794-14.794 14.794h-30.4c-8.17 0-14.794-6.623-14.794-14.794v-30.4c0-8.17 6.624-14.794 14.794-14.794z"/>
      </g>
      <path
        d="m240.284 369.478c0-13.802 3.205-26.855 8.905-38.46h-12.892c-13.928 0-25.218 11.291-25.218 25.218v107.857h90.165v-11.313c-35.344-11.195-60.96-44.255-60.96-83.302z"
        fill="#4c5696"/>
      <path
        d="m484.594 433.832h-456.866c-11.083 0-20.067 8.984-20.067 20.067v30.546c0 11.083 8.984 20.067 20.067 20.067h456.866c11.083 0 20.067-8.984 20.067-20.067v-30.546c0-11.083-8.984-20.067-20.067-20.067z"
        fill="#e09b94"/>
      <path
        d="m126.419 274.016c0-13.896.957-27.567 2.771-40.965h-6.024c-8.17 0-14.794 6.623-14.794 14.794v30.4c0 8.17 6.623 14.794 14.794 14.794h3.688c-.278-6.293-.435-12.632-.435-19.023z"
        fill="#f7c572"/>
      <path
        d="m130.631 333.441h-7.465c-8.17 0-14.794 6.624-14.794 14.794v30.4c0 8.17 6.623 14.794 14.794 14.794h21.324c-6.197-19.065-10.836-39.139-13.859-59.988z"
        fill="#f7c572"/>
      <g>
        <path
          d="m115.432 126.365c0-23.8 6.724-46.027 18.367-64.896h-34.38c-19.346 0-37.161 10.519-46.505 27.459l-42.837 77.662c-7.06 12.8 2.199 28.481 16.817 28.481h109.352c-13.145-19.656-20.814-43.285-20.814-68.706z"
          fill="#f7c572"/>
      </g>
      <g>
        <path
          d="m155.223 465.905c0-11.19 1.766-21.966 5.021-32.073h-132.516c-11.083 0-20.067 8.984-20.067 20.067v30.546c0 11.083 8.984 20.067 20.067 20.067h134.86c-4.75-11.944-7.365-24.97-7.365-38.607z"
          fill="#d48880"/>
      </g>
    </g>
    <g>
      <path
        d="m240.951 300.565h30.418c12.3 0 22.307-10.007 22.307-22.307v-30.418c0-12.3-10.007-22.307-22.307-22.307h-30.418c-12.3 0-22.306 10.007-22.306 22.307v30.418c-.001 12.3 10.006 22.307 22.306 22.307zm-7.298-52.726c0-4.024 3.274-7.298 7.298-7.298h30.418c4.024 0 7.298 3.274 7.298 7.298v30.418c0 4.024-3.274 7.298-7.298 7.298h-30.418c-4.024 0-7.298-3.274-7.298-7.298z"/>
      <path
        d="m100.781 247.839v30.418c0 12.3 10.007 22.307 22.306 22.307h30.418c12.3 0 22.307-10.007 22.307-22.307v-30.418c0-12.3-10.007-22.307-22.307-22.307h-30.418c-12.299.001-22.306 10.007-22.306 22.307zm60.023 0v30.418c0 4.024-3.274 7.298-7.298 7.298h-30.418c-4.024 0-7.298-3.274-7.298-7.298v-30.418c0-4.024 3.274-7.298 7.298-7.298h30.418c4.024 0 7.298 3.274 7.298 7.298z"/>
      <path
        d="m153.506 325.982h-30.418c-12.3 0-22.306 10.007-22.306 22.307v30.418c0 12.3 10.007 22.307 22.306 22.307h30.418c12.3 0 22.307-10.007 22.307-22.307v-30.418c0-12.301-10.007-22.307-22.307-22.307zm7.298 52.725c0 4.024-3.274 7.298-7.298 7.298h-30.418c-4.024 0-7.298-3.274-7.298-7.298v-30.418c0-4.024 3.274-7.298 7.298-7.298h30.418c4.024 0 7.298 3.274 7.298 7.298z"/>
      <path
        d="m358.814 300.565h30.418c12.3 0 22.307-10.007 22.307-22.307v-30.418c0-12.3-10.007-22.307-22.307-22.307h-30.418c-12.3 0-22.306 10.007-22.306 22.307v30.418c-.001 12.3 10.006 22.307 22.306 22.307zm-7.298-52.726c0-4.024 3.274-7.298 7.298-7.298h30.418c4.024 0 7.298 3.274 7.298 7.298v30.418c0 4.024-3.274 7.298-7.298 7.298h-30.418c-4.024 0-7.298-3.274-7.298-7.298z"/>
      <path
        d="m358.814 401.014h30.418c12.3 0 22.307-10.007 22.307-22.307v-30.418c0-12.3-10.007-22.307-22.307-22.307h-30.418c-12.3 0-22.306 10.007-22.306 22.307v30.418c-.001 12.3 10.006 22.307 22.306 22.307zm-7.298-52.725c0-4.024 3.274-7.298 7.298-7.298h30.418c4.024 0 7.298 3.274 7.298 7.298v30.418c0 4.024-3.274 7.298-7.298 7.298h-30.418c-4.024 0-7.298-3.274-7.298-7.298z"/>
      <path
        d="m485.561 202.54c20.327 0 33.23-21.802 23.398-39.627l-42.862-77.707c-10.668-19.34-31.016-31.355-53.104-31.355h-87.537c-3.914-6.817-11.263-11.422-19.672-11.422h-19.595v-19.596c0-12.501-10.171-22.672-22.673-22.672h-14.712c-12.501 0-22.672 10.171-22.672 22.672v19.596h-19.596c-8.409 0-15.757 4.605-19.672 11.422h-87.537c-22.088 0-42.436 12.014-53.103 31.355l-42.863 77.708c-9.817 17.798 3.041 39.627 23.398 39.627h12.681v223.891h-11.847c-15.21 0-27.583 12.373-27.583 27.583v30.564c0 15.209 12.373 27.583 27.583 27.583h457.133c15.209 0 27.582-12.374 27.582-27.583v-30.564c0-15.21-12.373-27.583-27.582-27.583h-11.847v-223.892zm-279.025-145.102h27.1c4.145 0 7.504-3.36 7.504-7.504v-27.1c0-4.226 3.438-7.664 7.664-7.664h14.712c4.226 0 7.664 3.438 7.664 7.664v27.1c0 4.145 3.36 7.504 7.504 7.504h27.1c4.296 0 7.645 3.526 7.662 7.635 0 .01.001.019.001.028v14.712c0 4.226-3.438 7.664-7.664 7.664h-27.1c-4.145 0-7.504 3.36-7.504 7.504v27.1c0 4.226-3.438 7.664-7.664 7.664h-14.712c-4.226 0-7.664-3.438-7.664-7.664v-27.1c0-4.145-3.36-7.504-7.504-7.504h-27.1c-4.239 0-7.664-3.451-7.664-7.664v-14.711c.001-4.106 3.346-7.664 7.665-7.664zm251.335 368.993h-68.069c-4.145 0-7.504 3.36-7.504 7.504s3.36 7.504 7.504 7.504h94.925c6.933 0 12.574 5.641 12.574 12.574v30.564c0 6.933-5.641 12.574-12.574 12.574h-457.134c-6.933 0-12.574-5.641-12.574-12.574v-30.564c0-6.933 5.641-12.574 12.574-12.574h332.191c4.145 0 7.504-3.36 7.504-7.504s-3.36-7.504-7.504-7.504h-51.011v-70.137c0-18.052-14.686-32.737-32.737-32.737h-39.752c-18.051 0-32.737 14.686-32.737 32.737v70.137h-149.098v-223.891h67.633c4.145 0 7.504-3.36 7.504-7.504 0-4.145-3.36-7.504-7.504-7.504-9.725 0-85.911 0-95.323 0-8.909 0-14.566-9.556-10.256-17.369l42.862-77.707c8.028-14.555 23.34-23.596 39.962-23.596h84.537v10.954c0 12.559 10.226 22.672 22.672 22.672h19.595v19.595c0 12.502 10.171 22.673 22.672 22.673h14.712c12.502 0 22.673-10.171 22.673-22.673v-19.595h19.595c12.502 0 22.673-10.171 22.673-22.672v-10.954h84.536c16.622 0 31.934 9.041 39.961 23.595l42.862 77.707c4.304 7.802-1.333 17.369-10.255 17.369-9.643 0-317.135 0-333.461 0-4.145 0-7.504 3.36-7.504 7.504 0 4.145 3.36 7.504 7.504 7.504h305.771v223.892zm-164.107 0h-75.208v-70.137c0-9.776 7.953-17.729 17.728-17.729h39.752c9.776 0 17.729 7.953 17.729 17.729v70.137z"/>
    </g>
  </g>
</svg>
