<?xml version="1.0" encoding="iso-8859-1"?>
<!-- Generator: Adobe Illustrator 19.0.0, SVG Export Plug-In . SVG Version: 6.00 Build 0)  -->
<svg
  height="24px"
  width="27px"
  version="1.1" id="Capa_1" xmlns="http://www.w3.org/2000/svg" xmlns:xlink="http://www.w3.org/1999/xlink" x="0px"
  y="0px"
  viewBox="0 0 511.999 511.999" style="enable-background:new 0 0 511.999 511.999;" xml:space="preserve">
<g>
	<g>
		<path d="M480.452,84.169H31.548C14.152,84.169,0,98.322,0,115.718v144.291c0,17.396,14.152,31.548,31.548,31.548h448.903
			c17.396,0,31.548-14.152,31.548-31.548V115.718C512,98.322,497.848,84.169,480.452,84.169z M497,260.009
			c0,9.124-7.423,16.548-16.548,16.548H31.548c-9.125,0-16.548-7.423-16.548-16.548v-64.646h184.887c4.142,0,7.5-3.358,7.5-7.5
			c0-4.142-3.358-7.5-7.5-7.5H15v-64.645c0-9.125,7.423-16.548,16.548-16.548h448.903c9.125,0,16.548,7.423,16.548,16.548v64.645
			H312.11c-4.142,0-7.5,3.358-7.5,7.5c0,4.142,3.358,7.5,7.5,7.5H497V260.009z"/>
	</g>
</g>
  <g>
	<g>
		<path d="M456.403,212.427H55.597c-8.556,0-15.516,6.96-15.516,15.516v16.032c0,8.556,6.96,15.516,15.516,15.516h400.807
			c8.556,0,15.516-6.96,15.516-15.516v-16.032C471.919,219.388,464.959,212.427,456.403,212.427z M144.291,244.492H55.597
			c-0.285,0-0.516-0.232-0.516-0.516v-16.032c0-0.285,0.231-0.516,0.516-0.516h88.694V244.492z M248.5,244.492h-89.209v-17.064
			H248.5V244.492z M352.709,244.491H263.5v-17.064h89.209V244.491z M456.919,243.976c0,0.285-0.231,0.516-0.516,0.516h-88.694
			v-17.064h88.694c0.285,0,0.516,0.231,0.516,0.516V243.976z"/>
	</g>
</g>
  <g>
	<g>
		<path d="M280.049,180.363H231.95c-4.142,0-7.5,3.358-7.5,7.5c0,4.142,3.358,7.5,7.5,7.5h48.099c4.142,0,7.5-3.358,7.5-7.5
			C287.549,183.721,284.191,180.363,280.049,180.363z"/>
	</g>
</g>
  <g>
	<g>
		<path d="M140.829,366.682c-3.874-3.553-5.586-5.287-5.586-9.177c-0.001-3.874,1.71-5.604,5.58-9.148
			c4.411-4.039,10.452-9.57,10.452-20.212c0-4.142-3.358-7.5-7.5-7.5c-4.142,0-7.5,3.358-7.5,7.5c0,3.875-1.711,5.605-5.582,9.149
			c-4.411,4.039-10.451,9.57-10.451,20.211c0,10.65,6.038,16.188,10.447,20.231c3.874,3.553,5.586,5.287,5.586,9.177
			s-1.712,5.625-5.585,9.177c-4.409,4.043-10.447,9.581-10.447,20.231c0,4.142,3.358,7.5,7.5,7.5c4.142,0,7.5-3.358,7.5-7.5
			c0-3.89,1.712-5.625,5.586-9.177c4.409-4.043,10.447-9.581,10.447-20.231C151.276,376.263,145.238,370.725,140.829,366.682z"/>
	</g>
</g>
  <g>
	<g>
		<path d="M196.94,366.682c-3.873-3.553-5.585-5.287-5.585-9.177c0-3.874,1.711-5.604,5.581-9.148
			c4.411-4.039,10.451-9.57,10.451-20.212c0-4.142-3.358-7.5-7.5-7.5c-4.142,0-7.5,3.358-7.5,7.5c0,3.875-1.711,5.605-5.581,9.149
			c-4.411,4.039-10.451,9.57-10.451,20.211c0,10.65,6.038,16.188,10.447,20.231c3.873,3.553,5.585,5.287,5.585,9.177
			s-1.712,5.625-5.585,9.177c-4.409,4.043-10.447,9.582-10.447,20.231c0,4.142,3.358,7.5,7.5,7.5c4.142,0,7.5-3.358,7.5-7.5
			c0-3.89,1.712-5.625,5.585-9.177c4.409-4.043,10.447-9.582,10.447-20.231S201.349,370.725,196.94,366.682z"/>
	</g>
</g>
  <g>
	<g>
		<path d="M253.053,366.682c-3.873-3.553-5.585-5.287-5.585-9.177c0-3.874,1.711-5.604,5.581-9.148
			c4.411-4.039,10.451-9.57,10.451-20.212c0-4.142-3.358-7.5-7.5-7.5c-4.142,0-7.5,3.358-7.5,7.5c0,3.875-1.711,5.605-5.581,9.149
			c-4.411,4.039-10.451,9.57-10.451,20.211c0,10.65,6.038,16.188,10.447,20.231c3.873,3.553,5.585,5.287,5.585,9.177
			s-1.712,5.625-5.585,9.177c-4.409,4.043-10.447,9.582-10.447,20.231c0,4.142,3.358,7.5,7.5,7.5c4.142,0,7.5-3.358,7.5-7.5
			c0-3.89,1.712-5.625,5.585-9.177c4.409-4.043,10.447-9.582,10.447-20.231S257.462,370.725,253.053,366.682z"/>
	</g>
</g>
  <g>
	<g>
		<path d="M389.581,389.787l-30.403-17.553l30.403-17.553c3.587-2.071,4.816-6.658,2.745-10.245
			c-2.071-3.588-6.659-4.816-10.245-2.745l-30.403,17.553v-35.106c0-4.142-3.358-7.5-7.5-7.5c-4.142,0-7.5,3.358-7.5,7.5v35.106
			l-30.403-17.553c-3.587-2.072-8.174-0.842-10.245,2.745c-2.071,3.587-0.842,8.174,2.745,10.245l30.403,17.553l-30.403,17.553
			c-3.587,2.071-4.816,6.658-2.745,10.245c1.389,2.406,3.91,3.751,6.502,3.751c1.272,0,2.562-0.324,3.743-1.006l30.403-17.553
			v35.106c0,4.142,3.358,7.5,7.5,7.5c4.142,0,7.5-3.358,7.5-7.5v-35.106l30.403,17.553c1.181,0.682,2.471,1.006,3.743,1.006
			c2.592,0,5.113-1.346,6.502-3.751C394.397,396.445,393.168,391.858,389.581,389.787z"/>
	</g>
</g>
  <g>
</g>
  <g>
</g>
  <g>
</g>
  <g>
</g>
  <g>
</g>
  <g>
</g>
  <g>
</g>
  <g>
</g>
  <g>
</g>
  <g>
</g>
  <g>
</g>
  <g>
</g>
  <g>
</g>
  <g>
</g>
  <g>
</g>
</svg>
