<svg
  height="20px"
  width="24px"
  id="_x33_0" enable-background="new 0 0 64 64"
  viewBox="0 0 64 64"
  xmlns="http://www.w3.org/2000/svg">
  <g>
    <g>
      <g>
        <path d="m27 34h-2c-.552 0-1-.448-1-1v-6c0-.552.448-1 1-1h2c.552 0 1 .448 1 1v6c0 .552-.448 1-1 1z"
              fill="#fcd770"/>
      </g>
      <g>
        <path
          d="m56 15v2c0 .55-.45 1-1 1h-1-4-1c-.55 0-1-.45-1-1v-2c0-.55.45-1 1-1h1v-2c0-1.66-.67-3.16-1.76-4.24-1.08-1.09-2.58-1.76-4.24-1.76-3.31 0-6 2.69-6 6v14h-4v-14c0-2.76 1.12-5.26 2.93-7.07s4.31-2.93 7.07-2.93c5.52 0 10 4.48 10 10v2h1c.55 0 1 .45 1 1z"
          fill="#ccd1d9"/>
      </g>
      <g>
        <path d="m40 27v11h-8v-8-3c0-.55.45-1 1-1h1 4 1c.55 0 1 .45 1 1z" fill="#aab2bd"/>
      </g>
      <g>
        <path d="m60 38h-56c-1.1 0-2 .9-2 2v18 2c0 1.1.9 2 2 2h56c1.1 0 2-.9 2-2v-2-18c0-1.1-.9-2-2-2z" fill="#ccd1d9"/>
      </g>
      <g>
        <path d="m22 51v2c0 .55-.45 1-1 1h-14c-.55 0-1-.45-1-1v-2c0-.55.45-1 1-1h14c.55 0 1 .45 1 1z" fill="#e6e9ed"/>
      </g>
      <g>
        <path d="m22 43v2c0 .55-.45 1-1 1h-14c-.55 0-1-.45-1-1v-2c0-.55.45-1 1-1h14c.55 0 1 .45 1 1z" fill="#e6e9ed"/>
      </g>
      <g>
        <path
          d="m50 42v2c0 1.1-.9 2-2 2h-8c-1.1 0-2 .9-2 2 0 .55.22 1.05.59 1.41.36.37.86.59 1.41.59h4c2.21 0 4 1.79 4 4h-21c-.55 0-1-.45-1-1v-10c0-.55.45-1 1-1z"
          fill="#e6e9ed"/>
      </g>
      <g>
        <path
          d="m54 42h3c.55 0 1 .45 1 1v10c0 .55-.45 1-1 1h-9c0-2.21-1.79-4-4-4h-4c-.55 0-1.05-.22-1.41-.59-.37-.36-.59-.86-.59-1.41 0-1.1.9-2 2-2h8c1.1 0 2-.9 2-2v-2-4-20h4v20z"
          fill="#69d6f4"/>
      </g>
    </g>
    <g>
      <path
        d="m60 37h-5v-18c1.103 0 2-.897 2-2v-2c0-1.103-.897-2-2-2v-1c0-6.065-4.935-11-11-11s-11 4.935-11 11v13c-1.103 0-2 .897-2 2v2h-2v-2c0-1.103-.897-2-2-2h-2c-1.103 0-2 .897-2 2v2h-2v2h2v2c0 1.103.897 2 2 2h2c1.103 0 2-.897 2-2v-2h2v6h-27c-1.654 0-3 1.346-3 3v20c0 1.654 1.346 3 3 3h56c1.654 0 3-1.346 3-3v-20c0-1.654-1.346-3-3-3zm-35-10h2v2h-2zm2.001 6h-2.001v-2h2.001zm27.999 14v-4h2v10h-8.101c-.465-2.279-2.484-4-4.899-4h-4c-.552 0-1-.449-1-1s.448-1 1-1h8c1.654 0 3-1.346 3-3v-25h2v28zm-16-22v-13c0-2.757 2.243-5 5-5s5 2.243 5 5v1c-1.103 0-2 .897-2 2v2c0 1.103.897 2 2 2v18h-8v-10c0-1.103-.897-2-2-2zm1 26h4c1.302 0 2.402.839 2.816 2h-19.816v-10h22v1c0 .551-.448 1-1 1h-8c-1.654 0-3 1.346-3 3s1.346 3 3 3zm-5-39c0-4.962 4.037-9 9-9s9 4.038 9 9v3h2v2h-6v-2h2v-3c0-3.86-3.141-7-7-7s-7 3.14-7 7v13h-2zm-2 15h6v10h-6zm28 33c0 .551-.448 1-1 1h-56c-.552 0-1-.449-1-1v-20c0-.551.448-1 1-1h45v2h-22c-1.103 0-2 .897-2 2v10c0 1.103.897 2 2 2h30c1.103 0 2-.897 2-2v-10c0-1.103-.897-2-2-2h-2v-2h5c.552 0 1 .449 1 1z"/>
      <path d="m5 57h55v2h-55z"/>
      <path
        d="m7 55h14c1.103 0 2-.897 2-2v-2c0-1.103-.897-2-2-2h-14c-1.103 0-2 .897-2 2v2c0 1.103.897 2 2 2zm0-4h14l.001 2h-14.001z"/>
      <path
        d="m7 47h14c1.103 0 2-.897 2-2v-2c0-1.103-.897-2-2-2h-14c-1.103 0-2 .897-2 2v2c0 1.103.897 2 2 2zm0-4h14l.001 2h-14.001z"/>
    </g>
  </g>
</svg>
