<svg height="438.85714pt" viewBox="0 0 438.85714 438.85714" width="438.85714pt" xmlns="http://www.w3.org/2000/svg"><path d="m438.855469 54.855469v-54.855469h-438.855469v54.855469h18.285156l.648438 365.714843h-18.933594v18.285157h438.855469v-18.285157h-18.929688l.644531-365.714843zm-420.570313-36.570313h402.285156v18.285156h-402.285156zm82.285156 402.285156v-128h73.144532v128zm91.429688 0v-146.285156h-109.714844v146.285156h-45.097656l-.585938-173.714843h365.652344l-.585937 173.714843zm-18.285156-192h-73.144532v-128h73.144532zm227.953125 0h-209.667969v-146.285156h-109.714844v146.285156h-45.097656l-.585938-173.714843h365.652344zm0 0"/><path d="m356.570312 82.285156h-109.714843v109.714844h109.714843zm-18.285156 45.253906h-27.429687v-26.96875h27.429687zm-45.714844-26.96875v26.96875h-27.425781v-26.96875zm-27.425781 45.253907h27.425781v27.890625h-27.425781zm45.710938 27.890625v-27.890625h27.429687v27.890625zm0 0"/><path d="m246.855469 384h109.714843v-109.714844h-109.714843zm18.289062-46.175781h27.425781v27.890625h-27.425781zm45.710938 27.890625v-27.890625h27.429687v27.890625zm27.429687-46.175782h-27.429687v-26.96875h27.429687zm-45.714844-26.96875v26.96875h-27.425781v-26.96875zm0 0"/></svg>