<svg
  height="20px"
  width="24px"
  viewBox="0 0 512 512" xmlns="http://www.w3.org/2000/svg">
  <g id="filled_outline" data-name="filled outline">
    <circle cx="256" cy="312" fill="#3d5966" r="112"/>
    <path d="m176 209.775h48v190.225h-48z" fill="#349438"/>
    <circle cx="200" cy="208" fill="#4caf50" r="24"/>
    <path d="m288 208h48v192h-48z" fill="#bf2913" transform="matrix(-1 0 0 -1 624 608)"/>
    <circle cx="312" cy="208" fill="#e64f39" r="24"/>
    <path d="m200 144h112v312h-112z" fill="#7496a6"/>
    <circle cx="256" cy="144" fill="#dedde2" r="56"/>
    <path d="m240 40v104a16 16 0 0 0 32 0v-104z" fill="#f5be41"/>
    <circle cx="256" cy="40" fill="#f5d07d" r="16"/>
    <path d="m232 336h48v160h-48z" fill="#e6ad2c"/>
    <path d="m312 256h48v240h-48z" fill="#258adb"/>
    <path d="m152 256h48v240h-48z" fill="#258adb" transform="matrix(-1 0 0 -1 352 752)"/>
    <circle cx="336" cy="256" fill="#42a5f5" r="24"/>
    <circle cx="256" cy="336" fill="#f5be41" r="24"/>
    <circle cx="176" cy="256" fill="#42a5f5" r="24"/>
    <path d="m280 304h48v190.225h-48z" fill="#349438"/>
    <circle cx="304" cy="304" fill="#4caf50" r="24"/>
    <path d="m184 304h48v192h-48z" fill="#bf2913" transform="matrix(-1 0 0 -1 416 800)"/>
    <circle cx="208" cy="304" fill="#e64f39" r="24"/>
    <path d="m256 424a112 112 0 0 1 -112-112v184h224v-184a112 112 0 0 1 -112 112z" fill="#3d5966"/>
    <path
      d="m144 256v240h16v-118.369a111.939 111.939 0 0 0 192 0v118.369h16v-240a32.042 32.042 0 0 0 -28.423-31.795 31.976 31.976 0 0 0 -19.577-47.192v-33.013a64.434 64.434 0 0 0 -40-59.329v-44.671a24 24 0 0 0 -48 0v44.671a64.434 64.434 0 0 0 -40 59.329v33.013a31.976 31.976 0 0 0 -19.577 47.192 32.042 32.042 0 0 0 -28.423 31.795zm16 27.7a31.793 31.793 0 0 0 16 4.3 32.13 32.13 0 0 0 4.49-.321 31.8 31.8 0 0 0 -4.49 16.321v69a95.442 95.442 0 0 1 -16-53zm127.679 47.81a31.9 31.9 0 0 0 32.321.19v59.793a96.09 96.09 0 0 1 -32 19.021v-74.514a32.13 32.13 0 0 0 -.321-4.49zm32.321-27.51a16 16 0 1 1 -16-16 16.019 16.019 0 0 1 16 16zm-64 16a16 16 0 1 1 -16 16 16.019 16.019 0 0 1 16-16zm-64 11.7a31.885 31.885 0 0 0 32 0v78.814a96.09 96.09 0 0 1 -32-19.021zm16-11.7a16 16 0 1 1 16-16 16.019 16.019 0 0 1 -16 16zm32 94.659v-50.959a31.885 31.885 0 0 0 32 0v50.964a96.122 96.122 0 0 1 -32 0zm96-41.659v-67.226h-.052c.033-.587.052-1.178.052-1.774a31.8 31.8 0 0 0 -4.49-16.321 32.13 32.13 0 0 0 4.49.321 31.793 31.793 0 0 0 16-4.305v36.305a95.442 95.442 0 0 1 -16 53zm16-117a16 16 0 1 1 -16-16 16.019 16.019 0 0 1 16 16zm-24-48a16 16 0 0 1 -8 13.835v-27.67a16 16 0 0 1 8 13.835zm-80-145.376a23.944 23.944 0 0 0 16 0v81.376a8 8 0 0 1 -16 0zm8-30.624a8 8 0 1 1 -8 8 8.009 8.009 0 0 1 8-8zm-24 70.443v41.557a24 24 0 0 0 48 0v-41.557a48 48 0 1 1 -48 0zm24 105.557a63.85 63.85 0 0 0 48-21.736v85.736a31.971 31.971 0 0 0 -31.679 36.49 31.908 31.908 0 0 0 -32.642 0 31.971 31.971 0 0 0 -31.679-36.49v-85.736a63.85 63.85 0 0 0 48 21.736zm-64-13.835v27.67a15.963 15.963 0 0 1 0-27.67zm-16 45.835a16 16 0 1 1 -16 16 16.019 16.019 0 0 1 16-16z"/>
  </g>
</svg>
