<svg id="Capa_1"
     enable-background="new 0 0 512 512"
     viewBox="0 0 512 512"
     height="20px"
     width="24px"
     xmlns="http://www.w3.org/2000/svg">
  <g>
    <g>
      <path d="m47.671 135.686h416.827v326.888h-416.827z" fill="#ffa85d"/>
      <path d="m47.671 135.686h87.104v326.888h-87.104z" fill="#ff9839"/>
      <path
        d="m323.795 188.14h-135.42c-49.505 0-89.78 40.275-89.78 89.78v184.654h314.98v-184.654c0-49.505-40.275-89.78-89.78-89.78z"
        fill="#ffcf86"/>
      <path
        d="m294.097 188.14h-105.722c-49.505 0-89.78 40.275-89.78 89.78v184.654h105.722v-184.654c0-49.505 40.275-89.78 89.78-89.78z"
        fill="#ffc265"/>
      <path
        d="m382.729 462.574v-184.654c0-32.497-26.438-58.935-58.935-58.935h-135.42c-32.497 0-58.935 26.437-58.935 58.935v184.654z"
        fill="#665e68"/>
      <path
        d="m241.917 218.985h-53.542c-32.497 0-58.935 26.438-58.935 58.935v184.654h53.542v-184.654c0-32.497 26.438-58.935 58.935-58.935z"
        fill="#554e56"/>
      <path
        d="m266.934 421.829h63.667c17.427-51.285-7.272-89.696-18.721-103.859-1.857-2.298-5.334-1.002-5.515 2.063-1.379 23.377-8.705 36.62-15.154 43.855-3.102 3.48-8.503 1.034-8.4-3.833.397-18.632-11.246-37.916-30.292-53.299-14.14-11.421-12.284-26.246-8.713-36.035 1.151-3.155-2.02-6.1-4.628-4.268-59.708 41.951-11.584 109.19-30.268 117.85-12.766 5.917-20.18-5.992-23.803-15.039-1.164-2.906-5.02-2.672-5.894.354-6.8 23.546-3.219 40.595 2.846 52.281.46-.03.918-.07 1.385-.07 11.51 0 20.842 9.318 20.87 20.822h.005c.028-11.504 9.36-20.822 20.87-20.822 11.527 0 20.872 9.345 20.872 20.872.001-11.527 9.346-20.872 20.873-20.872z"
        fill="#fee55a"/>
      <g fill="#ffd301">
        <path
          d="m213.453 376.081c4.207 6.971 10.8 12.698 20.458 8.222 15.432-7.153-14.706-54.267 7.978-94.089-1.51-7.087-.063-14.064 1.918-19.493 1.151-3.155-2.02-6.1-4.628-4.268-50.23 35.292-24.15 88.475-25.726 109.628z"/>
        <path
          d="m215.726 423.145c-6.971-2.62-12.257-8.382-13.809-15.665-1.337-6.271-1.823-13.472-.948-21.676-8.017-.896-13.067-9.564-15.861-16.54-1.164-2.906-5.02-2.672-5.894.354-6.8 23.546-3.219 40.595 2.846 52.281.46-.03.918-.07 1.385-.07 11.51 0 20.842 9.318 20.87 20.822h.005c.02-8.526 5.157-15.84 12.497-19.062-.365-.159-.728-.307-1.091-.444z"/>
      </g>
      <path
        d="m252.983 363.578c-3.107-3.894-9.276-2.981-11.065 1.669-4.844 12.583-11.719 35.785-7.805 58.607 7.057 3.348 11.949 10.517 11.949 18.847 0-11.527 9.345-20.872 20.872-20.872h6.63c.127-15.036-3.121-36.365-20.581-58.251z"
        fill="#ffa85d"/>
      <path
        d="m260.879 374.962c-2.24-3.758-4.847-7.562-7.896-11.384-3.107-3.894-9.276-2.981-11.065 1.669-4.844 12.583-11.719 35.785-7.805 58.607 7.057 3.348 11.948 10.517 11.948 18.847 0-6.596 3.067-12.467 7.844-16.292-2.437-19.609 2.59-39.079 6.974-51.447z"
        fill="#ff9839"/>
      <path
        d="m331.446 420.829h-64.512c11.527 0 15.872 9.345 15.872 20.872s-4.345 20.872-15.872 20.872h64.512c11.527 0 20.872-9.345 20.872-20.872.001-11.527-9.344-20.872-20.872-20.872z"
        fill="#ab6b51"/>
      <path
        d="m302.934 441.702c0-11.527 9.345-20.872 20.872-20.872h-56.872c11.527 0 15.872 9.345 15.872 20.872s-4.345 20.872-15.872 20.872h56.872c-11.527 0-20.872-9.345-20.872-20.872z"
        fill="#965a44"/>
      <circle cx="183.445" cy="441.701" fill="#ffcf86" r="20.872"/>
      <path
        d="m181.433 441.702c0-8.13 4.658-15.157 11.442-18.603-2.835-1.44-6.033-2.269-9.43-2.269-11.527 0-20.872 9.345-20.872 20.872s9.345 20.872 20.872 20.872c3.397 0 6.595-.829 9.43-2.269-6.784-3.446-11.442-10.474-11.442-18.603z"
        fill="#ffc265"/>
      <circle cx="225.189" cy="441.701" fill="#ffcf86" r="20.872"/>
      <path
        d="m223.177 441.702c0-8.13 4.658-15.157 11.442-18.603-2.835-1.44-6.033-2.269-9.43-2.269-11.528 0-20.873 9.345-20.873 20.872s9.345 20.872 20.873 20.872c3.397 0 6.595-.829 9.43-2.269-6.783-3.446-11.442-10.474-11.442-18.603z"
        fill="#ffc265"/>
      <circle cx="266.934" cy="441.701" fill="#ffcf86" r="20.872"/>
      <path
        d="m264.922 441.702c0-8.13 4.658-15.157 11.442-18.603-2.835-1.44-6.033-2.269-9.43-2.269-11.527 0-20.872 9.345-20.872 20.872s9.345 20.872 20.872 20.872c3.397 0 6.595-.829 9.43-2.269-6.784-3.446-11.442-10.474-11.442-18.603z"
        fill="#ffc265"/>
      <path
        d="m468.404 461.574h-424.639c-6.786 0-12.338 5.553-12.338 12.338v12.477c0 2.534 2.054 4.588 4.588 4.588h440.138c2.534 0 4.588-2.054 4.588-4.588v-12.477c.001-6.786-5.551-12.338-12.337-12.338z"
        fill="#b7aeb8"/>
      <path
        d="m119.355 486.389v-12.477c0-6.786 5.552-12.338 12.338-12.338h-87.928c-6.786 0-12.338 5.552-12.338 12.338v12.477c0 2.534 2.054 4.588 4.588 4.588h87.928c-2.534 0-4.588-2.054-4.588-4.588z"
        fill="#a89ca8"/>
      <path
        d="m31.427 129.083c0 6.786 5.553 12.338 12.338 12.338h424.638c6.786 0 12.338-5.552 12.338-12.338v-18.065h-449.314z"
        fill="#ffcf86"/>
      <path
        d="m468.404 20.867h-424.639c-6.786 0-12.338 5.552-12.338 12.338v18.065h449.315v-18.065c0-6.786-5.552-12.338-12.338-12.338z"
        fill="#ffcf86"/>
      <g fill="#ffc265">
        <path
          d="m122.437 129.083v-18.065h-91.01v18.065c0 6.786 5.552 12.338 12.338 12.338h91.01c-6.785 0-12.338-5.552-12.338-12.338z"/>
        <path
          d="m134.775 20.867h-91.01c-6.786 0-12.338 5.552-12.338 12.338v18.065h91.01v-18.065c0-6.786 5.553-12.338 12.338-12.338z"/>
        <path
          d="m492.247 49.271h-472.324c-6.786 0-12.338 5.552-12.338 12.338v39.071c0 6.786 5.553 12.338 12.338 12.338h472.324c6.786 0 12.338-5.552 12.338-12.338v-39.071c0-6.786-5.552-12.338-12.338-12.338z"/>
      </g>
      <path
        d="m98.595 100.68v-39.071c0-6.786 5.552-12.338 12.338-12.338h-91.01c-6.786 0-12.338 5.552-12.338 12.338v39.071c0 6.786 5.552 12.338 12.338 12.338h91.01c-6.786 0-12.338-5.552-12.338-12.338z"
        fill="#ffb541"/>
    </g>
    <path
      d="m492.162 41.849h-4.005v-8.565c0-10.938-8.899-19.838-19.838-19.838h-424.638c-10.938 0-19.838 8.899-19.838 19.838v8.565h-4.005c-10.939 0-19.838 8.899-19.838 19.838v39.071c0 10.938 8.899 19.838 19.838 19.838h4.005v8.565c0 9.71 7.018 17.797 16.244 19.495v306.838c-9.227 1.698-16.244 9.786-16.244 19.496v11.477c0 6.665 5.423 12.088 12.088 12.088h440.139c6.665 0 12.088-5.423 12.088-12.088v-11.477c0-9.711-7.018-17.798-16.244-19.496v-131.374c0-4.143-3.357-7.5-7.5-7.5s-7.5 3.357-7.5 7.5v131.031h-35.924v-177.153c0-53.641-43.64-97.28-97.28-97.28h-50.21c-4.143 0-7.5 3.357-7.5 7.5s3.357 7.5 7.5 7.5h50.21c45.369 0 82.28 36.911 82.28 82.28v177.153h-15.846v-177.153c0-36.632-29.803-66.435-66.435-66.435h-135.419c-36.632 0-66.435 29.803-66.435 66.435v177.153h-15.845v-177.153c0-45.369 36.911-82.28 82.28-82.28h50.21c4.143 0 7.5-3.357 7.5-7.5s-3.357-7.5-7.5-7.5h-50.21c-53.641 0-97.28 43.64-97.28 97.28v177.153h-35.923v-306.152h401.826v140.121c0 4.143 3.357 7.5 7.5 7.5s7.5-3.357 7.5-7.5v-140.464c9.227-1.698 16.244-9.785 16.244-19.495v-8.565h4.005c10.938 0 19.838-8.899 19.838-19.838v-39.071c0-10.939-8.899-19.838-19.838-19.838zm-453.319-8.566c0-2.622 2.216-4.838 4.838-4.838h424.639c2.622 0 4.838 2.216 4.838 4.838v8.565h-434.315zm98.012 244.715c0-28.361 23.073-51.435 51.435-51.435h135.42c28.361 0 51.435 23.073 51.435 51.435v177.153h-18.768c2.14-3.987 3.357-8.539 3.357-13.372 0-12.567-8.216-23.245-19.557-26.963 13.329-50.542-10.975-88.165-22.549-102.482-6.134-7.592-18.249-3.597-18.836 6.335-.942 15.975-4.815 26.527-8.932 33.37-2.182-18.144-13.794-36.758-32.714-52.04-8.437-6.813-10.583-16.11-6.38-27.63 3.682-10.093-7.429-18.988-15.985-12.976-57.916 40.693-23.616 106.174-29.252 117.246-2.627 1.181-4.129.846-5.034.488-2.928-1.163-6.03-5.382-8.511-11.576-3.835-9.575-17.232-8.737-20.062 1.063-5.262 18.219-5.325 34.758-.248 49.32-9.83 4.462-16.688 14.364-16.688 25.844 0 4.833 1.218 9.385 3.357 13.372h-21.489v-177.152zm33.132 163.781c0-6.891 5.296-12.815 12.479-13.319 8.099-.536 14.245 5.94 14.263 13.286 0 .016.002.031.002.046-.007 7.367-6.003 13.359-13.371 13.359-7.374 0-13.373-5.999-13.373-13.372zm63.826-162.184c-1.151 12.622 3.591 23.74 13.909 32.075 17.814 14.388 27.84 31.63 27.507 47.305-.253 11.884 13.797 17.62 21.496 8.982 5.845-6.557 12.864-18.044 15.837-37.026 10.547 16.435 23.037 45.652 12.449 82.477h-44.263c-1.33-20.153-8.697-38.77-21.986-55.429h-.001c-6.666-8.359-20.029-6.475-23.927 3.652-4.181 10.861-10.313 30.726-9.343 51.786-8.367-.111-15.972 3.424-21.259 9.169-4.649-5.052-10.882-8.169-17.413-8.969-3.84-9.326-4.838-19.943-2.988-31.706 7.59 10.472 18 12.978 28.149 8.274 26.845-12.442-20.018-69.594 21.833-110.59zm12.164 142.986c-1.397-1.517-3.194-3.09-5.055-4.344-2.311-19.146 3.174-38.415 7.248-49.455 10.402 13.547 16.289 28.527 17.554 44.648-7.774.308-14.83 3.793-19.747 9.151zm-34.245 19.198s.001-.011.001-.017l.001-.014c.019-7.356 6.016-13.341 13.37-13.341 7.316 0 13.372 6.024 13.372 13.372 0 7.373-5.999 13.372-13.372 13.372s-13.372-5.999-13.372-13.372zm41.745 0c0-7.373 5.999-13.372 13.373-13.372 7.373 0 13.372 5.999 13.372 13.372s-5.999 13.372-13.372 13.372c-7.374 0-13.373-5.999-13.373-13.372zm38.391-13.372h38.648.845c7.374 0 13.373 5.999 13.373 13.372s-5.999 13.372-13.373 13.372h-39.493c4.568-8.53 4.356-18.641 0-26.744zm176.451 41.744c2.622 0 4.838 2.216 4.838 4.839v8.564h-434.314v-8.564c0-2.623 2.216-4.839 4.838-4.839zm4.838-340.99c0 2.622-2.216 4.838-4.838 4.838-3.293 0-420.72 0-424.639 0-2.622 0-4.838-2.216-4.838-4.838v-8.565h434.314v8.565zm23.843-28.403c0 2.622-2.216 4.838-4.838 4.838-6.266 0-465.758 0-472.324 0-2.622 0-4.838-2.216-4.838-4.838v-39.071c0-2.622 2.216-4.838 4.838-4.838h472.324c2.622 0 4.838 2.216 4.838 4.838z"/>
  </g>
</svg>
