<?xml version="1.0" encoding="iso-8859-1"?>
<!-- Generator: Adobe Illustrator 19.0.0, SVG Export Plug-In . SVG Version: 6.00 Build 0)  -->
<svg
  height="20px"
  width="24px"
  version="1.1" id="Capa_1" xmlns="http://www.w3.org/2000/svg" xmlns:xlink="http://www.w3.org/1999/xlink" x="0px"
     y="0px"
     viewBox="0 0 511.998 511.998" style="enable-background:new 0 0 511.998 511.998;" xml:space="preserve">
<g>
	<g>
		<polygon style="fill:#FC4F5C;" points="10,80.601 131.999,80.601 162,80.601 162,40.598 10,40.598 		"/>
    <polygon style="fill:#FC4F5C;"
             points="331.999,175.395 131.999,175.395 131.999,215.397 301.998,215.397 331.999,215.397 		"/>
    <polygon style="fill:#FC4F5C;"
             points="501.998,310.193 301.998,310.193 301.998,350.194 478.002,350.194 501.998,350.194 		"/>
	</g>
  <polygon style="fill:#C68F7B;" points="301.998,350.194 301.998,310.193 301.998,215.397 131.999,215.397 131.999,175.395
		131.999,80.601 10,80.601 10,119.88 10,244.428 296.242,471.4 478.002,471.4 478.002,389.146 478.002,350.194 	"/>
</g>
  <g>
	<path style="fill:#000001;" d="M501.998,300.193h-190v-74.796h20.001c5.522,0,10-4.477,10-10v-40.002c0-5.523-4.478-10-10-10h-190
		V90.601H162c5.523,0,10-4.477,10-10V40.598c0-5.523-4.477-10-10-10H10c-5.523,0-10,4.477-10,10v40.003v163.827
		c0,3.053,1.395,5.939,3.786,7.835l286.243,226.972c1.768,1.402,3.957,2.165,6.213,2.165h181.76c5.522,0,10-4.477,10-10V360.194
		h13.996c5.523,0,10-4.477,10-10v-40.001C511.998,304.67,507.521,300.193,501.998,300.193z M321.999,205.397h-180v-20.002h180
		V205.397z M20,50.598h132v20.003H20V50.598z M468.002,379.146h-41.036c-5.522,0-10,4.477-10,10s4.478,10,10,10h41.036V461.4
		H299.727L20,239.595V129.88h41.035c5.523,0,10-4.477,10-10c0-5.523-4.477-10-10-10H20V90.601h101.999v84.794v40.002
		c0,5.523,4.478,10,10,10h159.999v84.796v40.001c0,5.523,4.477,10,10,10h166.004L468.002,379.146L468.002,379.146z M491.998,340.194
		h-180v-20.001h180V340.194z"/>
    <path style="fill:#000001;" d="M397.998,399.144h0.236c5.523,0,10-4.477,10-10s-4.477-10-10-10h-0.236c-5.522,0-10,4.477-10,10
		C387.998,394.667,392.475,399.144,397.998,399.144z"/>
    <path style="fill:#000001;" d="M90,109.88h-0.235c-5.522,0-10,4.477-10,10c0,5.523,4.478,10,10,10H90c5.523,0,10-4.477,10-10
		C100,114.357,95.523,109.88,90,109.88z"/>
</g>
</svg>
