<svg id="Filloutline" enable-background="new 0 0 128 128"
     viewBox="0 0 128 128"
     height="20px"
     width="24px"
     xmlns="http://www.w3.org/2000/svg" xmlns:xlink="http://www.w3.org/1999/xlink">
  <linearGradient id="lg1">
    <stop offset="0" stop-color="#50a6d0"/>
    <stop offset="1" stop-color="#198bc2"/>
  </linearGradient>
  <linearGradient id="SVGID_1_" gradientUnits="userSpaceOnUse" x1="-72.25" x2="-36.584" xlink:href="#lg1" y1="88.68"
                  y2="91.68"/>
  <linearGradient id="SVGID_2_" gradientUnits="userSpaceOnUse" x1="29.908" x2="50.742" y1="90.045" y2="89.878">
    <stop offset=".1197" stop-color="#9dc7ef"/>
    <stop offset="1" stop-color="#65b2e0"/>
  </linearGradient>
  <linearGradient id="SVGID_3_" gradientUnits="userSpaceOnUse" x1="-69.954" x2="-34.287" xlink:href="#lg1" y1="61.373"
                  y2="64.373"/>
  <linearGradient id="lg2">
    <stop offset="0" stop-color="#e05c63"/>
    <stop offset=".4062" stop-color="#dd585f"/>
    <stop offset=".8264" stop-color="#d34b53"/>
    <stop offset="1" stop-color="#cd444c"/>
  </linearGradient>
  <linearGradient id="SVGID_4_" gradientUnits="userSpaceOnUse" x1="70.743" x2="71.743" xlink:href="#lg2" y1="49.457"
                  y2="49.624"/>
  <linearGradient id="SVGID_5_" gradientUnits="userSpaceOnUse" x1="98.925" x2="100.05" y1="39.509" y2="21.884">
    <stop offset="0" stop-color="#eff0f0"/>
    <stop offset="1" stop-color="#e4e5e6"/>
  </linearGradient>
  <linearGradient id="SVGID_6_" gradientUnits="userSpaceOnUse" x1="93.463" x2="93.963" y1="22.238" y2="25.738">
    <stop offset="0" stop-color="#6c6f73"/>
    <stop offset="1" stop-color="#56585b"/>
  </linearGradient>
  <linearGradient id="SVGID_7_" gradientUnits="userSpaceOnUse" x1="192.522" x2="255.286" xlink:href="#lg1" y1="45.534"
                  y2="41.051"/>
  <linearGradient id="SVGID_8_" gradientUnits="userSpaceOnUse" x1="166.41" x2="217.744" xlink:href="#lg1" y1="24.078"
                  y2="20.411"/>
  <linearGradient id="SVGID_9_" gradientUnits="userSpaceOnUse" x1="646.974" x2="841.419" xlink:href="#lg1" y1="73.359"
                  y2="59.47"/>
  <linearGradient id="lg3">
    <stop offset="0" stop-color="#198bc2"/>
    <stop offset="1" stop-color="#126399"/>
  </linearGradient>
  <linearGradient id="SVGID_10_" gradientUnits="userSpaceOnUse" x1="-65.691" x2="-32.3" xlink:href="#lg3" y1="106.362"
                  y2="109.171"/>
  <linearGradient id="SVGID_11_" gradientUnits="userSpaceOnUse" x1="-63.454" x2="-30.063" xlink:href="#lg3" y1="102.766"
                  y2="105.574"/>
  <linearGradient id="SVGID_12_" gradientUnits="userSpaceOnUse" x1="-38.212" x2="-11.374" xlink:href="#lg3" y1="82.739"
                  y2="84.997"/>
  <linearGradient id="SVGID_13_" gradientUnits="userSpaceOnUse" x1="-34.63" x2="-7.792" xlink:href="#lg3" y1="23.041"
                  y2="25.298"/>
  <linearGradient id="SVGID_14_" gradientUnits="userSpaceOnUse" x1="-51.168" x2="-21.906" xlink:href="#lg3" y1="28.182"
                  y2="30.643"/>
  <linearGradient id="lg4">
    <stop offset="0" stop-color="#babcbe"/>
    <stop offset="1" stop-color="#808083"/>
  </linearGradient>
  <linearGradient id="SVGID_15_" gradientUnits="userSpaceOnUse" x1="17.07" x2="16.737" xlink:href="#lg4" y1="60.407"
                  y2="72.741"/>
  <linearGradient id="SVGID_16_" gradientUnits="userSpaceOnUse" x1="-71.965" x2="-36.299" xlink:href="#lg1" y1="97.182"
                  y2="100.182"/>
  <linearGradient id="SVGID_17_" gradientUnits="userSpaceOnUse" x1="18" x2="30" xlink:href="#lg2" y1="92" y2="92"/>
  <linearGradient id="SVGID_18_" gradientUnits="userSpaceOnUse" x1="2" x2="14" xlink:href="#lg2" y1="92" y2="92"/>
  <linearGradient id="SVGID_19_" gradientUnits="userSpaceOnUse" x1="12" x2="20" xlink:href="#lg2" y1="92" y2="92"/>
  <linearGradient id="SVGID_20_" gradientUnits="userSpaceOnUse" x1="114.728" x2="114.394" xlink:href="#lg4" y1="63.074"
                  y2="75.407"/>
  <linearGradient id="SVGID_21_" gradientUnits="userSpaceOnUse" x1="-71.091" x2="-35.424" xlink:href="#lg1" y1="74.891"
                  y2="77.891"/>
  <linearGradient id="SVGID_22_" gradientTransform="matrix(0 1 -1 0 763 -221)" gradientUnits="userSpaceOnUse" x1="313"
                  x2="325" xlink:href="#lg2" y1="641" y2="641"/>
  <linearGradient id="SVGID_23_" gradientTransform="matrix(0 1 -1 0 763 -221)" gradientUnits="userSpaceOnUse" x1="297"
                  x2="309" xlink:href="#lg2" y1="641" y2="641"/>
  <linearGradient id="SVGID_24_" gradientTransform="matrix(0 1 -1 0 763 -221)" gradientUnits="userSpaceOnUse" x1="307"
                  x2="315" xlink:href="#lg2" y1="641" y2="641"/>
  <g>
    <g>
      <path d="m93 98h10v10h-10z" fill="url(#SVGID_1_)"/>
      <path d="m103 98h-10c-1.657 0-3-1.343-3-3v-11c0-1.657 1.343-3 3-3h10c1.657 0 3 1.343 3 3v11c0 1.657-1.343 3-3 3z"
            fill="url(#SVGID_2_)"/>
      <path d="m93 70h10v11h-10z" fill="url(#SVGID_3_)"/>
      <circle cx="98" cy="54" fill="url(#SVGID_4_)" r="18"/>
      <circle cx="98" cy="54" fill="url(#SVGID_5_)" r="14"/>
      <circle cx="98" cy="54" fill="url(#SVGID_6_)" r="3"/>
      <path d="m53 108v-106h14v106z" fill="url(#SVGID_7_)"/>
      <path
        d="m25 50v-33c0-8.284-6.716-15-15-15h-8v14h7c1.105 0 2 .895 2 2v33c0 8.284 6.716 15 15 15h27v-14h-26c-1.105 0-2-.895-2-2z"
        fill="url(#SVGID_8_)"/>
      <path d="m2 108h124v14h-124z" fill="url(#SVGID_9_)"/>
      <path
        d="m40 107.915v14.17c0 1.053-.862 1.915-1.915 1.915h-2.17c-1.053 0-1.915-.862-1.915-1.915v-14.17c0-1.053.862-1.915 1.915-1.915h2.17c1.053 0 1.915.862 1.915 1.915z"
        fill="url(#SVGID_10_)"/>
      <path
        d="m85 107.915v14.17c0 1.053-.862 1.915-1.915 1.915h-2.17c-1.053 0-1.915-.862-1.915-1.915v-14.17c0-1.053.862-1.915 1.915-1.915h2.17c1.053 0 1.915.862 1.915 1.915z"
        fill="url(#SVGID_11_)"/>
      <path
        d="m52.915 88h14.17c1.053 0 1.915.862 1.915 1.915v2.17c0 1.053-.862 1.915-1.915 1.915h-14.17c-1.053 0-1.915-.862-1.915-1.915v-2.17c0-1.053.862-1.915 1.915-1.915z"
        fill="url(#SVGID_12_)"/>
      <path
        d="m52.915 28h14.17c1.053 0 1.915.862 1.915 1.915v2.17c0 1.053-.862 1.915-1.915 1.915h-14.17c-1.053 0-1.915-.862-1.915-1.915v-2.17c0-1.053.862-1.915 1.915-1.915z"
        fill="url(#SVGID_13_)"/>
      <path
        d="m10.826 31h14.349c1.003 0 1.825.822 1.825 1.826v2.349c0 1.003-.822 1.825-1.826 1.825h-14.348c-1.004 0-1.826-.822-1.826-1.826v-2.349c0-1.003.822-1.825 1.826-1.825z"
        fill="url(#SVGID_14_)"/>
      <path d="m19 92v16h-6v-16z" fill="url(#SVGID_15_)"/>
      <path d="m21 108h-10v-5c0-1.1.9-2 2-2h6c1.1 0 2 .9 2 2z" fill="url(#SVGID_16_)"/>
      <path d="m27 89-9 1v4l9 1c1.657 0 3-1.343 3-3s-1.343-3-3-3z" fill="url(#SVGID_17_)"/>
      <path d="m5 89 9 1v4l-9 1c-1.657 0-3-1.343-3-3s1.343-3 3-3z" fill="url(#SVGID_18_)"/>
      <circle cx="16" cy="92" fill="url(#SVGID_19_)" r="4"/>
      <path d="m106 87h16v6h-16z" fill="url(#SVGID_20_)"/>
      <path d="m106 95v-10h5c1.1 0 2 .9 2 2v6c0 1.1-.9 2-2 2z" fill="url(#SVGID_21_)"/>
      <path d="m125 101-1-9h-4l-1 9c0 1.657 1.343 3 3 3s3-1.343 3-3z" fill="url(#SVGID_22_)"/>
      <path d="m125 79-1 9h-4l-1-9c0-1.657 1.343-3 3-3s3 1.343 3 3z" fill="url(#SVGID_23_)"/>
      <circle cx="122" cy="90" fill="url(#SVGID_24_)" r="4"/>
    </g>
    <g fill="#3a322b">
      <path
        d="m113 54c0-8.271-6.729-15-15-15s-15 6.729-15 15 6.729 15 15 15 15-6.729 15-15zm-27.949 1h2.949c.552 0 1-.448 1-1s-.448-1-1-1h-2.949c.488-6.37 5.579-11.461 11.949-11.949v2.949c0 .552.448 1 1 1s1-.448 1-1v-2.949c6.37.488 11.461 5.579 11.949 11.949h-2.949c-.552 0-1 .448-1 1s.448 1 1 1h2.949c-.488 6.37-5.579 11.461-11.949 11.949v-2.949c0-.552-.448-1-1-1s-1 .448-1 1v2.949c-6.37-.488-11.461-5.579-11.949-11.949z"/>
      <path
        d="m126 107h-22v-8.142c1.399-.364 2.494-1.459 2.858-2.858h4.142c1.302 0 2.402-.839 2.816-2h4.956l-.766 6.89c-.004.037-.006.073-.006.11 0 2.206 1.794 4 4 4s4-1.794 4-4c0-.037-.002-.074-.006-.11l-.787-7.086c1.087-.918 1.793-2.273 1.793-3.804s-.706-2.886-1.794-3.804l.787-7.085c.005-.037.007-.074.007-.111 0-2.206-1.794-4-4-4s-4 1.794-4 4c0 .037.002.074.006.11l.766 6.89h-4.956c-.414-1.161-1.514-2-2.816-2h-4c0-1.858-1.28-3.411-3-3.858v-8.128c7.542-2.519 13-9.635 13-18.014 0-10.477-8.523-19-19-19s-19 8.523-19 19c0 8.379 5.458 15.494 13 18.014v8.128c-1.72.447-3 2-3 3.858v11c0 1.858 1.28 3.411 3 3.858v8.142h-6.161c-.386-1.158-1.468-2-2.754-2h-2.17c-1.286 0-2.367.842-2.754 2h-10.161v-12.161c1.158-.386 2-1.468 2-2.754v-2.17c0-1.286-.842-2.367-2-2.754v-52.322c1.158-.386 2-1.468 2-2.754v-2.17c0-1.286-.842-2.367-2-2.754v-25.161c0-.552-.448-1-1-1h-14c-.552 0-1 .448-1 1v25.161c-1.158.386-2 1.468-2 2.754v2.17c0 1.286.842 2.367 2 2.754v16.161h-25c-.551 0-1-.449-1-1v-12.137c1.154-.356 2-1.419 2-2.688v-2.349c0-1.269-.846-2.332-2-2.688v-13.138c0-8.822-7.178-16-16-16h-8c-.552 0-1 .448-1 1v14c0 .552.448 1 1 1h7c.551 0 1 .449 1 1v12.137c-1.154.356-2 1.419-2 2.688v2.349c0 1.269.846 2.332 2 2.688v13.138c0 8.822 7.178 16 16 16h26v20.161c-1.158.386-2 1.468-2 2.754v2.17c0 1.286.842 2.367 2 2.754v12.161h-11.161c-.386-1.158-1.468-2-2.754-2h-2.17c-1.286 0-2.367.842-2.754 2h-11.161v-4c0-1.302-.839-2.402-2-2.816v-4.956l6.89.766c.036.004.073.006.11.006 2.206 0 4-1.794 4-4s-1.794-4-4-4c-.037 0-.074.002-.11.006l-7.085.787c-.919-1.087-2.274-1.793-3.805-1.793s-2.886.706-3.804 1.794l-7.086-.788c-.036-.004-.073-.006-.11-.006-2.206 0-4 1.794-4 4s1.794 4 4 4c.037 0 .074-.002.11-.006l6.89-.766v4.956c-1.161.414-2 1.514-2 2.816v4h-8c-.552 0-1 .448-1 1v14c0 .552.448 1 1 1h31.161c.386 1.158 1.468 2 2.754 2h2.17c1.286 0 2.367-.842 2.754-2h37.323c.386 1.158 1.468 2 2.754 2h2.17c1.286 0 2.367-.842 2.754-2h40.16c.552 0 1-.448 1-1v-14c0-.552-.448-1-1-1zm-1-17c0 1.654-1.346 3-3 3s-3-1.346-3-3 1.346-3 3-3 3 1.346 3 3zm-7.576 2h-3.424v-4h3.424c-.269.614-.424 1.288-.424 2s.154 1.386.424 2zm6.576 9.05c-.027 1.08-.914 1.95-2 1.95s-1.973-.87-2-1.95l.694-6.245c.419.114.851.195 1.306.195s.887-.081 1.306-.195zm-2-24.05c1.086 0 1.973.87 2 1.95l-.694 6.245c-.419-.114-.851-.195-1.306-.195s-.887.081-1.306.195l-.694-6.245c.027-1.08.914-1.95 2-1.95zm-11 9c.551 0 1 .449 1 1v6c0 .551-.449 1-1 1h-4v-8zm-30-32c0-9.374 7.626-17 17-17s17 7.626 17 17-7.626 17-17 17-17-7.626-17-17zm17 19c1.373 0 2.709-.154 4-.432v7.432h-8v-7.432c1.291.278 2.627.432 4 .432zm-7 22v-11c0-1.103.897-2 2-2h10c1.103 0 2 .897 2 2v11c0 1.103-.897 2-2 2h-10c-1.103 0-2-.897-2-2zm3 4h8v8h-8zm-16 10v12h-37v-12zm-12-74v52h-12v-52zm0-32v24h-12v-24zm-14 26.915c0-.504.411-.915.915-.915h14.17c.504 0 .915.411.915.915v2.17c0 .504-.411.915-.915.915h-14.17c-.504 0-.915-.411-.915-.915zm-43-14.915h-6v-12h7c7.72 0 14 6.28 14 14v13h-12v-12c0-1.654-1.346-3-3-3zm1 17.826c0-.455.371-.826.826-.826h14.349c.454 0 .825.371.825.826v2.349c0 .454-.371.825-.826.825h-14.348c-.455 0-.826-.371-.826-.826zm16 32.174c-7.72 0-14-6.28-14-14v-13h12v12c0 1.654 1.346 3 3 3h25v12zm26 24.915c0-.504.411-.915.915-.915h14.17c.504 0 .915.411.915.915v2.17c0 .504-.411.915-.915.915h-14.17c-.504 0-.915-.411-.915-.915zm2 5.085h12v12h-12zm-38 2c.712 0 1.386-.154 2-.424v3.424h-4v-3.424c.614.27 1.288.424 2 .424zm11.05-7c1.08.027 1.95.914 1.95 2s-.87 1.973-1.95 2l-6.245-.694c.114-.419.195-.851.195-1.306s-.081-.887-.195-1.306zm-11.05-1c1.654 0 3 1.346 3 3s-1.346 3-3 3-3-1.346-3-3 1.346-3 3-3zm-11.05 5c-1.08-.027-1.95-.914-1.95-2s.87-1.973 1.95-2l6.245.694c-.114.419-.195.851-.195 1.306s.081.887.195 1.306zm7.05 9c0-.551.449-1 1-1h6c.551 0 1 .449 1 1v4h-8zm-9 6h30v12h-30zm36 13.085c0 .504-.411.915-.915.915h-2.17c-.504 0-.915-.411-.915-.915v-14.17c0-.504.411-.915.915-.915h2.17c.504 0 .915.411.915.915zm45 0c0 .504-.411.915-.915.915h-2.17c-.504 0-.915-.411-.915-.915v-14.17c0-.504.411-.915.915-.915h2.17c.504 0 .915.411.915.915zm41-1.085h-39v-12h39z"/>
      <path
        d="m98 57c.462 0 .894-.113 1.285-.301l3.008 3.008c.195.195.451.293.707.293s.512-.098.707-.293c.391-.391.391-1.023 0-1.414l-3.008-3.008c.188-.391.301-.823.301-1.285 0-1.654-1.346-3-3-3-.462 0-.894.113-1.285.301l-3.008-3.008c-.391-.391-1.023-.391-1.414 0s-.391 1.023 0 1.414l3.008 3.008c-.188.391-.301.823-.301 1.285 0 1.654 1.346 3 3 3zm1-3c0 .551-.449 1-1 1s-1-.449-1-1 .449-1 1-1 1 .449 1 1z"/>
    </g>
  </g>
</svg>
