<svg height="24px"
     width="27px"
     viewBox="0 0 512 512" xmlns="http://www.w3.org/2000/svg">
  <path
    d="m128 119.464844h324.265625c32.992187 0 59.734375-26.742188 59.734375-59.730469 0-32.992187-26.742188-59.734375-59.734375-59.734375h-392.53125c-32.976563.0390625-59.6953125 26.757812-59.734375 59.734375v273.066406c.0390625 32.972657 26.757812 59.695313 59.734375 59.734375h102.398437c4.710938.003906 8.53125 3.820313 8.535157 8.53125v51.199219c-14.132813.015625-25.585938 11.46875-25.601563 25.601563v8.53125c.015625 14.132812 11.46875 25.585937 25.601563 25.601562h51.199219c14.132812-.015625 25.582031-11.46875 25.597656-25.601562v-8.53125c-.015625-14.132813-11.464844-25.585938-25.597656-25.601563v-51.199219c-.039063-32.972656-26.761719-59.695312-59.734376-59.734375h-102.398437c-4.710937-.003906-8.53125-3.820312-8.535156-8.53125v-273.066406c.003906-4.710937 3.824219-8.53125 8.535156-8.535156h392.53125c2.300781-.003907 4.503906.941406 6.085937 2.613281 1.585938 1.558594 2.46875 3.695312 2.449219 5.921875-.003906 4.710937-3.824219 8.527344-8.535156 8.53125h-324.265625c-32.976562.039063-59.695312 26.757813-59.734375 59.734375.039063 32.972656 26.761719 59.695312 59.734375 59.734375h324.265625c2.300781-.003906 4.503906.941406 6.085937 2.613281 1.585938 1.558594 2.46875 3.695313 2.449219 5.917969-.003906 4.710937-3.824219 8.53125-8.535156 8.535156h-324.265625c-32.976562.035157-59.695312 26.757813-59.734375 59.734375.039063 32.972656 26.761719 59.695313 59.734375 59.730469h324.265625c2.300781-.003906 4.503906.941406 6.085937 2.613281 1.585938 1.558594 2.46875 3.695313 2.449219 5.921875-.003906 4.710938-3.824219 8.527344-8.535156 8.53125h-93.867187c-32.972657.039063-59.695313 26.761719-59.730469 59.734375v51.199219c-14.132813.015625-25.585938 11.46875-25.601563 25.601563v8.53125c.015625 14.132812 11.46875 25.585937 25.601563 25.601562h51.199219c14.132812-.015625 25.582031-11.46875 25.597656-25.601562v-8.53125c-.015625-14.132813-11.464844-25.585938-25.597656-25.601563v-51.199219c.003906-4.710937 3.820312-8.527344 8.53125-8.53125h93.867187c32.976563-.039062 59.699219-26.761718 59.734375-59.734375-.039062-32.976562-26.757812-59.695312-59.734375-59.734375h-324.265625c-2.300781.003906-4.503906-.941406-6.082031-2.613281-1.585938-1.558594-2.472657-3.695313-2.453125-5.917969.007812-4.714844 3.824218-8.53125 8.535156-8.535156h324.265625c32.976563-.035156 59.699219-26.757812 59.734375-59.734375-.039062-32.972656-26.757812-59.695313-59.734375-59.730469h-324.265625c-2.300781.003906-4.503906-.941406-6.082031-2.613281-1.585938-1.5625-2.472657-3.699219-2.453125-5.921875.007812-4.710938 3.824218-8.527344 8.535156-8.535156zm102.398438 358.402344v8.53125c-.003907 4.710937-3.820313 8.53125-8.53125 8.535156h-51.199219c-4.710938-.003906-8.53125-3.824219-8.535157-8.535156v-8.53125c.003907-4.710938 3.824219-8.53125 8.535157-8.535157h51.199219c4.710937.003907 8.527343 3.824219 8.53125 8.535157zm128 0v8.53125c-.003907 4.710937-3.820313 8.53125-8.53125 8.535156h-51.199219c-4.710938-.003906-8.53125-3.824219-8.535157-8.535156v-8.53125c.003907-4.710938 3.824219-8.53125 8.535157-8.535157h51.199219c4.710937.003907 8.527343 3.824219 8.53125 8.535157zm-248.539063-331.875c4.761719 4.894531 11.3125 7.644531 18.140625 7.609374h324.265625c23.554687.027344 42.640625 19.113282 42.667969 42.664063-.039063 23.550781-19.117188 42.628906-42.667969 42.667969h-324.265625c-14.132812.015625-25.585938 11.46875-25.601562 25.601562.066406 14.109375 11.492187 25.53125 25.601562 25.597656h324.265625c23.554687.027344 42.640625 19.113282 42.667969 42.667969-.039063 23.546875-19.117188 42.628907-42.667969 42.664063h-93.867187c-14.128907.015625-25.582032 11.46875-25.597657 25.601562v51.199219h-17.066406v-51.199219c.027344-23.550781 19.113281-42.636718 42.664063-42.667968h93.867187c14.132813-.015626 25.585937-11.464844 25.601563-25.597657-.066407-14.113281-11.488282-25.535156-25.601563-25.601562h-324.265625c-23.550781-.027344-42.640625-19.113281-42.667969-42.664063.039063-23.550781 19.121094-42.632812 42.667969-42.667968h324.265625c14.132813-.015626 25.585937-11.46875 25.601563-25.601563-.066407-14.109375-11.488282-25.53125-25.601563-25.597656h-324.265625c-23.550781-.027344-42.640625-19.117188-42.667969-42.667969.039063-23.546875 19.121094-42.628906 42.667969-42.667969h324.265625c14.132813-.015625 25.585937-11.464843 25.601563-25.597656-.066407-14.113281-11.488282-25.535156-25.601563-25.601563h-392.53125c-14.132813.015626-25.585937 11.46875-25.601563 25.601563v273.066406c.015626 14.132813 11.46875 25.582031 25.601563 25.597657h102.398437c23.554688.03125 42.640626 19.117187 42.667969 42.667968v51.199219h-17.066406v-51.199219c-.015625-14.132812-11.46875-25.585937-25.601563-25.601562h-102.398437c-23.554687-.027344-42.640625-19.113282-42.667969-42.664063v-273.066406c.027344-23.554687 19.113282-42.640625 42.667969-42.667969h392.53125c23.566406 0 42.667969 19.101563 42.667969 42.667969 0 23.5625-19.101563 42.664063-42.667969 42.664063h-324.265625c-14.132812.015624-25.585938 11.46875-25.601562 25.601562-.050782 6.761719 2.640624 13.25 7.460937 17.992188zm0 0"/>
</svg>
