<svg
  height="24px"
  width="27px"
  id="Image" viewBox="0 0 64 64" xmlns="http://www.w3.org/2000/svg">
  <g>
    <path
      d="m59.708 34.349-9.708-9.728v-13.621c0-.552-.447-1-1-1h-6c-.553 0-1 .448-1 1v5.605l-9.292-9.311c-.375-.376-1.041-.376-1.416 0l-27 27.056c-.39.391-.39 1.022 0 1.413l2.938 2.944c.375.376 1.041.376 1.416 0l3.354-3.361v20.654c0 .552.447 1 1 1h38c.553 0 1-.448 1-1v-20.654l3.354 3.361c.39.391 1.026.391 1.416 0l2.938-2.944c.39-.391.39-1.023 0-1.414zm-15.708-22.349h4v10.617l-4-4.008zm6 43h-36v-21.658l18-18.038 18 18.038zm6.062-18.416-23.354-23.403c-.39-.391-1.026-.391-1.416 0l-23.354 23.403-1.525-1.529 25.587-25.639 25.587 25.64z"/>
    <path
      d="m29 35c0 4.38 3.992 4.69 3.992 8 0 .013.003.12.003.133.056 1.454-.81 2.816-2.57 4.048-1.095.766.073 2.389 1.146 1.639 1.618-1.132 3.525-3.05 3.421-5.819 0-4.38-3.992-4.69-3.992-8 0-.448.12-2.751 2.497-4.136 1.144-.667.135-2.396-1.006-1.729-3.323 1.935-3.491 5.224-3.491 5.864z"/>
    <path
      d="m39.992 43c0 .013.003.12.003.133.056 1.454-.81 2.816-2.57 4.048-1.084.759.063 2.395 1.146 1.639 1.618-1.132 3.525-3.05 3.421-5.819 0-4.38-3.992-4.69-3.992-8 0-.448.12-2.751 2.497-4.136 1.145-.667.134-2.396-1.006-1.729-3.323 1.935-3.491 5.224-3.491 5.864 0 4.38 3.992 4.69 3.992 8z"/>
    <path
      d="m24 35c0-.448.12-2.751 2.497-4.136 1.145-.667.134-2.396-1.006-1.729-3.323 1.936-3.491 5.225-3.491 5.865 0 4.38 3.992 4.69 3.992 8 0 .013.003.12.003.133.056 1.454-.81 2.816-2.57 4.048-1.095.766.073 2.389 1.146 1.639 1.618-1.132 3.525-3.05 3.421-5.819 0-4.381-3.992-4.691-3.992-8.001z"/>
  </g>
</svg>
