<svg id="Capa_1" enable-background="new 0 0 512.001 512.001" height="512" viewBox="0 0 512.001 512.001" width="512" xmlns="http://www.w3.org/2000/svg"><g><path d="m7.505 178.303h16.594c13.404 0 26.155-4.443 35.903-12.511 3.68-3.045 8.344-4.723 13.132-4.723 1.324 0 2.647.126 3.935.376 6.864 1.33 13.774-1.662 17.608-7.624 5.831-9.066 15.733-14.479 26.488-14.479.936 0 1.88.042 2.808.124 6.553.582 12.769-2.445 16.229-7.894 8.514-13.405 23.063-21.408 38.919-21.408 2.392 0 4.803.188 7.164.56 6.08.958 12.214-1.402 16.012-6.153 8.804-11.018 21.924-17.337 35.995-17.337 10.795 0 21.293 3.818 29.56 10.751 4.856 4.073 11.491 5.188 17.314 2.908 6.085-2.382 12.506-3.59 19.082-3.59 12.886 0 25.278 4.716 34.894 13.279 4.824 4.294 11.831 5.475 17.854 3.005 5.539-2.271 11.407-3.422 17.442-3.422 15.811 0 30.338 7.977 38.859 21.336 3.133 4.912 8.603 7.842 14.683 7.842h.027c10.471 0 20.229 5.188 26.102 13.876 10.617 15.707 28.637 25.083 48.201 25.083h2.188c4.142 0 7.5-3.358 7.5-7.5s-3.358-7.5-7.5-7.5h-2.188c-14.577 0-27.95-6.91-35.774-18.484-8.667-12.821-23.07-20.476-38.597-20.476-.002 0-.003 0-.005 0-.87 0-1.632-.348-1.99-.908-11.291-17.702-30.545-28.271-51.506-28.271-7.996 0-15.779 1.529-23.133 4.543-.757.311-1.615.182-2.189-.329-12.366-11.012-28.3-17.076-44.869-17.076-8.455 0-16.714 1.555-24.549 4.622-.701.275-1.568.104-2.208-.433-10.964-9.194-24.885-14.258-39.199-14.258-18.656 0-36.047 8.374-47.713 22.974-.435.544-1.205.817-1.961.7-3.13-.493-6.325-.743-9.496-.743-4.89 0-9.684.581-14.307 1.686-19.748-30.579-59.308-41.943-92.592-25.71-1.466.715-2.923 1.487-4.329 2.293-3.593 2.061-4.836 6.644-2.775 10.237 2.06 3.593 6.644 4.836 10.237 2.775 1.117-.64 2.275-1.254 3.442-1.823 25.401-12.386 55.404-4.518 71.588 17.691-9.156 4.879-17.055 12.103-22.845 21.217-.442.696-1.308 1.075-2.246.994-1.366-.121-2.755-.182-4.13-.182-15.882 0-30.501 7.987-39.104 21.365-.487.758-1.345 1.165-2.137 1.012-2.226-.432-4.51-.65-6.79-.65-7.508-.111-17.14 3.257-23.535 8.829-5.237-15.334-3.791-32.327 4.226-46.683 2.02-3.616.725-8.185-2.892-10.205-3.616-2.018-8.186-.725-10.205 2.892-10.438 18.692-12.038 40.935-4.641 60.756-3.815 1.077-7.851 1.645-11.989 1.645h-16.592c-4.142 0-7.5 3.358-7.5 7.5s3.358 7.501 7.5 7.501z"/><path d="m504.499 193.303h-115.391c-4.142 0-7.5 3.358-7.5 7.5s3.358 7.5 7.5 7.5h115.392c4.142 0 7.5-3.358 7.5-7.5s-3.359-7.5-7.501-7.5z"/><path d="m7.505 208.303h346.603c4.142 0 7.5-3.358 7.5-7.5s-3.358-7.5-7.5-7.5h-346.603c-4.142 0-7.5 3.358-7.5 7.5s3.358 7.5 7.5 7.5z"/><path d="m504.499 433.251h-54.669c-9.08 0-16.467-7.387-16.467-16.467 0-9.081 7.387-16.468 16.467-16.468 1.326 0 2.657.162 3.957.481 2.001.492 4.122.138 5.857-.98 1.734-1.119 2.931-2.903 3.308-4.932 1.976-10.638 11.275-18.358 22.112-18.358 5.34 0 10.517 1.903 14.576 5.359 3.154 2.685 7.888 2.305 10.573-.849s2.305-7.888-.849-10.573c-6.77-5.763-15.399-8.937-24.299-8.937-15.65 0-29.378 9.668-34.91 23.791-.108-.001-.216-.001-.324-.001-17.351 0-31.467 14.116-31.467 31.468 0 6.034 1.71 11.674 4.667 16.467h-36.946c-15.65 0-28.382-12.732-28.382-28.383 0-14.029 10.037-25.813 23.865-28.021 3.208-.512 5.722-3.032 6.227-6.241 2.88-18.322 18.457-31.621 37.038-31.621 5.939 0 11.631 1.358 16.917 4.036 3.163 1.604 7.014.772 9.235-1.991 4.943-6.149 12.292-9.675 20.16-9.675 19.458 0 25.928 11.404 26.602 12.705 1.904 3.678 6.429 5.114 10.109 3.209 3.678-1.905 5.115-6.432 3.209-10.109-1.103-2.129-11.596-20.804-39.92-20.804-4.775 0-9.424.83-13.786 2.39l-49.34-81.226h33.16l57.851 61.723c1.477 1.575 3.473 2.371 5.474 2.371 1.838 0 3.681-.672 5.127-2.028 3.022-2.833 3.176-7.579.343-10.601l-48.237-51.465h42.765c4.142 0 7.5-3.358 7.5-7.5s-3.358-7.5-7.5-7.5h-496.997c-4.142 0-7.5 3.358-7.5 7.5s3.358 7.5 7.5 7.5h42.764l-48.236 51.464c-2.833 3.022-2.679 7.769.343 10.601 1.447 1.356 3.289 2.028 5.127 2.028 2.001 0 3.998-.796 5.474-2.371l57.851-61.723h33.16l-49.34 81.226c-4.363-1.561-9.012-2.39-13.786-2.39-28.782 0-38.951 18.842-40.016 20.99-1.839 3.711-.322 8.211 3.39 10.051 3.711 1.838 8.211.321 10.051-3.39.256-.517 6.5-12.651 26.576-12.651 7.868 0 15.216 3.527 20.16 9.676 2.221 2.763 6.074 3.592 9.235 1.99 5.285-2.678 10.977-4.036 16.917-4.036 18.58 0 34.157 13.298 37.038 31.621.505 3.209 3.019 5.729 6.227 6.241 13.829 2.208 23.865 13.993 23.865 28.021 0 15.65-12.732 28.383-28.383 28.383h-31.084c1.73-3.534 2.704-7.502 2.704-11.694 0-11.418-7.074-21.256-17.414-25.044-4.164-12.834-16.084-21.709-30.006-21.709-.936 0-1.872.042-2.806.127-6.326-8.169-16.113-13.063-26.651-13.063-5.955 0-11.812 1.576-16.936 4.558-3.58 2.083-4.793 6.674-2.71 10.254 2.083 3.581 6.675 4.793 10.254 2.71 2.836-1.65 6.083-2.522 9.391-2.522 6.895 0 13.213 3.777 16.488 9.858 1.657 3.077 5.217 4.601 8.591 3.675 1.442-.396 2.915-.598 4.377-.598 8.21 0 15.093 5.875 16.366 13.968.505 3.209 3.019 5.729 6.227 6.241 5.694.909 9.828 5.764 9.828 11.544 0 6.448-5.246 11.694-11.694 11.694h-63.342c-4.142 0-7.5 3.358-7.5 7.5s3.358 7.5 7.5 7.5h496.994c4.142 0 7.5-3.358 7.5-7.5s-3.358-7.5-7.5-7.5zm-345.811 0c6.604-7.614 10.615-17.536 10.615-28.383 0-5.201-.911-10.196-2.581-14.833.863-.138 1.736-.233 2.628-.233 8.211 0 15.094 5.875 16.366 13.968.505 3.209 3.019 5.729 6.227 6.241 5.694.909 9.827 5.764 9.827 11.544 0 6.448-5.246 11.694-11.694 11.694h-31.388zm57.869-14.948h89.144 39.139c1.816 5.56 4.726 10.625 8.475 14.948h-139.248c1.73-3.534 2.704-7.502 2.704-11.694 0-1.103-.085-2.185-.214-3.254zm126.176-15h-30.314l-4.46-40.384c-.455-4.117-4.158-7.084-8.278-6.631-4.117.455-7.086 4.161-6.631 8.278l4.278 38.738h-82.651l18.31-165.783h46.032l10.209 92.435c.424 3.837 3.672 6.677 7.445 6.677.275 0 .553-.015.833-.046 4.117-.455 7.086-4.161 6.631-8.278l-10.027-90.788h45.677l38.171 115.206c-1.651 3.287-2.977 6.783-3.926 10.454-17.945 5.122-30.635 21.15-31.299 40.122zm101.675-76.978c-.379.329-.757.66-1.125 1.004-5.881-2.221-12.065-3.343-18.453-3.343-13.851 0-26.504 5.288-35.922 14.101l-33.32-100.566h34.877zm-306.434 36.855c-.949-3.672-2.275-7.168-3.927-10.455l14.122-42.621c1.303-3.932-.828-8.175-4.76-9.478-3.935-1.305-8.176.829-9.478 4.76l-10.835 32.7c-9.419-8.813-22.072-14.101-35.922-14.101-6.388 0-12.572 1.122-18.453 3.343-.368-.344-.746-.675-1.125-1.004l53.943-88.805h34.878l-11.478 34.641c-1.303 3.932.828 8.175 4.76 9.479.783.259 1.578.382 2.36.382 3.145 0 6.075-1.994 7.119-5.143l13.041-39.359h45.677l-17.797 161.017s-.446-1.355-.74-2.024c-4.164-12.834-16.084-21.709-30.007-21.709-3.61 0-7.109.605-10.453 1.785-5.392-6.289-12.588-11.028-20.925-13.408z"/></g></svg>