<svg id="Layer_1" enable-background="new 0 0 512 512"
     height="20px"
     width="24px"     viewBox="0 0 512 512"
     xmlns="http://www.w3.org/2000/svg">
  <g>
    <path d="m68 272.5h376v202h-376z" fill="#fff6f0"/>
    <path d="m414 272.5h30v202h-30z" fill="#f0e7dd"/>
    <path d="m126.5 322.5h258v152h-258z" fill="#29cef6"/>
    <path d="m126.5 322.5h50v152h-50z" fill="#8cf2ff"/>
    <path d="m334.5 322.5h50v152h-50z" fill="#8cf2ff"/>
    <path d="m470 272.5h-428l32.986-125h362.028z" fill="#f74f68"/>
    <path d="m437.014 147.5h-30l32.986 125h30z" fill="#e83a53"/>
    <path
      d="m489.5 504.5h-467c-8.284 0-15-6.716-15-15 0-8.284 6.716-15 15-15h467c8.284 0 15 6.716 15 15 0 8.284-6.716 15-15 15z"
      fill="#ffd54f"/>
    <path d="m489.5 474.5h-30c8.284 0 15 6.716 15 15s-6.716 15-15 15h30c8.284 0 15-6.716 15-15s-6.716-15-15-15z"
          fill="#ffc328"/>
    <path
      d="m359 217.5h-206c-2.209 0-4-1.791-4-4v-202c0-2.209 1.791-4 4-4h206c2.209 0 4 1.791 4 4v202c0 2.209-1.791 4-4 4z"
      fill="#fff6f0"/>
    <path d="m359 7.5h-30c2.209 0 4 1.791 4 4v202c0 2.209-1.791 4-4 4h30c2.209 0 4-1.791 4-4v-202c0-2.209-1.791-4-4-4z"
          fill="#f0e7dd"/>
    <path
      d="m303.143 90.714h-25c-1.578 0-2.857-1.279-2.857-2.857v-25c0-1.578-1.279-2.857-2.857-2.857h-32.857c-1.578 0-2.857 1.279-2.857 2.857v25c0 1.578-1.279 2.857-2.857 2.857h-25c-1.578 0-2.857 1.279-2.857 2.857v32.857c0 1.578 1.279 2.857 2.857 2.857h25c1.578 0 2.857 1.279 2.857 2.857v25c0 1.578 1.279 2.857 2.857 2.857h32.857c1.578 0 2.857-1.279 2.857-2.857v-25c0-1.578 1.279-2.857 2.857-2.857h25c1.578 0 2.857-1.279 2.857-2.857v-32.857c0-1.578-1.279-2.857-2.857-2.857z"
      fill="#7be492"/>
    <g>
      <path
        d="m489.5 467h-38v-187h18.5c2.327 0 4.521-1.08 5.941-2.923s1.904-4.241 1.311-6.491l-32.99-125c-.869-3.292-3.847-5.586-7.252-5.586h-66.51v-128.5c0-6.341-5.159-11.5-11.5-11.5h-37.692c-4.143 0-7.5 3.358-7.5 7.5s3.357 7.5 7.5 7.5h34.192v195h-199v-195h131.27c4.143 0 7.5-3.358 7.5-7.5s-3.357-7.5-7.5-7.5h-134.77c-6.341 0-11.5 5.159-11.5 11.5v128.5h-66.51c-3.405 0-6.383 2.294-7.252 5.586l-32.99 125c-.594 2.25-.109 4.648 1.311 6.491s3.614 2.923 5.941 2.923h18.5v7.564c0 4.142 3.357 7.5 7.5 7.5s7.5-3.358 7.5-7.5v-7.564h361v187h-44.5v-144.5c0-4.142-3.357-7.5-7.5-7.5h-258c-4.143 0-7.5 3.358-7.5 7.5v144.5h-43.5v-147.231c0-4.142-3.357-7.5-7.5-7.5s-7.5 3.358-7.5 7.5v147.231h-38c-12.406 0-22.5 10.093-22.5 22.5s10.094 22.5 22.5 22.5h362c4.143 0 7.5-3.358 7.5-7.5s-3.357-7.5-7.5-7.5h-362c-4.136 0-7.5-3.364-7.5-7.5s3.364-7.5 7.5-7.5h467c4.136 0 7.5 3.364 7.5 7.5s-3.364 7.5-7.5 7.5h-73.423c-4.143 0-7.5 3.358-7.5 7.5s3.357 7.5 7.5 7.5h73.423c12.406 0 22.5-10.093 22.5-22.5s-10.094-22.5-22.5-22.5zm-437.764-202 29.031-110h60.733v58.5c0 6.341 5.159 11.5 11.5 11.5h206c6.341 0 11.5-5.159 11.5-11.5v-58.5h60.732l29.031 110zm275.264 65v137h-143v-137zm-193 137v-137h35v137zm208 0v-137h35v137z"/>
      <path
        d="m282.786 62.857c0-5.711-4.646-10.357-10.357-10.357h-32.857c-5.711 0-10.357 4.646-10.357 10.357v20.357h-20.356c-5.711 0-10.357 4.646-10.357 10.357v32.857c0 5.711 4.646 10.357 10.357 10.357h20.356v20.357c0 5.711 4.646 10.357 10.357 10.357h32.857c5.711 0 10.357-4.646 10.357-10.357v-20.357h20.356c5.711 0 10.357-4.646 10.357-10.357v-32.857c0-5.711-4.646-10.357-10.357-10.357h-20.356zm15.714 35.357v23.571h-20.357c-5.711 0-10.356 4.646-10.356 10.357v20.358h-23.572v-20.357c0-5.711-4.646-10.357-10.356-10.357h-20.359v-23.572h20.357c5.711 0 10.356-4.646 10.356-10.357v-20.357h23.572v20.357c0 5.711 4.646 10.357 10.356 10.357z"/>
    </g>
  </g>
</svg>
