<svg id="Layer_1" enable-background="new 0 0 512 512" height="512" viewBox="0 0 512 512" width="512" xmlns="http://www.w3.org/2000/svg"><path d="m378.212 165.885 2.786-23.57-113.685 113.685 113.686 113.686-2.786-23.571c-.519-4.388 2.618-8.365 7.006-8.884 4.386-.514 8.365 2.618 8.884 7.006l5.494 46.475c.288 2.433-.556 4.863-2.288 6.596-1.509 1.509-3.548 2.343-5.656 2.343-.312 0-.625-.018-.939-.055l-46.476-5.493c-4.388-.519-7.524-4.496-7.006-8.884s4.49-7.525 8.884-7.006l23.57 2.786-113.686-113.686-113.686 113.686 23.571-2.786c4.385-.515 8.365 2.618 8.884 7.006s-2.618 8.365-7.006 8.884l-46.475 5.494c-.313.037-.627.055-.939.055-2.109 0-4.147-.834-5.656-2.343-1.732-1.732-2.576-4.163-2.288-6.596l5.493-46.475c.519-4.388 4.487-7.527 8.884-7.006 4.388.519 7.524 4.496 7.006 8.884l-2.786 23.57 113.684-113.686-113.685-113.685 2.786 23.571c.519 4.388-2.618 8.365-7.006 8.884-.318.038-.636.056-.949.056-3.999 0-7.454-2.992-7.935-7.062l-5.494-46.475c-.288-2.433.556-4.863 2.288-6.596 1.732-1.731 4.163-2.573 6.596-2.288l46.476 5.493c4.388.519 7.524 4.496 7.006 8.884-.519 4.387-4.494 7.522-8.884 7.006l-23.57-2.786 113.685 113.684 113.685-113.685-23.57 2.786c-4.386.521-8.365-2.618-8.884-7.006s2.618-8.365 7.006-8.884l46.475-5.494c2.432-.291 4.863.555 6.596 2.288 1.732 1.732 2.576 4.163 2.288 6.596l-5.493 46.475c-.481 4.069-3.937 7.062-7.935 7.062-.313 0-.63-.018-.949-.056-4.388-.518-7.525-4.495-7.007-8.883zm-294.75-157.885v67.462c0 4.418-3.582 8-8 8h-67.462c-4.418 0-8-3.582-8-8v-67.462c0-4.418 3.582-8 8-8h67.462c4.419 0 8 3.582 8 8zm-16 8h-51.462v51.462h51.462zm16 420.538v67.462c0 4.418-3.582 8-8 8h-67.462c-4.418 0-8-3.582-8-8v-67.462c0-4.418 3.582-8 8-8h67.462c4.419 0 8 3.581 8 8zm-16 8h-51.462v51.462h51.462zm444.538-436.538v67.462c0 4.418-3.582 8-8 8h-67.462c-4.418 0-8-3.582-8-8v-67.462c0-4.418 3.582-8 8-8h67.462c4.418 0 8 3.582 8 8zm-16 8h-51.462v51.462h51.462zm16 420.538v67.462c0 4.418-3.582 8-8 8h-67.462c-4.418 0-8-3.582-8-8v-67.462c0-4.418 3.582-8 8-8h67.462c4.418 0 8 3.581 8 8zm-16 8h-51.462v51.462h51.462zm-388.468-394.807h33.731c4.418 0 8-3.582 8-8s-3.582-8-8-8h-33.731c-4.418 0-8 3.582-8 8s3.582 8 8 8zm65.801 0h33.731c4.418 0 8-3.582 8-8s-3.582-8-8-8h-33.731c-4.418 0-8 3.582-8 8s3.582 8 8 8zm65.801 0h33.731c4.418 0 8-3.582 8-8s-3.582-8-8-8h-33.731c-4.418 0-8 3.582-8 8s3.582 8 8 8zm65.802 0h33.731c4.418 0 8-3.582 8-8s-3.582-8-8-8h-33.731c-4.418 0-8 3.582-8 8s3.581 8 8 8zm99.532-16h-33.731c-4.418 0-8 3.582-8 8s3.582 8 8 8h33.731c4.418 0 8-3.582 8-8s-3.582-8-8-8zm-263.204 428.538h-33.731c-4.418 0-8 3.582-8 8s3.582 8 8 8h33.731c4.418 0 8-3.582 8-8s-3.582-8-8-8zm65.8 0h-33.731c-4.418 0-8 3.582-8 8s3.582 8 8 8h33.731c4.418 0 8-3.582 8-8s-3.581-8-8-8zm65.802 0h-33.731c-4.418 0-8 3.582-8 8s3.582 8 8 8h33.731c4.418 0 8-3.582 8-8s-3.582-8-8-8zm65.801 0h-33.731c-4.418 0-8 3.582-8 8s3.582 8 8 8h33.731c4.418 0 8-3.582 8-8s-3.582-8-8-8zm65.801 0h-33.731c-4.418 0-8 3.582-8 8s3.582 8 8 8h33.731c4.418 0 8-3.582 8-8s-3.582-8-8-8zm65.801-313.005c4.418 0 8-3.582 8-8v-33.731c0-4.418-3.582-8-8-8s-8 3.582-8 8v33.731c0 4.418 3.582 8 8 8zm-8 57.8c0 4.418 3.582 8 8 8s8-3.582 8-8v-33.731c0-4.418-3.582-8-8-8s-8 3.582-8 8zm0 65.802c0 4.418 3.582 8 8 8s8-3.582 8-8v-33.731c0-4.418-3.582-8-8-8s-8 3.582-8 8zm0 65.801c0 4.418 3.582 8 8 8s8-3.582 8-8v-33.731c0-4.418-3.582-8-8-8s-8 3.582-8 8zm0 65.801c0 4.418 3.582 8 8 8s8-3.582 8-8v-33.731c0-4.418-3.582-8-8-8s-8 3.582-8 8zm-420.538-255.204c4.418 0 8-3.582 8-8v-33.731c0-4.418-3.582-8-8-8s-8 3.582-8 8v33.731c0 4.418 3.582 8 8 8zm-8 57.8c0 4.418 3.582 8 8 8s8-3.582 8-8v-33.731c0-4.418-3.582-8-8-8s-8 3.582-8 8zm0 65.802c0 4.418 3.582 8 8 8s8-3.582 8-8v-33.731c0-4.418-3.582-8-8-8s-8 3.582-8 8zm0 65.801c0 4.418 3.582 8 8 8s8-3.582 8-8v-33.731c0-4.418-3.582-8-8-8s-8 3.582-8 8zm0 65.801c0 4.418 3.582 8 8 8s8-3.582 8-8v-33.731c0-4.418-3.582-8-8-8s-8 3.582-8 8z"/></svg>