<svg fill="none" height="512" viewBox="0 0 24 24" width="512" xmlns="http://www.w3.org/2000/svg"><g clip-rule="evenodd" fill="rgb(0,0,0)" fill-rule="evenodd"><path d="m12 2.25c-5.381 0-9.75 4.369-9.75 9.75s4.369 9.75 9.75 9.75 9.75-4.369 9.75-9.75-4.369-9.75-9.75-9.75zm0 1.5c4.553 0 8.25 3.697 8.25 8.25s-3.697 8.25-8.25 8.25-8.25-3.697-8.25-8.25 3.697-8.25 8.25-8.25z"/><path d="m10.25 13.75h2.75c.862 0 1.689-.342 2.298-.952.61-.609.952-1.436.952-2.298s-.342-1.689-.952-2.298c-.609-.61-1.436-.952-2.298-.952-1.647 0-3.5 0-3.5 0-.414 0-.75.336-.75.75v8c0 .414.336.75.75.75s.75-.336.75-.75zm0-1.5h2.75c.464 0 .909-.184 1.237-.513.329-.328.513-.773.513-1.237s-.184-.909-.513-1.237c-.328-.329-.773-.513-1.237-.513h-2.75z"/></g></svg>