<svg id="Capa_1" enable-background="new 0 0 512 512"
     viewBox="0 0 512 512"
     height="20px"
     width="24px"     xmlns="http://www.w3.org/2000/svg">
  <g fill="#8d9ca8">
    <path
      d="m181.824 465.159c-4.143 0-7.5-4.212-7.5-9.408v-32.677c0-5.196 3.357-9.408 7.5-9.408s7.5 4.212 7.5 9.408v32.677c0 5.196-3.357 9.408-7.5 9.408z"/>
    <path
      d="m333.477 465.159c-4.143 0-7.5-4.212-7.5-9.408v-32.677c0-5.196 3.357-9.408 7.5-9.408s7.5 4.212 7.5 9.408v32.677c0 5.196-3.358 9.408-7.5 9.408z"/>
    <path
      d="m193.488 410.253c-4.143 0-7.5-3.988-7.5-8.908v-30.941c0-4.92 3.357-8.908 7.5-8.908s7.5 3.988 7.5 8.908v30.941c0 4.92-3.357 8.908-7.5 8.908z"/>
    <path
      d="m321.813 410.253c-4.143 0-7.5-3.988-7.5-8.908v-30.941c0-4.92 3.357-8.908 7.5-8.908s7.5 3.988 7.5 8.908v30.941c0 4.92-3.358 8.908-7.5 8.908z"/>
  </g>
  <ellipse cx="102.55" cy="273.443" fill="#46cc8d" rx="92.594" ry="92.594"
           transform="matrix(.707 -.707 .707 .707 -163.317 152.604)"/>
  <path
    d="m102.55 180.849c-5.108 0-10.117.42-15 1.216 44.004 7.169 77.595 45.348 77.595 91.379s-33.59 84.21-77.595 91.379c4.883.796 9.892 1.216 15 1.216 51.138 0 92.595-41.456 92.595-92.594 0-51.14-41.456-92.596-92.595-92.596z"
    fill="#00c27a"/>
  <path
    d="m134.924 262.666c-2.93-2.929-7.678-2.929-10.607 0l-15.305 15.305v-19.574c0-4.142-3.357-7.5-7.5-7.5s-7.5 3.358-7.5 7.5v45.091l-14.427-14.428c-2.93-2.929-7.678-2.93-10.607 0-2.929 2.929-2.929 7.678 0 10.606l25.034 25.035v97.133c0 4.142 3.357 7.5 7.5 7.5s7.5-3.358 7.5-7.5v-122.649l25.912-25.913c2.929-2.928 2.929-7.677 0-10.606z"
    fill="#855151"/>
  <path
    d="m210.378 84.364h-24.271c-1.977-11.032-11.615-19.406-23.216-19.406-4.38 0-8.477 1.198-11.992 3.277-5.064-8.693-14.479-14.54-25.264-14.54-4.402 0-8.572.979-12.316 2.722-6.277-7.774-15.88-12.75-26.649-12.75-18.91 0-34.24 15.33-34.24 34.24 0 .468.009.939.028 1.411.638 16.203 14.35 28.83 30.566 28.83h64.322 32.107 31.319c6.642 0 12.012-5.445 11.89-12.115-.119-6.547-5.736-11.669-12.284-11.669z"
    fill="#26a6fe"/>
  <path
    d="m210.378 84.364h-24.271c-1.977-11.032-11.615-19.406-23.216-19.406-4.38 0-8.477 1.198-11.992 3.277-5.064-8.693-14.479-14.54-25.264-14.54-4.402 0-8.572.979-12.316 2.722-6.277-7.774-15.88-12.75-26.649-12.75-14.298 0-26.544 8.767-31.669 21.217 4.015-1.653 8.411-2.571 13.023-2.571 7.155 0 13.796 2.197 19.288 5.951 4.884 3.339 10.76 4.843 16.645 4.233.997-.103 2.008-.156 3.032-.156 6.942 0 13.316 2.422 18.327 6.466 4.715 3.805 10.731 5.446 16.764 4.896.713-.065 1.435-.098 2.165-.098 7.872 0 14.84 3.856 19.124 9.782 4.464 6.174 11.794 9.624 19.413 9.624h8.949c4.108 0 7.848 2.018 10.096 5.137h8.945c6.642 0 12.012-5.445 11.89-12.115-.119-6.547-5.736-11.669-12.284-11.669z"
    fill="#0593fc"/>
  <path
    d="m503.537 409.367c0 49.075-21.608 49.783-48.263 49.783s-48.263-.709-48.263-49.783 21.608-126.671 48.263-126.671c26.655-.001 48.263 77.596 48.263 126.671z"
    fill="#08b865"/>
  <path
    d="m455.274 282.695c-5.237 0-10.278 3.006-15 8.192 19.31 21.21 33.263 79.047 33.263 118.479s-13.952 47.636-33.263 49.338c4.722.416 9.763.445 15 .445 26.655 0 48.263-.709 48.263-49.783s-21.608-126.671-48.263-126.671z"
    fill="#09a755"/>
  <path
    d="m448.118 409.367c0 49.075-21.608 49.783-48.263 49.783s-48.263-.709-48.263-49.783 21.608-126.671 48.263-126.671c26.655-.001 48.263 77.596 48.263 126.671z"
    fill="#46cc8d"/>
  <path
    d="m399.855 282.695c-5.237 0-10.278 3.006-15 8.192 19.31 21.21 33.263 79.047 33.263 118.479s-13.953 47.636-33.263 49.338c4.722.416 9.763.445 15 .445 26.655 0 48.263-.709 48.263-49.783s-21.608-126.671-48.263-126.671z"
    fill="#00c27a"/>
  <path
    d="m122.569 420.53c-4.162-.456-8.132.157-11.692 1.579-5.209-6.142-12.978-10.046-21.663-10.046-4.113 0-8.019.882-11.548 2.455-6.477-12.126-19.512-20.22-34.371-19.532-18.975.879-34.382 16.368-35.168 35.348-.512 12.356 5.053 23.429 13.943 30.5h115.808c4.219-4.685 6.639-11.022 6.165-17.925-.795-11.581-9.935-21.115-21.474-22.379z"
    fill="#6ed5a1"/>
  <path
    d="m122.568 420.53c-4.161-.456-8.132.157-11.691 1.579-5.209-6.142-12.978-10.045-21.663-10.045-4.114 0-8.019.882-11.548 2.455-6.22-11.646-18.49-19.573-32.615-19.573-13.867 0-25.943 7.642-32.265 18.94 2.659-.608 5.422-.94 8.265-.94 11.04 0 20.946 4.842 27.717 12.518 3.22 3.65 8.085 5.422 12.914 4.819 1.157-.144 2.335-.219 3.532-.219 6.272 0 12.067 2.036 16.765 5.481 3.183 2.334 7.073 3.479 10.993 3.009.948-.113 1.913-.172 2.892-.172 12.785 0 23.251 9.901 24.166 22.453h17.848c4.219-4.685 6.64-11.023 6.165-17.926-.796-11.581-9.936-21.115-21.475-22.379z"
    fill="#46cc8d"/>
  <path
    d="m360.827 341.878-104.827 10-104.827-10c-6.21 0-11.245-5.035-11.245-11.245v-8.481c0-6.211 5.035-11.245 11.245-11.245h209.653c6.211 0 11.245 5.035 11.245 11.245v8.481c.001 6.211-5.034 11.245-11.244 11.245z"
    fill="#9b5e5e"/>
  <path
    d="m360.827 372.85h-209.653c-6.21 0-11.245-5.035-11.245-11.245v-8.481c0-6.211 5.035-11.245 11.245-11.245h209.653c6.211 0 11.245 5.035 11.245 11.245v8.482c0 6.209-5.035 11.244-11.245 11.244z"
    fill="#704444"/>
  <path
    d="m377.485 428.434h-242.97c-5.095 0-9.225-4.13-9.225-9.225v-11.083c0-5.095 4.13-9.225 9.225-9.225h242.971c5.095 0 9.225 4.13 9.225 9.225v11.083c0 5.094-4.131 9.225-9.226 9.225z"
    fill="#ae6c6c"/>
  <path
    d="m425.831 172.298h-20.564c-4.624-7.895-13.189-13.201-22.999-13.201-1.16 0-2.294.099-3.415.243-3.49-21.806-22.381-38.47-45.171-38.47-22.714 0-41.553 16.555-45.132 38.255-14.454.299-26.085 12.087-26.085 26.613 0 .062 0 .123.001.185.062 8.988 7.57 16.154 16.558 16.154h67.393 56.862 22.551c8.223 0 14.889-6.666 14.889-14.889.001-8.224-6.665-14.89-14.888-14.89z"
    fill="#8ac9fe"/>
  <path
    d="m425.41 172.298h-20.144c-4.624-7.895-13.189-13.201-22.999-13.201-1.16 0-2.294.099-3.415.243-3.49-21.806-22.381-38.47-45.171-38.47-17.791 0-33.202 10.158-40.768 24.988 6.233-3.184 13.288-4.988 20.768-4.988 21.628 0 39.746 15.009 44.519 35.178.436 1.842 2.139 3.052 4.032 3.049h.035c9.068 0 17.073 4.534 21.884 11.455.757 1.09 1.992 1.745 3.319 1.745h18.36c6.425 0 11.883 4.077 13.97 9.779h6.03c8.462 0 15.275-7.059 14.872-15.609-.376-8.007-7.274-14.169-15.292-14.169z"
    fill="#60b7ff"/>
  <path
    d="m504.5 468.334h-497c-4.143 0-7.5-3.358-7.5-7.5s3.357-7.5 7.5-7.5h497c4.143 0 7.5 3.358 7.5 7.5s-3.357 7.5-7.5 7.5z"
    fill="#855151"/>
</svg>
