<?xml version="1.0" encoding="UTF-8"?>
<svg xmlns="http://www.w3.org/2000/svg" id="Layer_3" data-name="Layer 3" viewBox="0 0 64 64" width="512" height="512"><path d="M26,5H14a1,1,0,0,0-1,1v6a1,1,0,0,0,1,1H26a1,1,0,0,0,1-1V6A1,1,0,0,0,26,5Zm-1,6H15V7H25Z"/><path d="M15,55h8a1,1,0,0,0,1-1V24a1,1,0,0,0-1-1H15a1,1,0,0,0-1,1V54A1,1,0,0,0,15,55Zm1-2V40h6V53Zm6-28V38H16V25Z"/><path d="M27,39H37a1,1,0,0,0,1-1V24a1,1,0,0,0-1-1H27a1,1,0,0,0-1,1V38A1,1,0,0,0,27,39Zm1-14h8V37H28Z"/><path d="M41,55h8a1,1,0,0,0,1-1V24a1,1,0,0,0-1-1H41a1,1,0,0,0-1,1V54A1,1,0,0,0,41,55Zm1-2V40h6V53Zm6-28V38H42V25Z"/><rect x="29" y="47" width="2" height="4"/><path d="M63.008,50a4,4,0,0,0-6.831-2.819A3.923,3.923,0,0,0,54,47.141V21h3a1,1,0,0,0,1-1V16a1,1,0,0,0-1-1H55V8a1,1,0,0,0-1-1H31V2a1,1,0,0,0-1-1H10A1,1,0,0,0,9,2V15H8a1,1,0,0,0-1,1v4a1,1,0,0,0,1,1h2V47.137a3.894,3.894,0,0,0-2.169.045,3.991,3.991,0,0,0-6.586,4.181A.983.983,0,0,0,1,52V62a1,1,0,0,0,1,1H62a1,1,0,0,0,1-1V58h.008V52a.988.988,0,0,0-.245-.637A4,4,0,0,0,63.008,50Zm-7.026-.73a1,1,0,0,0,1.34-.334A1.994,1.994,0,0,1,60.735,51H54V49.3A1.951,1.951,0,0,1,55.982,49.27ZM61.008,57H54V53h7.008ZM53,15H49V9h4ZM37,15V9h4v6Zm6-6h4v6H43ZM35,9v6H31V9ZM11,3H29V15H11ZM9,19V17H56v2Zm43,2V57H38V42a1,1,0,0,0-1-1H27a1,1,0,0,0-1,1V57H12V21ZM36,57H28V43h8ZM10,53v4H3V53ZM5,48a1.99,1.99,0,0,1,1.685.935,1,1,0,0,0,1.338.335A1.956,1.956,0,0,1,10,49.292V51H3.272A1.994,1.994,0,0,1,5,48ZM61,61H3V59H61Z"/></svg>
