<svg id="Capa_1" enable-background="new 0 0 512 512"
     viewBox="0 0 512 512"
     height="20px"
     width="24px"     xmlns="http://www.w3.org/2000/svg">
  <path d="m444.013 130.02h-376.464l-34.321 174.504h445.107z" fill="#60b8fe"/>
  <path d="m67.549 130.02-34.321 174.504h46.534l34.322-174.504z" fill="#23a8fe"/>
  <path
    d="m39.35 302.937c-2.172 0-3.804-1.984-3.385-4.115l32.341-164.432c.318-1.617 1.736-2.784 3.385-2.784h176.301c12.012-12.694 26.056-23.444 41.613-31.728h-233.799c-7.581 0-14.103 5.363-15.566 12.803l-39.937 203.059c-1.928 9.796 5.582 18.925 15.566 18.925h443.695l20.367-31.728z"
    fill="#6c7ed6"/>
  <path
    d="m36.262 315.74 2.531-12.866c-1.881-.308-3.208-2.11-2.826-4.052l32.339-164.432c.318-1.617 1.736-2.784 3.385-2.784h.786l3.722-18.925c1.462-7.439 7.985-12.803 15.565-12.803h-35.958c-7.581 0-14.103 5.363-15.566 12.803l-39.937 203.059c-1.928 9.796 5.582 18.925 15.566 18.925h35.958c-9.983 0-17.493-9.129-15.565-18.925z"
    fill="#4f67d2"/>
  <path
    d="m221.263 235.711c-.001 0-.002 0-.003 0-12.291-.004-23.927-4.875-32.54-13.495-17.978 17.994-47.126 17.994-65.104-.002-8.215 8.201-19.271 13.051-30.945 13.456-4.366.144-8.05-3.273-8.203-7.652-.152-4.378 3.274-8.05 7.652-8.203 8.734-.303 16.626-4.192 22.22-10.95 4.824-5.834 13.717-5.844 18.555-.001 12.152 14.683 34.463 14.601 46.546.001 4.839-5.845 13.731-5.834 18.558.002 5.772 6.974 14.252 10.976 23.266 10.979 4.381.002 7.931 3.554 7.929 7.935-.001 4.381-3.552 7.93-7.931 7.93z"
    fill="#0193fa"/>
  <path
    d="m123.618 177.469c-8.215 8.202-19.271 13.052-30.946 13.458-4.366.143-8.05-3.273-8.203-7.652-.152-4.378 3.274-8.05 7.652-8.203 8.734-.303 16.626-4.192 22.22-10.95 4.824-5.834 13.717-5.844 18.555-.001 8.758 10.584 23.549 13.952 35.972 8.191 3.973-1.842 8.689-.116 10.533 3.859 1.843 3.974.115 8.69-3.859 10.533-17.578 8.151-38.33 4.351-51.924-9.235z"
    fill="#0193fa"/>
  <path
    d="m178.145 366.068c-4.381 0-7.932-3.551-7.932-7.932v-72.974c0-9.039-7.354-16.393-16.393-16.393s-16.393 7.354-16.393 16.393v15.315c0 4.381-3.551 7.932-7.932 7.932s-7.932-3.551-7.932-7.932v-15.315c0-17.787 14.47-32.257 32.257-32.257s32.257 14.47 32.257 32.257v72.974c0 4.381-3.551 7.932-7.932 7.932z"
    fill="#dfebfa"/>
  <path
    d="m452.786 183.268 21.872 115.435 3.157-5.256c4.51-7.512 14.254-9.945 21.768-5.433 4.181 2.512 6.782 6.646 7.494 11.113l-21.955-115.86h-32.336z"
    fill="#6c7ed6"/>
  <g fill="#bc7c63">
    <path
      d="m453.413 391.472c-2.868 4.776-8.03 7.697-13.6 7.697h-15.864v47.802c0 8.761 7.103 15.864 15.864 15.864s15.864-7.103 15.864-15.864v-59.268z"/>
    <path d="m263.731 399.169v47.802c0 8.761 7.103 15.864 15.864 15.864s15.864-7.103 15.864-15.864v-47.802z"/>
    <path
      d="m453.413 391.472c-2.868 4.776-8.03 7.697-13.6 7.697h-15.864v47.802c0 8.761 7.103 15.864 15.864 15.864s15.864-7.103 15.864-15.864v-59.268z"/>
  </g>
  <path d="m263.731 399.169v47.802c0 8.761 7.103 15.864 15.864 15.864s15.864-7.103 15.864-15.864v-47.802z"
        fill="#ab6b51"/>
  <path
    d="m361.331 80.632c5.353 0 10.645.261 15.864.768v-16.37c0-8.761-7.103-15.864-15.864-15.864s-15.864 7.103-15.864 15.864v16.37c5.219-.508 10.511-.768 15.864-.768z"
    fill="#bc7c63"/>
  <path
    d="m366.619 64.99c0-4.72 1.793-9.01 4.716-12.266-2.73-2.222-6.21-3.558-10.004-3.558-8.761 0-15.864 7.103-15.864 15.864v16.37c5.219-.508 10.511-.768 15.864-.768 1.77 0 3.531.039 5.288.095z"
    fill="#ab6b51"/>
  <path d="m345.467 183.268h31.728v188.403h-31.728z" fill="#bc7c63"/>
  <path d="m345.467 183.268h20.912v188.403h-20.912z" fill="#ab6b51"/>
  <path
    d="m511.745 180.498c-23.805-59.75-82.175-101.981-150.414-101.981s-126.609 42.231-150.415 101.982c-.933 2.342.817 4.885 3.338 4.885h56.129c13.861-61.209 49.349-104.751 90.948-104.751s77.087 43.542 90.948 104.751h56.129c2.521-.001 4.271-2.544 3.337-4.886z"
    fill="#dfebfa"/>
  <path
    d="m344.33 83.103c2.282-1.651 4.609-3.079 6.977-4.277-63.889 3.904-117.759 44.87-140.391 101.672-.933 2.342.817 4.885 3.338 4.885h56.129c11.928-52.675 39.873-92.264 73.947-102.28z"
    fill="#b1dbfc"/>
  <path
    d="m361.331 80.632c16.488 0 30.553 43.542 36.047 104.751h55.374c-13.515-62.32-49.343-106.866-91.421-106.866s-77.905 44.546-91.421 106.866h55.374c5.494-61.209 19.559-104.751 36.047-104.751z"
    fill="#ff656f"/>
  <path d="m349.737 79.658c-36.971 7.321-67.572 49.216-79.827 105.725h25.268c9.253-52.008 29.546-91.876 54.559-105.725z"
        fill="#ff4756"/>
  <path d="m361.331 78.517c-16.677 0-30.877 44.546-36.234 106.866h72.468c-5.357-62.32-19.557-106.866-36.234-106.866z"
        fill="#dfebfa"/>
  <path
    d="m439.813 401.284h-176.84c-8.761 0-15.864-7.103-15.864-15.864s7.103-15.864 15.864-15.864h167.863l46.978-78.224c4.51-7.512 14.254-9.945 21.768-5.433 7.512 4.511 9.943 14.257 5.433 21.768l-51.601 85.921c-2.869 4.775-8.031 7.696-13.601 7.696z"
    fill="#dfebfa"/>
  <path
    d="m325.591 385.42c0-8.761 7.103-15.864 15.864-15.864h-78.482c-8.761 0-15.864 7.103-15.864 15.864s7.103 15.864 15.864 15.864h78.482c-8.761 0-15.864-7.103-15.864-15.864z"
    fill="#b1dbfc"/>
  <path d="m178.655 302.761c0-4.381-3.551-7.932-7.932-7.932h-34.019v15.864h34.019c4.381 0 7.932-3.552 7.932-7.932z"
        fill="#b1dbfc"/>
  <path d="m170.723 326.733h-34.019v15.864h34.019c4.381 0 7.932-3.551 7.932-7.932s-3.551-7.932-7.932-7.932z"
        fill="#b1dbfc"/>
  <path
    d="m105.171 252.905c-17.787 0-32.257 14.47-32.257 32.257v17.775h15.864v-17.775c0-9.039 7.354-16.393 16.393-16.393s16.393 7.354 16.393 16.393v72.974c0 4.381 3.551 7.932 7.932 7.932s7.932-3.551 7.932-7.932v-72.974c0-17.787-14.471-32.257-32.257-32.257z"
    fill="#dfebfa"/>
</svg>
