<?xml version="1.0" encoding="iso-8859-1"?>
<!-- Generator: Adobe Illustrator 19.0.0, SVG Export Plug-In . SVG Version: 6.00 Build 0)  -->
<svg
  height="20px"
  width="24px"  version="1.1" id="Layer_1" xmlns="http://www.w3.org/2000/svg" xmlns:xlink="http://www.w3.org/1999/xlink" x="0px"
  y="0px"
  viewBox="0 0 512 512" style="enable-background:new 0 0 512 512;" xml:space="preserve">
<path style="fill:#FFE0C8;" d="M120.867,181.341c-29.948,0-54.313-24.364-54.313-54.313s24.365-54.313,54.313-54.313
	s54.313,24.365,54.313,54.313S150.815,181.341,120.867,181.341z"/>
  <g>
	<path style="fill:#FFC496;" d="M120.867,181.341c0-36.728,0-85.295,0-108.625c29.948,0,54.313,24.365,54.313,54.313
		S150.815,181.341,120.867,181.341z"/>
    <path style="fill:#FFC496;" d="M335.507,509.494c-10.871,0-21.389-5.592-27.281-15.421h-0.001l-51.466-85.844h-99.308
		l-33.688-63.655L93.48,393.122c-5.899,9.459-16.078,15.107-27.227,15.107c-10.48,0-20.318-5.131-26.315-13.726
		c-5.998-8.595-7.419-19.6-3.803-29.437l57.434-156.21h70.089l47.12,111.839h102.689l51.922,146.438
		c5.517,15.56-1.988,32.978-17.087,39.654C344.159,508.619,339.805,509.494,335.507,509.494z"/>
</g>
  <rect y="408.228" style="fill:#BA7400;" width="256" height="101.27"/>
  <rect x="128" y="408.228" style="fill:#804D00;" width="128" height="101.27"/>
  <g>
	<path style="fill:#A9F0F0;" d="M359.706,227.834h-30c0-9.154-2.806-12.962-7.454-19.27c-5.614-7.619-13.303-18.053-13.303-37.066
		s7.688-29.448,13.303-37.066c4.648-6.308,7.454-10.115,7.454-19.27c0-9.152-2.806-12.958-7.453-19.265
		c-5.614-7.618-13.304-18.051-13.304-37.063c0-19.013,7.689-29.446,13.304-37.064c4.647-6.307,7.453-10.114,7.453-19.266h30
		c0,19.013-7.689,29.446-13.303,37.064c-4.648,6.307-7.454,10.114-7.454,19.267c0,9.152,2.806,12.958,7.453,19.265
		c5.614,7.618,13.304,18.051,13.304,37.063c0,19.014-7.688,29.448-13.303,37.067c-4.648,6.308-7.454,10.115-7.454,19.27
		s2.806,12.961,7.454,19.27C352.018,198.386,359.706,208.82,359.706,227.834z"/>
    <path style="fill:#A9F0F0;" d="M435.853,227.834h-30c0-9.154-2.806-12.962-7.454-19.27c-5.614-7.619-13.303-18.053-13.303-37.066
		s7.688-29.448,13.303-37.066c4.648-6.308,7.454-10.115,7.454-19.27c0-9.152-2.806-12.958-7.453-19.265
		c-5.614-7.618-13.304-18.051-13.304-37.063c0-19.013,7.689-29.446,13.304-37.064c4.647-6.307,7.453-10.114,7.453-19.266h30
		c0,19.013-7.689,29.446-13.303,37.064c-4.648,6.307-7.454,10.114-7.454,19.267c0,9.152,2.806,12.958,7.453,19.265
		c5.614,7.618,13.304,18.051,13.304,37.063c0,19.014-7.688,29.448-13.303,37.067c-4.648,6.308-7.454,10.115-7.454,19.27
		s2.806,12.961,7.454,19.27C428.164,198.386,435.853,208.82,435.853,227.834z"/>
    <path style="fill:#A9F0F0;" d="M512,227.834h-30c0-9.154-2.806-12.962-7.454-19.27c-5.614-7.619-13.303-18.053-13.303-37.066
		s7.688-29.448,13.303-37.066c4.648-6.308,7.454-10.115,7.454-19.27c0-9.152-2.806-12.958-7.453-19.265
		c-5.614-7.618-13.304-18.051-13.304-37.063c0-19.013,7.689-29.446,13.304-37.064C479.194,15.461,482,11.655,482,2.502h30
		c0,19.013-7.689,29.446-13.304,37.064c-4.647,6.307-7.453,10.114-7.453,19.267c0,9.152,2.806,12.958,7.453,19.265
		C504.311,85.716,512,96.149,512,115.161c0,19.014-7.688,29.448-13.303,37.067c-4.648,6.308-7.454,10.115-7.454,19.27
		s2.806,12.961,7.454,19.27C504.312,198.386,512,208.82,512,227.834z"/>
</g>
</svg>
