<svg id="Beach" enable-background="new 0 0 64 64"
     viewBox="0 0 64 64"
     height="20px"
     width="24px"     xmlns="http://www.w3.org/2000/svg">
  <g>
    <path d="m.765 61.385h57.99v-27.959h-57.99c-.352 0-.637.285-.637.637v26.685c-.001.352.285.637.637.637z"
          fill="#30c3e5"/>
    <path
      d="m5.759 51.042c-.115 1.096-2.46 1.746-5.634 2.256v-6.335c1.657 1.428 5.787 2.588 5.634 4.079zm-3.939-17.616h-1.695v11.204c2.919-2.345 13.945-2.09 14.187-4.767.255-2.881-8.719-4.869-12.492-6.437z"
      opacity=".09"/>
    <path
      d="m56.057 33.423v27.327c0 .344-.28.637-.637.637h-51.939c-2.409-1.695-2.766-2.791-2.613-3.492.93-4.41 23.427-3.378 23.796-6.844.204-1.925-6.704-3.288-6.309-5.417.637-3.467 14.594-2.766 14.862-5.761.255-2.893-8.718-4.882-12.491-6.449z"
      fill="#fff" opacity=".3"/>
    <path
      d="m11.275 61.383h51.941c.352 0 .637-.285.637-.637v-30.756c0-.342-.277-.626-.618-.641-16.06-.72-23.457 3.315-34.724 4.076 3.773 1.568 12.745 3.561 12.492 6.443-.263 3.004-14.222 2.296-14.859 5.766-.394 2.124 6.514 3.49 6.312 5.412-.374 3.469-22.87 2.438-23.801 6.848-.151.707.213 1.8 2.62 3.489z"
      fill="#ffe169"/>
    <path
      d="m32.119 44.962c-.395 2.205 6.513 3.633 6.31 5.634-.37 3.62-22.867 2.549-23.798 7.138-.153.752.217 1.886 2.626 3.645h-5.978c-2.409-1.683-2.779-2.779-2.626-3.493.93-4.398 23.428-3.378 23.798-6.845.204-1.925-6.705-3.289-6.31-5.404.637-3.467 14.595-2.766 14.862-5.774.255-2.881-8.719-4.869-12.492-6.437 2.027-.14 3.939-.382 5.787-.688.344-.051.676-.115 1.02-.178 4.104 1.581 11.905 3.582 11.663 6.386-.268 3.135-14.225 2.396-14.862 6.016z"
      opacity=".09"/>
    <g fill="#ce9538">
      <path
        d="m49.334 54.694c-.217 0-.407-.077-.548-.23-.141-.139-.217-.331-.217-.535 0-.102.012-.204.051-.293.039-.09.09-.179.166-.243.28-.293.79-.293 1.083 0 .065.063.128.153.167.243.037.088.051.19.051.293 0 .204-.077.396-.218.535-.151.153-.343.23-.535.23z"/>
      <path
        d="m52.253 50.577c-.102 0-.203-.012-.293-.051s-.179-.09-.243-.166c-.153-.141-.229-.331-.229-.535s.076-.408.229-.548c.281-.281.79-.281 1.07 0 .153.139.23.344.23.548s-.077.395-.23.535c-.138.141-.33.217-.534.217z"/>
      <path
        d="m56.83 40.278c-.204 0-.396-.076-.536-.217-.152-.153-.229-.344-.229-.548 0-.192.09-.396.229-.535.281-.281.79-.294 1.084 0 .063.063.127.153.166.241.039.102.051.204.051.294 0 .204-.077.395-.229.548-.142.141-.333.217-.536.217z"/>
      <path
        d="m31.988 58.365c-.204 0-.396-.077-.535-.217-.153-.153-.23-.345-.23-.549s.09-.395.23-.535c.063-.076.153-.127.241-.166.281-.115.625-.051.841.166.141.141.217.331.217.535s-.076.396-.217.549c-.152.14-.343.217-.547.217z"/>
      <path
        d="m59.914 37.843c-.204 0-.396-.088-.535-.229-.153-.14-.23-.331-.23-.535 0-.102.012-.204.051-.293.039-.102.102-.179.166-.255.294-.28.803-.28 1.084 0 .076.077.127.166.166.255s.063.191.063.293c0 .204-.076.395-.229.535-.065.076-.153.127-.243.166s-.191.063-.293.063z"/>
      <path
        d="m53.63 54.171c-.204 0-.395-.077-.548-.23-.141-.139-.217-.331-.217-.535 0-.203.076-.395.217-.535.28-.293.803-.293 1.083 0 .141.141.23.332.23.535 0 .204-.09.396-.23.535-.14.153-.331.23-.535.23z"/>
      <path
        d="m27.807 57.752c-.204 0-.395-.076-.548-.217-.14-.153-.217-.344-.217-.548s.077-.396.217-.535c.294-.294.803-.294 1.084 0 .141.139.23.331.23.535s-.077.395-.23.548c-.141.141-.332.217-.536.217z"/>
      <path
        d="m42.81 46.714c-.204 0-.396-.076-.536-.217-.152-.153-.229-.344-.229-.548s.09-.395.229-.535c.281-.294.79-.294 1.084 0 .139.141.217.331.217.535s-.077.395-.229.548c-.142.141-.334.217-.536.217z"/>
    </g>
    <path
      d="m50.612 37.06c-.607.162-1.231-.199-1.393-.806l-8.6-32.206c-.162-.607.199-1.231.806-1.393.607-.162 1.231.199 1.393.806l8.599 32.206c.163.607-.198 1.231-.805 1.393z"
      fill="#606060"/>
    <path
      d="m60.141 15.318c-.08-.299-.16-.599-.24-.898-1.887-7.066-9.797-11.086-17.669-8.984-7.865 2.1-12.719 9.528-10.832 16.595l.24.898c.298 1.116 1.444 1.779 2.56 1.481l1.659-.443c1.116-.298 1.779-1.444 1.481-2.56l-.24-.898 17.101-4.566.24.898c.298 1.116 1.444 1.779 2.56 1.481l1.659-.443c1.116-.299 1.779-1.445 1.481-2.561z"
      fill="#f43d76"/>
    <path
      d="m54.441 16.84-.24-.898c-1.887-7.067-7.245-11.768-11.968-10.507-4.719 1.26-7.02 8.007-5.133 15.073l.24.898c.298 1.116 1.444 1.779 2.56 1.481l1.659-.443c1.116-.298 1.779-1.444 1.481-2.56l-.24-.898 5.7-1.522.24.898c.298 1.116 1.444 1.779 2.56 1.481l1.66-.443c1.116-.298 1.779-1.444 1.481-2.56z"
      fill="#f4f4f4"/>
    <path
      d="m48.741 18.362-.24-.898c-1.887-7.066-4.692-12.449-6.266-12.029-1.573.42-1.321 6.485.566 13.551l.24.898c.298 1.116 1.444 1.779 2.56 1.481l1.659-.443c1.115-.298 1.779-1.444 1.481-2.56z"
      fill="#f43d76"/>
    <path
      d="m35.276 20.992.24.899c.187.702.709 1.222 1.362 1.444-.264.295-.613.52-1.019.628l-1.662.444c-1.108.296-2.26-.36-2.559-1.48l-.24-.899c-1.888-7.068 2.965-14.485 10.834-16.586.665-.178 1.315-.312 1.979-.396-6.722 2.691-10.664 9.469-8.935 15.946z"
      opacity=".09"/>
    <path
      d="m24.033 34.191h-23.268c-.423 0-.765-.342-.765-.765s.342-.765.765-.765h23.268c.423 0 .765.342.765.765s-.342.765-.765.765zm-8.406 1.684c-.423 0-.765.342-.765.765s.342.765.765.765h4.429c.423 0 .765-.342.765-.765s-.342-.765-.765-.765zm-3.547 5.634c.423 0 .765-.342.765-.764s-.342-.764-.765-.764h-2.577c-.423 0-.765.342-.765.764s.342.764.765.764zm-2.556 5.785h3.502c.423 0 .765-.342.765-.764s-.342-.764-.765-.764h-3.502c-.423 0-.765.342-.765.764s.342.764.765.764zm-3.444-9.932c-.423 0-.765.343-.765.765s.342.764.765.764h1.614c.423 0 .765-.342.765-.764s-.342-.765-.765-.765zm1.141 10.947h-2.084c-.423 0-.765.342-.765.764s.342.764.765.764h2.084c.423 0 .765-.342.765-.764s-.342-.764-.765-.764zm56.778-18.926c-.019.422-.325.742-.799.73-4.282-.19-8.334-.041-12.358.432l1.315 4.924c.27 1.014-.335 2.059-1.348 2.329-.164.044-.33.065-.494.065-.331 0-.657-.086-.95-.256-.441-.254-.756-.665-.886-1.156l-1.433-5.367c-2.24.372-4.367.8-6.413 1.222-2.884.595-5.652 1.166-8.636 1.546.096.032.192.063.289.095 4.78 1.581 9.722 3.216 9.48 5.988-.178 2.04-3.443 2.611-7.576 3.335-2.98.522-7.06 1.236-7.292 2.503-.1.539 1.82 1.522 2.851 2.05 1.862.952 3.622 1.853 3.469 3.303-.23 2.136-4.266 2.741-11.377 3.627-4.801.599-12.057 1.502-12.436 3.298-.061.285.043 1.115 2.311 2.706.345.243.429.719.187 1.065-.149.212-.386.325-.627.325-.152 0-.305-.045-.439-.138-2.28-1.599-3.21-2.959-2.928-4.277.603-2.86 6.985-3.656 13.742-4.497 3.471-.433 9.933-1.237 10.045-2.273.042-.405-1.841-1.368-2.645-1.779-1.95-.998-3.966-2.03-3.658-3.689.424-2.313 4.363-3.002 8.532-3.732 2.334-.408 6.241-1.093 6.317-1.962.137-1.567-5.23-3.342-8.437-4.402-1.352-.447-2.629-.869-3.587-1.268-.328-.136-.519-.48-.461-.831.057-.35.349-.615.703-.639 4.272-.289 7.96-1.049 11.864-1.855 2.016-.416 4.115-.835 6.326-1.207l-1.984-7.432c-.405-.057-.786-.204-1.126-.419-.018.034-.028.071-.048.104-.382.661-.998 1.133-1.736 1.329l-1.657.443c-.246.065-.495.098-.743.098-.495 0-.985-.131-1.425-.385-.034-.019-.061-.046-.093-.067-.359.68-.981 1.219-1.78 1.433l-1.659.443c-.246.066-.493.097-.736.097-1.262 0-2.42-.844-2.762-2.119l-.24-.899c-1.835-6.878 2.366-14.088 9.508-16.902l-.288-1.079c-.27-1.014.335-2.059 1.348-2.329 1.021-.267 2.061.335 2.33 1.347l.284 1.063c7.644-1.187 14.953 2.981 16.8 9.896l.239.899c.197.736.095 1.505-.288 2.166-.382.661-.998 1.133-1.736 1.329l-1.657.443c-.742.199-1.509.094-2.168-.287-.033-.019-.06-.046-.093-.067-.359.68-.981 1.219-1.78 1.433l-1.659.443c-.246.065-.495.098-.742.098-.497 0-.986-.131-1.426-.385-.033-.019-.06-.046-.092-.066-.359.68-.982 1.219-1.782 1.432l-1.252.335 3.754 14.061c.034.13.123.198.173.227.049.029.149.072.284.038.198-.054.317-.259.264-.458l-3.109-11.645c-.108-.408.134-.827.543-.936.413-.111.826.135.936.541l1.395 5.226c4.178-.504 8.379-.664 12.827-.465.417.021.744.379.725.801zm-10.297-12.346-.24-.897c-1.491-5.587-5.22-9.623-8.936-10.088.453.572.919 1.307 1.403 2.236 1.209 2.319 2.384 5.508 3.311 8.978l.24.899c.091.342.31.629.616.806.307.177.662.225 1.008.134l1.658-.443c.707-.19 1.129-.919.94-1.625zm-5.688-11.308c3.05 1.81 5.704 5.439 6.926 10.015l.24.897v.001c.091.342.31.628.616.806.307.178.663.224 1.008.134l1.657-.443c.344-.091.63-.311.808-.617.177-.307.224-.664.132-1.006l-.239-.9c-1.324-4.96-5.842-8.326-11.148-8.887zm-6.395-.901c.14-.041.623-.174.72-.198l-.26-.972c-.051-.198-.253-.312-.457-.264-.198.054-.317.259-.264.458zm.681 15.254c-.001-.002 0-.004 0-.006l-.239-.894c-.926-3.469-1.496-6.819-1.606-9.432-.05-1.202.001-2.179.149-2.952-6.352 2.566-10.089 8.953-8.466 15.034l.24.899c.189.707.917 1.128 1.624.94l1.658-.443c.707-.189 1.129-.918.94-1.625l-.24-.897c-1.013-3.797-.89-7.73.339-10.79.157-.391.605-.584.995-.424.392.157.583.602.424.995-1.108 2.76-1.21 6.341-.279 9.825l.24.897c.091.344.31.63.616.807.309.178.665.225 1.008.133l1.657-.443c.344-.091.63-.311.808-.617.177-.308.225-.665.132-1.007zm3.103.545 1.658-.443c.707-.189 1.129-.917.94-1.624l-.24-.899c-1.988-7.448-4.532-11.428-5.344-11.483-.002.001-.005.002-.007.002-.637.445-.857 5.164 1.131 12.608l.239.899c.188.706.916 1.128 1.623.94z"
      fill="#0b0c0c"/>
  </g>
</svg>
