<svg height="512" viewBox="0 0 60 60" width="512" xmlns="http://www.w3.org/2000/svg"><g id="Page-1" fill="none" fill-rule="evenodd"><g id="044---Sink" fill="rgb(0,0,0)" fill-rule="nonzero" transform="translate(0 -1)"><path id="Shape" d="m59.809 42.954-7.742-21c-.4351308-1.1697163-1.5489866-1.9478622-2.797-1.954h-14.37c-.2497597-1.1897451-.9254153-2.247324-1.9-2.974v-7.526c.0004669-.75797132.3447878-1.47480107.9361516-1.94894191.5913639-.47414084 1.3659045-.65438645 2.1058484-.49005809 1.1712022.27644963 1.9882914 1.33599487 1.958 2.539v.4c0 1.6568542 1.3431458 3 3 3s3-1.3431458 3-3v-.5c-.0032-2.44883606-1.0605525-4.77775128-2.9020316-6.39198889s-4.2888003-2.35751377-6.7169684-2.04001111c-4.2894112.64093974-7.4436423 4.35541974-7.381 8.692v4.006l-1.876-1.876c-1.1794645-1.1406333-3.049697-1.1446087-4.234-.009-.5681291.5587173-.8881039 1.3221715-.8881039 2.119s.3199748 1.5602827.8881039 2.119l3.876 3.881h-14.036c-1.249113.004892-2.36448217.7832603-2.8 1.954l-7.739 21c-.12623967.3377634-.19092878.6954163-.191 1.056v14c.0022035 1.6504178 1.33958218 2.9877965 2.99 2.99h54.02c1.6504178-.0022035 2.9877965-1.3395822 2.99-2.99v-14c.0000369-.3605934-.0646557-.7182653-.191-1.056zm-33.201-1.954c-.3400569-.2275171-.5625066-.5933883-.608-1 0-.944 1.71-2 4-2s4 1.056 4 2c-.0454934.4066117-.2679431.7724829-.608 1zm-19.479 0 3.871-10.432v6.291l-1.184 4.141zm5.625-3h12.031c-.4942573.5502078-.7730428 1.2604894-.785 2 .0023502.3418034.0656761.6804447.187 1h-12.287zm22.461 0h12.031l.858 3h-12.291c.1213239-.3195553.1846498-.6581966.187-1-.0119572-.7395106-.2907427-1.4497922-.785-2zm14.969 3-1.184-4.141v-6.291l3.871 10.432zm-3.184-5h-34v-10h34zm-20-15c0-1.6568542 1.3431458-3 3-3s3 1.3431458 3 3-1.3431458 3-3 3-3-1.3431458-3-3zm2-11.24c-.0644827-3.33090474 2.3429348-6.19673554 5.635-6.708 1.8579515-.2438361 3.7309582.32389114 5.1408554 1.5582451s2.2202366 3.01587538 2.2241446 4.8897549v.5c0 .5522847-.4477153 1-1 1s-1-.4477153-1-1v-.4c.0303302-2.15264889-1.4537831-4.0312733-3.555-4.5-1.3290925-.28547512-2.7160033.04517231-3.7733398.89958569-1.0573366.85441338-1.671764 2.14100899-1.6716602 3.50041431v6.6c-.5591291-.1219005-1.1367984-.1324345-1.7-.031l-.3-.3zm-6.7 3.54c.3888435-.3811429 1.0111565-.3811429 1.4 0l3.536 3.536c-.5577248.3702326-1.0357674.8482752-1.406 1.406l-3.536-3.542c-.1891349-.1841701-.295318-.4372863-.2941866-.7012737.0011313-.2639874.10948-.5161841.3001866-.6987263zm-20.232 30.346 7.74-21c.14355089-.3857598.5104089-.6427991.922-.646h14.37c.1542758.7276558.4704292 1.4112306.925 2h-14.025c-.4182498-.0002114-.7924491.259893-.938.652l-6.308 17c-.11390144.3068446-.07043345.6500075.11637828.9187612s.49331888.429077.82062172.4292388h48.618c.3273028-.0001618.63381-.1604851.8206217-.4292388.1868118-.2687537.2302797-.6119166.1163783-.9187612l-6.309-17c-.1454235-.3917637-.5191163-.6517933-.937-.652h-14.026c.4545708-.5887694.7707242-1.2723442.925-2h14.371c.411407.003043.7780538.2602134.921.646l7.743 21c.1186655.3054017.0792085.6496649-.105478.9202986s-.4908773.4328717-.818522.4337014h-54.02c-.32747797-.0010071-.63340326-.1634085-.81772321-.434091-.18431995-.2706824-.22333182-.6148373-.10427679-.919909zm54.942 15.354h-54.02c-.54653342-.0005512-.98944878-.4434666-.99-.99v-11.2c.31671407.1194547.6515657.1837191.99.19h54.02c.3384926-.0066008.6733461-.0712039.99-.191v11.2c.0000003.5469239-.4430764.9904481-.99.991z"/><path id="Shape" d="m9 55h-3v-2c0-.5522847-.44771525-1-1-1s-1 .4477153-1 1v3c0 .5522847.44771525 1 1 1h4c.55228475 0 1-.4477153 1-1s-.44771525-1-1-1z"/></g></g></svg>