<svg id="Layer_1" enable-background="new 0 0 1000 1000" height="512" viewBox="0 0 1000 1000" width="512" xmlns="http://www.w3.org/2000/svg"><g><path d="m908.3 413.9-372.3-297.1c-21.2-16.9-50.8-16.9-72.1 0l-372.2 297.1c-12.1 9.6-19.6 23.4-21.4 38.7s2.7 30.4 12.3 42.4l23.6 29.5c17.1 21.4 46.4 27.4 70.1 16.1v260.8c0 31.9 25.9 57.8 57.8 57.8h95.9c11 0 20-9 20-20s-9-20-20-20h-95.9c-9.8 0-17.8-8-17.8-17.8v-300.5c0-7.7-4.4-14.7-11.3-18s-15.1-2.4-21.1 2.4l-21.4 17.1c-7.7 6.1-18.9 4.9-25-2.8l-23.6-29.5c-3-3.7-4.3-8.3-3.8-13.1.5-4.7 2.9-8.9 6.6-11.9l372.2-297.1c6.5-5.2 15.6-5.2 22.2 0l372.2 297.1c3.7 3 6 7.2 6.6 11.9.5 4.7-.8 9.4-3.8 13.1l-23.6 29.5c-6.1 7.7-17.3 8.9-25 2.8l-21.4-17.1c-6-4.8-14.2-5.7-21.1-2.4s-11.3 10.3-11.3 18v300.4c0 9.8-8 17.8-17.8 17.8h-95.9c-11 0-20 9-20 20s9 20 20 20h95.9c31.9 0 57.8-25.9 57.8-57.8v-260.7c23.7 11.4 53 5.4 70.1-16.1l23.6-29.5c9.6-12.1 14-27.1 12.3-42.5s-9.4-29-21.4-38.6z"/><path d="m520 768.1v-240.1c0-11-9-20-20-20s-20 9-20 20v240.2c-19.9 8-34 27.4-34 50.1 0 29.8 24.2 54 54 54s54-24.2 54-54c0-22.8-14.1-42.2-34-50.2zm-20 64.1c-7.7 0-14-6.3-14-14s6.3-14 14-14 14 6.3 14 14-6.3 14-14 14z"/><path d="m500 313.8c-44.3 0-80.4 36.1-80.4 80.4v335c-25.4 22.9-39.7 55-39.6 89.6.3 65.4 53.7 119 119.1 119.5h.9c31.9 0 61.9-12.4 84.5-34.8 22.9-22.7 35.4-52.9 35.4-85.2 0-34.4-14.3-66.3-39.6-89.1v-335c.1-44.4-36-80.4-80.3-80.4zm56.4 561.2c-15.2 15.1-35.5 23.4-56.9 23.2-43.6-.3-79.2-36-79.4-79.7-.1-25.4 11.4-48.7 31.7-64.1 5-3.8 7.9-9.7 7.9-15.9v-344.3c0-22.3 18.1-40.4 40.4-40.4s40.4 18.1 40.4 40.4v344.4c0 6.3 2.9 12.1 7.9 15.9 20.1 15.3 31.7 38.5 31.7 63.8-.1 21.4-8.5 41.6-23.7 56.7z"/><path d="m372.7 377.3h-55.6c-11 0-20 9-20 20s9 20 20 20h55.6c11 0 20-9 20-20s-8.9-20-20-20z"/><path d="m372.7 450.7h-29.7c-11 0-20 9-20 20s9 20 20 20h29.7c11 0 20-9 20-20s-8.9-20-20-20z"/><path d="m317.1 564h55.6c11 0 20-9 20-20s-9-20-20-20h-55.6c-11 0-20 9-20 20s9 20 20 20z"/><path d="m372.7 597.3h-29.7c-11 0-20 9-20 20s9 20 20 20h29.7c11 0 20-9 20-20s-8.9-20-20-20z"/><path d="m317.1 710.7h55.6c11 0 20-9 20-20s-9-20-20-20h-55.6c-11 0-20 9-20 20s9 20 20 20z"/></g></svg>