<svg
  height="20px"
  width="24px"  viewBox="0 0 512.001 512"
  xmlns="http://www.w3.org/2000/svg">
  <path
    d="m446.585938 61.855469c0 8.53125-6.921876 15.453125-15.453126 15.453125-8.535156 0-15.453124-6.921875-15.453124-15.453125 0-8.535157 6.917968-15.453125 15.453124-15.453125 8.53125 0 15.453126 6.917968 15.453126 15.453125zm0 0"
    fill="#ffd659"/>
  <path
    d="m454.082031 61.855469c0-12.65625-10.296875-22.953125-22.953125-22.953125s-22.953125 10.292968-22.953125 22.953125c0 10.027343 6.46875 18.570312 15.453125 21.6875v47.289062c0 4.144531 3.359375 7.5 7.5 7.5 4.144532 0 7.5-3.355469 7.5-7.5v-47.289062c8.984375-3.117188 15.453125-11.660157 15.453125-21.6875zm-22.949219 7.953125c-4.386718 0-7.953124-3.570313-7.953124-7.953125 0-4.386719 3.566406-7.953125 7.953124-7.953125 4.382813 0 7.953126 3.566406 7.953126 7.953125 0 4.382812-3.570313 7.953125-7.953126 7.953125zm0 0"
    fill="#484b63"/>
  <path d="m477.488281 191.863281v304.683594h-442.976562v-304.683594l221.488281-153.746093 190.582031 132.296874zm0 0"
        fill="#cfe0e9"/>
  <path d="m477.488281 191.863281v289.230469h-30.90625v-310.679688zm0 0" fill="#abbfcf"/>
  <path
    d="m331.71875 496.546875h-151.4375v-217.488281c0-2.207032 1.792969-4 4-4h143.4375c2.210938 0 4 1.792968 4 4zm0 0"
    fill="#7fcbca"/>
  <path
    d="m207.066406 496.546875v-190.703125c0-2.210938 1.789063-4 4-4h89.867188c2.207031 0 4 1.789062 4 4v190.703125zm0 0"
    fill="#50536e"/>
  <path d="m274.027344 496.546875v-194.703125h26.90625c2.207031 0 4 1.789062 4 4v190.703125zm0 0" fill="#484b63"/>
  <path d="m477.488281 418.253906h-103.015625v-139.195312c0-2.207032 1.789063-4 4-4h99.015625zm0 0" fill="#7fcbca"/>
  <path d="m446.582031 275.058594h30.90625v127.742187h-30.90625zm0 0" fill="#62b5b4"/>
  <path d="m477.488281 301.84375v116.410156h-76.234375v-116.410156zm0 0" fill="#8cf2ff"/>
  <path d="m446.582031 301.84375h30.90625v116.410156h-30.90625zm0 0" fill="#6bdae8"/>
  <path
    d="m496.546875 512h-481.09375c-8.535156 0-15.453125-6.917969-15.453125-15.453125 0-8.53125 6.917969-15.453125 15.453125-15.453125h481.09375c8.535156 0 15.453125 6.917969 15.453125 15.453125s-6.917969 15.453125-15.453125 15.453125zm0 0"
    fill="#ff663b"/>
  <path
    d="m496.546875 481.09375h-30.90625c8.535156 0 15.453125 6.917969 15.453125 15.453125s-6.917969 15.453125-15.453125 15.453125h30.90625c8.535156 0 15.453125-6.917969 15.453125-15.453125 0-8.53125-6.917969-15.453125-15.453125-15.453125zm0 0"
    fill="#e8572e"/>
  <path
    d="m512 177.378906v49.914063c0 3.21875-3.605469 5.117187-6.261719 3.300781l-243.917969-167.0625c-3.507812-2.402344-8.132812-2.402344-11.640624 0l-243.917969 167.0625c-2.65625 1.820312-6.261719-.082031-6.261719-3.300781v-49.914063c0-2.636718 1.300781-5.105468 3.480469-6.597656l246.699219-168.976562c3.507812-2.40625 8.132812-2.40625 11.640624 0l246.699219 168.976562c2.179688 1.488281 3.480469 3.960938 3.480469 6.597656zm0 0"
    fill="#ff663b"/>
  <path
    d="m512 177.378906v49.914063c0 3.21875-3.605469 5.117187-6.261719 3.300781l-243.917969-167.0625c-3.511718-2.398438-8.128906-2.398438-11.640624 0l-243.917969 167.0625c-2.65625 1.816406-6.261719-.082031-6.261719-3.300781v-22.875l250.179688-171.347657c3.511718-2.402343 8.128906-2.402343 11.640624 0l199.925782 136.925782c8.203125 5.621094 19.347656-.253906 19.347656-10.199219v-7.804687l27.425781 18.789062c2.179688 1.492188 3.480469 3.960938 3.480469 6.597656zm0 0"
    fill="#e8572e"/>
  <path
    d="m494.09375 433.707031h-115.621094c-2.210937 0-4-1.792969-4-4v-26.90625h119.621094c2.207031 0 4 1.792969 4 4v22.90625c0 2.207031-1.792969 4-4 4zm0 0"
    fill="#ffd659"/>
  <path
    d="m494.09375 433.707031h-26.90625v-30.90625h26.90625c2.207031 0 4 1.792969 4 4v22.90625c0 2.207031-1.792969 4-4 4zm0 0"
    fill="#ffbd54"/>
  <path
    d="m120.015625 219.988281c0 8.53125-6.917969 15.453125-15.453125 15.453125s-15.453125-6.921875-15.453125-15.453125c0-8.535156 6.917969-15.453125 15.453125-15.453125s15.453125 6.917969 15.453125 15.453125zm0 0"
    fill="#ffd659"/>
  <path
    d="m127.515625 219.988281c0-12.65625-10.296875-22.953125-22.953125-22.953125s-22.953125 10.292969-22.953125 22.953125c0 10.027344 6.46875 18.570313 15.453125 21.6875v42.824219c0 4.144531 3.359375 7.5 7.5 7.5s7.5-3.355469 7.5-7.5v-42.824219c8.984375-3.117187 15.453125-11.660156 15.453125-21.6875zm-22.953125 7.953125c-4.382812 0-7.953125-3.570312-7.953125-7.953125 0-4.386719 3.566406-7.953125 7.953125-7.953125s7.953125 3.566406 7.953125 7.953125c0 4.382813-3.566406 7.953125-7.953125 7.953125zm0 0"
    fill="#484b63"/>
  <g fill="#ff663b">
    <path
      d="m284.113281 186.605469c-8.148437-6.132813-17.859375-9.375-28.082031-9.375-10.253906 0-19.988281 3.261719-28.15625 9.429687-3.304688 2.5-3.957031 7.203125-1.460938 10.507813 1.476563 1.949219 3.71875 2.976562 5.988282 2.976562 1.574218 0 3.164062-.492187 4.515625-1.515625 5.542969-4.1875 12.148437-6.398437 19.113281-6.398437 6.941406 0 13.535156 2.199219 19.0625 6.359375 3.308594 2.492187 8.011719 1.828125 10.5-1.480469 2.492188-3.3125 1.828125-8.011719-1.480469-10.503906zm0 0"/>
    <path
      d="m295.195312 166.617188c-11.371093-8.5625-24.914062-13.089844-39.164062-13.089844-14.289062 0-27.855469 4.542968-39.234375 13.140625-3.304687 2.5-3.957031 7.203125-1.460937 10.507812 1.472656 1.949219 3.71875 2.976563 5.988281 2.976563 1.574219 0 3.164062-.492188 4.515625-1.515625 8.753906-6.613281 19.195312-10.109375 30.191406-10.109375 10.96875 0 21.390625 3.480468 30.140625 10.070312 3.308594 2.492188 8.011719 1.832032 10.5-1.480468 2.492187-3.308594 1.832031-8.011719-1.476563-10.5zm0 0"/>
    <path
      d="m305.84375 147.199219c-14.457031-10.894531-31.679688-16.652344-49.8125-16.652344-18.167969 0-35.417969 5.773437-49.882812 16.703125-3.304688 2.496094-3.957032 7.199219-1.460938 10.503906 1.472656 1.953125 3.71875 2.980469 5.988281 2.980469 1.574219 0 3.164063-.496094 4.515625-1.515625 11.839844-8.945312 25.960938-13.671875 40.839844-13.671875 14.847656 0 28.949219 4.710937 40.78125 13.628906 3.308594 2.496094 8.011719 1.832031 10.503906-1.472656 2.496094-3.308594 1.832032-8.011719-1.472656-10.503906zm0 0"/>
  </g>
  <path
    d="m263.726562 213.761719c0 4.269531-3.460937 7.726562-7.726562 7.726562s-7.726562-3.457031-7.726562-7.726562c0-4.265625 3.460937-7.726563 7.726562-7.726563s7.726562 3.460938 7.726562 7.726563zm0 0"
    fill="#e8572e"/>
  <path d="m137.527344 418.253906h-103.015625v-143.195312h99.015625c2.210937 0 4 1.792968 4 4zm0 0" fill="#7fcbca"/>
  <path d="m110.742188 301.84375v116.410156h-76.230469v-116.410156zm0 0" fill="#8cf2ff"/>
  <path d="m79.839844 301.84375h30.902344v116.410156h-30.902344zm0 0" fill="#6bdae8"/>
  <path
    d="m133.527344 433.707031h-115.621094c-2.207031 0-4-1.792969-4-4v-22.90625c0-2.207031 1.792969-4 4-4h119.621094v26.90625c0 2.207031-1.789063 4-4 4zm0 0"
    fill="#ffd659"/>
  <path d="m133.527344 433.707031h-26.902344v-30.90625h30.902344v26.90625c0 2.207031-1.789063 4-4 4zm0 0"
        fill="#ffbd54"/>
</svg>
