<svg    viewBox="0 0 59 59"
        height="20px"
        width="24px"     xmlns="http://www.w3.org/2000/svg">
  <g id="Page-1" fill="none" fill-rule="evenodd">
    <g id="017---Solar-Field">
      <path id="Path" d="m52 36.412v13.588h-4v-9.719z" fill="#285680"/>
      <path id="Path" d="m35.01 36.4v13.6h-4v-9.719z" fill="#285680"/>
      <path id="Path" d="m18.01 36.4v13.6h-4v-9.719z" fill="#285680"/>
      <path id="Path" d="m55 52v3h-10v-3c0-1.6568542 1.3431458-3 3-3h4c1.6568542 0 3 1.3431458 3 3z" fill="#3b97d3"/>
      <path id="Path"
            d="m58.64 31.92-6.64 5.49-4 3.3-6.13 5.06c-.201224.1679017-.4611128.2485959-.7220467.224192-.260934-.0244039-.5013527-.1518895-.6679533-.354192l-1.26-1.52c-.1676434-.2013321-.248172-.4611559-.2237758-.7220078.0243963-.260852.151707-.5012375.3537758-.6679922l16.78-13.86c.2013321-.1676434.4611559-.248172.7220078-.2237758.260852.0243963.5012375.151707.6679922.3537758l1.25 1.53c.1676434.2013321.248172.4611559.2237758.7220078-.0243963.260852-.151707.5012375-.3537758.6679922z"
            fill="#3b97d3"/>
      <path id="Path" d="m38.01 52v3h-10v-3c0-1.6568542 1.3431458-3 3-3h4c1.6568542 0 3 1.3431458 3 3z" fill="#3b97d3"/>
      <path id="Path"
            d="m41.65 31.92-6.64 5.48-4 3.31-6.14 5.06c-.2013321.1676434-.4611559.248172-.7220078.2237758-.260852-.0243963-.5012375-.151707-.6679922-.3537758l-1.25-1.52c-.1676434-.2013321-.248172-.4611559-.2237758-.7220078.0243963-.260852.151707-.5012375.3537758-.6679922l16.77-13.86c.201224-.1679017.4611128-.2485959.7220467-.224192.260934.0244039.5013527.1518895.6679533.354192l1.26 1.53c.1676434.2013321.248172.4611559.2237758.7220078-.0243963.260852-.151707.5012375-.3537758.6679922z"
            fill="#3b97d3"/>
      <path id="Path"
            d="m21.01 52v3h-10v-3c0-1.6568542 1.3431458-3 3-3h4c.7956495 0 1.5587112.3160705 2.1213203.8786797.5626092.5626091.8786797 1.3256708.8786797 2.1213203z"
            fill="#3b97d3"/>
      <path id="Path"
            d="m24.65 31.92-6.64 5.48-4 3.31-6.14 5.06c-.20133207.1676434-.46115585.248172-.72200781.2237758-.26085195-.0243963-.50123752-.151707-.66799219-.3537758l-1.25-1.52c-.16764341-.2013321-.24817199-.4611559-.22377577-.7220078.02439623-.260852.15170698-.5012375.35377577-.6679922l16.77-13.86c.201224-.1679017.4611128-.2485959.7220467-.224192.260934.0244039.5013527.1518895.6679533.354192l1.26 1.53c.1676434.2013321.248172.4611559.2237758.7220078-.0243963.260852-.151707.5012375-.3537758.6679922z"
            fill="#3b97d3"/>
      <g fill="#f0c419">
        <circle id="Oval" cx="14" cy="14" r="7"/>
        <path id="Path"
              d="m14 4c-.5522847 0-1-.44771525-1-1v-2c0-.55228475.4477153-1 1-1s1 .44771525 1 1v2c0 .55228475-.4477153 1-1 1z"/>
        <path id="Path"
              d="m14 28c-.5522847 0-1-.4477153-1-1v-2c0-.5522847.4477153-1 1-1s1 .4477153 1 1v2c0 .5522847-.4477153 1-1 1z"/>
        <path id="Path"
              d="m27 15h-2c-.5522847 0-1-.4477153-1-1s.4477153-1 1-1h2c.5522847 0 1 .4477153 1 1s-.4477153 1-1 1z"/>
        <path id="Path"
              d="m3 15h-2c-.55228475 0-1-.4477153-1-1s.44771525-1 1-1h2c.55228475 0 1 .4477153 1 1s-.44771525 1-1 1z"/>
        <path id="Path"
              d="m2.742 21.5c-.45258806-.0000199-.84874105-.3040116-.96588095-.7411777s.07393969-.8985084.46588095-1.1248223l1.733-1c.30957042-.1814844.69264947-.1831833 1.00381742-.0044519.31116795.1787315.50271357.5104885.50192468.8693336-.00078888.3588451-.19379132.6897567-.5057421.8671183l-1.733 1c-.15187005.0881308-.32441125.1343718-.5.134z"/>
        <path id="Path"
              d="m23.527 9.5c-.4525881-.00001991-.8487411-.30401157-.9658809-.74117767-.1171399-.43716609.0739396-.89850839.4658809-1.12482233l1.733-1c.3095704-.18148438.6926495-.18318331 1.0038174-.00445186.311168.17873145.5027136.51048847.5019247.86933356s-.1937913.68975672-.5057421.8671183l-1.733 1c-.1518701.08813078-.3244113.13437182-.5.134z"/>
        <path id="Path"
              d="m8.5 5.474c-.35761373.00034843-.68819322-.19029718-.867-.5l-1-1.732c-.18148438-.30957042-.18318331-.69264947-.00445186-1.00381742s.51048847-.50271357.86933356-.50192468c.35884509.00078888.68975672.19379132.8671183.5057421l1 1.732c.17854148.30924248.17863929.6902222.00025662.99955632-.17838268.30933411-.50817422.50007763-.86525662.50044368z"/>
        <path id="Path"
              d="m20.5 26.258c-.3576137.0003484-.6881932-.1902972-.867-.5l-1-1.732c-.2716903-.47786-.1067416-1.0854205.3693057-1.3602745.4760473-.2748541 1.0846885-.1139391 1.3626943.3602745l1 1.732c.1785415.3092425.1786393.6902222.0002566.9995563s-.5081742.5000777-.8652566.5004437z"/>
        <path id="Path"
              d="m25.258 21.5c-.1755887.0003718-.3481299-.0458692-.5-.134l-1.733-1c-.4742136-.2780058-.6351286-.886647-.3602745-1.3626943.274854-.4760473.8824145-.640996 1.3602745-.3693057l1.733 1c.3919413.2263139.5830208.6876562.4658809 1.1248223-.1171398.4371661-.5132928.7411578-.9658809.7411777z"/>
        <path id="Path"
              d="m4.473 9.5c-.17558875.00037182-.34812995-.04586922-.5-.134l-1.733-1c-.31195078-.17736158-.50495322-.50827321-.5057421-.8671183-.00078889-.35884509.19075673-.69060211.50192468-.86933356s.694247-.17703252 1.00381742.00445186l1.733 1c.39194126.22631394.58302085.68765624.46588095 1.12482233-.1171399.4371661-.51329289.74115776-.96588095.74117767z"/>
        <path id="Path"
              d="m19.5 5.474c-.3570824-.00036605-.6868739-.19110957-.8652566-.50044368-.1783827-.30933412-.1782849-.69031384.0002566-.99955632l1-1.732c.1773616-.31195078.5082732-.50495322.8671183-.5057421.3588451-.00078889.6906021.19075673.8693336.50192468.1787314.31116795.1770325.694247-.0044519 1.00381742l-1 1.732c-.1788068.30970282-.5093863.50034843-.867.5z"/>
        <path id="Path"
              d="m7.5 26.258c-.3570824-.000366-.68687394-.1911096-.86525662-.5004437-.17838267-.3093341-.17828486-.6903138.00025662-.9995563l1-1.732c.27800577-.4742136.88664704-.6351286 1.3626943-.3602745.47604727.274854.64099599.8824145.3693057 1.3602745l-1 1.732c-.17880678.3097028-.50938627.5003484-.867.5z"/>
      </g>
      <rect id="Rectangle" fill="#4fba6f" height="5" rx="1" width="58" x="1" y="54"/>
    </g>
  </g>
</svg>
