<svg id="Capa_1" enable-background="new 0 0 512.002 512.002" height="512" viewBox="0 0 512.002 512.002" width="512" xmlns="http://www.w3.org/2000/svg"><g><path d="m495.499 75.954c-3.589-2.518-8.504-5.965-9.393-8.104-.991-2.385.008-8.277.812-13.011 1.547-9.119 3.301-19.454-3.499-26.254-6.801-6.801-17.137-5.048-26.254-3.5-4.734.803-10.627 1.802-13.012.812-2.139-.889-5.587-5.804-8.104-9.393-5.428-7.736-11.578-16.504-21.548-16.504s-16.12 8.767-21.546 16.502c-2.518 3.589-5.965 8.504-8.104 9.393-2.385.99-8.277-.008-13.011-.812-9.119-1.548-19.454-3.301-26.254 3.499s-5.047 17.136-3.5 26.255c.803 4.734 1.803 10.626.812 13.011-.889 2.139-5.804 5.587-9.393 8.104-7.735 5.426-16.503 11.577-16.503 21.546s8.767 16.12 16.502 21.546c3.589 2.518 8.504 5.965 9.393 8.104.991 2.385-.008 8.277-.812 13.011-1.547 9.119-3.301 19.454 3.499 26.254s17.135 5.047 26.255 3.5c4.734-.803 10.626-1.804 13.011-.812 2.139.889 5.587 5.804 8.104 9.393 5.426 7.735 11.577 16.503 21.546 16.503s16.12-8.767 21.546-16.502c2.518-3.589 5.965-8.504 8.104-9.393 2.386-.991 8.277.009 13.011.812 9.119 1.548 19.454 3.301 26.254-3.499s5.047-17.136 3.5-26.254c-.803-4.734-1.803-10.626-.812-13.012.889-2.139 5.804-5.587 9.393-8.104 7.735-5.426 16.503-11.577 16.503-21.546s-8.765-16.119-16.5-21.545zm-8.615 30.813c-5.934 4.163-12.069 8.466-14.63 14.626-2.653 6.383-1.368 13.956-.126 21.279.6 3.536 2.005 11.816.683 13.138-1.323 1.324-9.602-.083-13.138-.683-7.322-1.243-14.895-2.526-21.278.126-6.161 2.561-10.465 8.696-14.627 14.63-2.48 3.536-7.097 10.117-9.267 10.117s-6.786-6.582-9.267-10.117c-4.163-5.934-8.466-12.069-14.627-14.63-2.749-1.142-5.716-1.554-8.791-1.554-4.066 0-8.317.721-12.487 1.429-3.536.6-11.815 2.004-13.139.682-1.322-1.322.083-9.603.683-13.138 1.242-7.323 2.527-14.895-.126-21.278-2.561-6.161-8.696-10.465-14.63-14.627-3.536-2.48-10.117-7.097-10.117-9.267s6.582-6.786 10.117-9.267c5.934-4.163 12.069-8.466 14.63-14.627 2.653-6.383 1.368-13.955.125-21.278-.6-3.536-2.004-11.816-.682-13.139 1.324-1.322 9.603.083 13.138.683 7.322 1.242 14.895 2.526 21.278-.126 6.161-2.561 10.465-8.696 14.627-14.63 2.48-3.536 7.097-10.117 9.267-10.117s6.786 6.582 9.267 10.117c4.163 5.934 8.466 12.069 14.626 14.63 6.384 2.653 13.956 1.368 21.279.126 3.535-.6 11.816-2.003 13.138-.683 1.322 1.322-.083 9.603-.683 13.138-1.242 7.323-2.527 14.895.126 21.278 2.561 6.161 8.696 10.465 14.63 14.627 3.536 2.48 10.117 7.097 10.117 9.267s-6.581 6.787-10.116 9.268zm-222.865 136.705c.226 4.147 3.801 7.301 7.903 7.074 4.136-.229 7.303-3.767 7.074-7.903l-4.513-81.557c-.17-3.685-3.448-7.171-7.489-7.085h-209.7c-2.859-.136-7.456 2.769-7.489 7.093l-11.196 206c-.278 3.973 3.145 8.016 7.489 7.907h232.092c3.976.072 7.841-3.594 7.489-7.907l-4.861-89.449c-.225-4.136-3.736-7.307-7.896-7.082-4.136.225-7.307 3.76-7.082 7.896l.7 12.875h-59.611l-.934-53.664h57.703zm3.336 62.861 2.917 53.667h-62.147l-.934-53.667zm-132.862-137.333h55.304l.934 53.67h-57.173zm-1.196 68.67h57.695l.934 53.664h-59.564zm-17.133 122.33h-62.147l2.917-53.667h60.165zm1.196-68.667h-59.611l2.917-53.664h57.629zm1.196-68.663h-57.075l2.917-53.67h55.092zm12.611 137.33.934-53.667h60.086l.935 53.667zm74.567-137.33-.935-53.67h55.099l2.97 53.67zm208.767-167.67c-23.435 0-42.5 19.065-42.5 42.5s19.065 42.5 42.5 42.5 42.5-19.065 42.5-42.5-19.065-42.5-42.5-42.5zm0 70c-15.164 0-27.5-12.336-27.5-27.5s12.336-27.5 27.5-27.5 27.5 12.336 27.5 27.5-12.336 27.5-27.5 27.5zm-97.712 372h-62.993l-8.22-21.372c-4.055-10.544-14.37-17.628-25.667-17.628h-22.652v-48h86.213c20.99.093 38.709-18.497 37.444-39.535l-11.739-216c-1.08-19.887-17.528-35.465-37.444-35.465h-128.73c-4.142 0-7.5 3.358-7.5 7.5s3.358 7.5 7.5 7.5h128.73c11.95 0 21.818 9.347 22.467 21.279l11.739 216c.746 12.597-9.789 23.792-22.467 23.721h-242.651c-12.787.066-23.22-11.077-22.467-23.721l11.739-216c.649-11.932 10.518-21.279 22.468-21.279h56.102c4.142 0 7.5-3.358 7.5-7.5s-3.358-7.5-7.5-7.5h-56.102c-19.916 0-36.364 15.578-37.444 35.465l-11.739 216c-1.28 21.029 16.188 39.666 37.443 39.535h86.213v48h-22.652c-11.297 0-21.612 7.084-25.667 17.628l-8.219 21.372h-62.993c-4.142 0-7.5 3.358-7.5 7.5s3.358 7.5 7.5 7.5h68.099c.014 0 .029.002.043.002.009 0 .017-.002.026-.002h241.119c4.142 0 7.5-3.358 7.5-7.5s-3.357-7.5-7.499-7.5zm-174.756-87h40.225v48h-40.225zm-55.468 87 6.149-15.987c1.843-4.792 6.532-8.013 11.667-8.013h115.528c5.135 0 9.823 3.22 11.667 8.013l6.149 15.987z"/></g></svg>