<?xml version="1.0" encoding="iso-8859-1"?>
<!-- Generator: Adobe Illustrator 19.0.0, SVG Export Plug-In . SVG Version: 6.00 Build 0)  -->
<svg
  height="24px"
  width="27px"
  version="1.1" id="Capa_1" xmlns="http://www.w3.org/2000/svg" xmlns:xlink="http://www.w3.org/1999/xlink" x="0px" y="0px"
	 viewBox="0 0 511.987 511.987" style="enable-background:new 0 0 511.987 511.987;" xml:space="preserve">
<g>
	<g>
		<g>
			<path d="M51.855,179.298c1.926,0,3.879-0.098,5.841-0.32c13.776-1.553,26.114-8.37,34.76-19.217
				c8.646-10.838,12.551-24.392,10.998-38.169c-3.187-28.174-28.396-48.927-57.377-45.74c-28.422,3.204-48.945,28.946-45.749,57.377
				C3.301,159.494,25.448,179.298,51.855,179.298z M49.743,108.428c0.728-0.089,1.456-0.124,2.175-0.124
				c9.72,0,17.877,7.296,18.978,16.963c0.568,5.068-0.87,10.066-4.057,14.06c-3.187,3.994-7.731,6.515-12.8,7.074
				c-10.643,1.278-19.963-6.453-21.135-16.839C31.724,119.08,39.278,109.609,49.743,108.428z"/>
			<path d="M345.336,121.574c1.926,0,3.879-0.098,5.841-0.328c28.431-3.213,48.945-28.955,45.74-57.359
				c-3.169-28.191-28.44-49.033-57.377-45.758c-28.422,3.204-48.936,28.955-45.74,57.377
				C296.756,101.771,318.911,121.574,345.336,121.574z M343.223,50.696c0.728-0.089,1.456-0.133,2.175-0.133
				c9.729,0,17.877,7.305,18.951,16.989c1.189,10.465-6.373,19.945-16.839,21.126c-10.545,1.314-19.972-6.444-21.135-16.847
				C325.196,61.357,332.749,51.877,343.223,50.696z"/>
			<path d="M511.653,377.446c-3.187-28.183-28.68-48.944-57.368-45.749c-13.767,1.553-26.106,8.37-34.751,19.217
				c-8.646,10.838-12.56,24.384-10.998,38.151c2.956,26.274,25.111,46.077,51.528,46.077c1.935,0,3.888-0.107,5.841-0.32
				c13.767-1.553,26.106-8.37,34.751-19.209C509.301,404.767,513.207,391.222,511.653,377.446z M475.047,395.172
				c-3.187,3.994-7.731,6.515-12.791,7.075c-10.616,1.296-19.972-6.453-21.144-16.856c-0.577-5.06,0.87-10.048,4.048-14.042
				c3.187-3.994,7.74-6.515,12.809-7.083c0.737-0.08,1.465-0.124,2.184-0.124c9.711,0,17.851,7.296,18.942,16.981
				C479.672,386.189,478.225,391.186,475.047,395.172z"/>
			<path d="M49.468,390.734c-28.422,3.204-48.936,28.955-45.74,57.377c2.965,26.274,25.111,46.086,51.51,46.086
				c1.935,0,3.897-0.115,5.858-0.328c13.776-1.553,26.114-8.37,34.76-19.217c8.646-10.838,12.551-24.392,10.998-38.169
				C103.667,408.3,78.636,387.405,49.468,390.734z M70.221,454.218c-3.187,3.994-7.731,6.515-12.809,7.083
				c-10.598,1.101-19.954-6.462-21.126-16.865c-1.181-10.474,6.382-19.954,16.839-21.135c0.728-0.089,1.447-0.124,2.166-0.124
				c9.737,0,17.904,7.296,18.987,16.981C74.845,445.226,73.407,450.223,70.221,454.218z"/>
			<path d="M125.752,129.279c1.056,0,2.113-0.107,3.178-0.311l145.715-28.662c8.876-1.749,14.655-10.368,12.915-19.244
				c-1.749-8.876-10.341-14.637-19.244-12.915L122.6,96.809c-8.876,1.749-14.664,10.368-12.915,19.244
				C111.23,123.865,118.082,129.279,125.752,129.279z"/>
			<path d="M366.586,127.681c-8.495,3.107-12.871,12.516-9.764,21.019l61.052,166.797c2.423,6.64,8.699,10.758,15.383,10.758
				c1.873,0,3.764-0.32,5.628-1.003c8.504-3.107,12.88-12.516,9.764-21.019l-61.043-166.797
				C384.508,128.942,375.063,124.566,366.586,127.681z"/>
			<path d="M382.36,378.023l-254.052,37.059c-8.956,1.314-15.152,9.631-13.847,18.587c1.189,8.149,8.193,14.025,16.191,14.025
				c0.79,0,1.58-0.062,2.388-0.169l254.052-37.059c8.956-1.314,15.161-9.631,13.856-18.587
				C399.633,382.931,391.298,376.807,382.36,378.023z"/>
			<path d="M52.734,189.204c-0.062,0-0.124,0-0.186,0c-9.045,0.098-16.306,7.501-16.208,16.555l1.713,158.533
				c0.107,8.992,7.421,16.208,16.386,16.208c0.062,0,0.124,0,0.186,0c9.045-0.098,16.306-7.501,16.208-16.555L69.12,205.412
				C69.014,196.42,61.699,189.204,52.734,189.204z"/>
		</g>
	</g>
</g>
<g>
</g>
<g>
</g>
<g>
</g>
<g>
</g>
<g>
</g>
<g>
</g>
<g>
</g>
<g>
</g>
<g>
</g>
<g>
</g>
<g>
</g>
<g>
</g>
<g>
</g>
<g>
</g>
<g>
</g>
</svg>
