<?xml version="1.0" encoding="iso-8859-1"?>
<!-- Generator: Adobe Illustrator 19.0.0, SVG Export Plug-In . SVG Version: 6.00 Build 0)  -->
<svg
  height="20px"
  width="24px"  version="1.1" id="Capa_1" xmlns="http://www.w3.org/2000/svg" xmlns:xlink="http://www.w3.org/1999/xlink" x="0px"
  y="0px"
  viewBox="0 0 512.001 512.001" style="enable-background:new 0 0 512.001 512.001;" xml:space="preserve">
<g>
	<path style="fill:#414356;" d="M225.588,404.843H187.39c-8.729,0-15.807,7.077-15.807,15.806v49.098h69.811v-49.098
		C241.395,411.92,234.319,404.843,225.588,404.843z"/>
  <path style="fill:#414356;" d="M330.586,404.843h-38.198c-8.729,0-15.806,7.077-15.806,15.806v49.098h69.812v-49.098
		C346.393,411.92,339.316,404.843,330.586,404.843z"/>
  <path style="fill:#414356;" d="M435.581,404.843h-38.197c-8.73,0-15.807,7.077-15.807,15.806v49.098h69.81v-49.098
		C451.387,411.92,444.313,404.843,435.581,404.843z"/>
</g>
  <g>
	<path style="fill:#2F3244;" d="M207.233,404.843H187.39c-8.731,0-15.807,7.077-15.807,15.806v49.098h19.842v-49.098
		C191.426,411.92,198.502,404.843,207.233,404.843z"/>
    <path style="fill:#2F3244;" d="M312.231,404.843h-19.842c-8.73,0-15.807,7.077-15.807,15.806v49.098h19.842v-49.098
		C296.424,411.92,303.5,404.843,312.231,404.843z"/>
    <path style="fill:#2F3244;" d="M417.227,404.843h-19.842c-8.73,0-15.807,7.077-15.807,15.806v49.098h19.842v-49.098
		C401.42,411.92,408.497,404.843,417.227,404.843z"/>
</g>
  <g>
	<path style="fill:#EA473B;" d="M46.57,236.681v102.857h89.484c-2.74-49.716-21.804-83.948-36.002-102.857H46.57z"/>
    <path style="fill:#EA473B;" d="M109.619,206.01c74.596-45.678,102.634-129.798,110.715-160.762H46.57v160.258
		C111.145,205.507,106.901,205.315,109.619,206.01z"/>
</g>
  <g>
	<path style="fill:#D63322;" d="M75.307,236.681H46.57v102.857h48.083C93.178,289.822,82.935,255.592,75.307,236.681z"/>
    <path style="fill:#D63322;"
          d="M381.923,339.539h89.483V236.681h-53.481C403.727,255.592,384.662,289.822,381.923,339.539z"/>
    <path style="fill:#D63322;" d="M408.358,206.01c1.239-0.317,2.531-0.503,3.87-0.503h59.178V45.248H297.642
		C305.723,76.213,333.761,160.332,408.358,206.01z"/>
</g>
  <g>
	<path style="fill:#C12D21;" d="M417.925,236.681c-14.197,18.911-33.261,53.142-36.002,102.857h11.651
		c2.383-49.716,18.966-83.948,31.314-102.857H417.925z"/>
    <path style="fill:#C12D21;" d="M320.268,45.248h-22.626c8.08,30.965,36.119,115.084,110.715,160.762
		c1.239-0.317,2.531-0.503,3.87-0.503h3.64C351.513,159.718,327.271,76.101,320.268,45.248z"/>
</g>
  <path style="fill:#D63322;" d="M78.368,205.507c0.719,0,1.413,0.186,2.079,0.503c40.081-45.678,55.146-129.798,59.488-160.762H46.57
	v160.258h31.798V205.507z"/>
  <g>
	<rect x="46.57" y="236.684" style="fill:#C12D21;" width="20.269" height="102.856"/>
    <rect x="46.57" y="45.248" style="fill:#C12D21;" width="20.269" height="160.255"/>
    <path style="fill:#C12D21;"
          d="M78.368,205.507c0.719,0,1.413,0.186,2.079,0.503c0.146-0.166,0.288-0.336,0.432-0.503H78.368z"/>
</g>
  <path style="fill:#414356;" d="M120.593,404.843H82.394c-8.73,0-15.807,7.077-15.807,15.806v49.098h69.812v-49.098
	C136.4,411.92,129.322,404.843,120.593,404.843z"/>
  <path style="fill:#2F3244;" d="M102.237,404.843H82.395c-8.73,0-15.807,7.077-15.807,15.806v49.098h19.842v-49.098
	C86.431,411.92,93.506,404.843,102.237,404.843z"/>
  <path style="fill:#D1CFCF;" d="M504.512,482.339c0,8.609-6.978,15.587-15.587,15.587H23.075c-8.609,0-15.587-6.978-15.587-15.587
	l0,0c0-8.608,6.978-15.586,15.587-15.586h465.849C497.534,466.753,504.512,473.731,504.512,482.339L504.512,482.339z"/>
  <g>
	<path style="fill:#EA473B;" d="M442.669,236.681c-7.628,18.911-17.871,53.142-19.345,102.857h48.082V236.681H442.669z"/>
    <path style="fill:#EA473B;" d="M471.406,205.507V45.248H378.04c4.343,30.965,19.408,115.084,59.488,160.762
		C439.007,205.307,436.803,205.507,471.406,205.507z"/>
</g>
  <g>
	<path style="fill:#414356;" d="M105.75,204.509H45.822c-9.145,0-16.587,7.44-16.587,16.586s7.441,16.586,16.587,16.586h59.928
		c9.145,0,16.586-7.44,16.586-16.586S114.894,204.509,105.75,204.509z"/>
    <path style="fill:#414356;" d="M472.154,204.509h-59.927c-9.145,0-16.587,7.44-16.587,16.586s7.441,16.586,16.587,16.586h59.927
		c9.145,0,16.586-7.44,16.586-16.586S481.3,204.509,472.154,204.509z"/>
</g>
  <g>
	<path style="fill:#2F3244;" d="M67.89,221.093c0-9.145,7.441-16.586,16.587-16.586H45.822c-9.145,0-16.587,7.44-16.587,16.586
		s7.441,16.586,16.587,16.586h38.655C75.33,237.679,67.89,230.239,67.89,221.093z"/>
    <path style="fill:#2F3244;" d="M434.296,221.093c0-9.145,7.441-16.586,16.587-16.586h-38.655c-9.145,0-16.587,7.44-16.587,16.586
		s7.441,16.586,16.587,16.586h38.655C441.736,237.679,434.296,230.239,434.296,221.093z"/>
</g>
  <path style="fill:#D1CFCF;" d="M504.512,29.662c0,8.608-6.978,15.587-15.587,15.587H23.075c-8.609,0-15.587-6.979-15.587-15.587l0,0
	c0-8.609,6.978-15.587,15.587-15.587h465.849C497.534,14.075,504.512,21.053,504.512,29.662L504.512,29.662z"/>
  <g>
	<path style="fill:#C1BDBD;" d="M488.925,29.095H23.075c-5.648,0-10.578-3.014-13.313-7.51c-6.31,10.38,1.189,23.663,13.313,23.663
		h465.849c8.609,0,15.587-6.979,15.587-15.587c0-2.961-0.841-5.719-2.274-8.077C499.504,26.081,494.573,29.095,488.925,29.095z"/>
    <path style="fill:#C1BDBD;" d="M488.925,481.772H23.075c-5.648,0-10.578-3.014-13.313-7.51
		c-6.311,10.382,1.19,23.664,13.313,23.664h465.849c12.137,0,19.619-13.292,13.314-23.664
		C499.504,478.759,494.573,481.772,488.925,481.772z"/>
</g>
  <path style="fill:#989DA0;" d="M504.512,355.126c0,8.608-6.978,15.586-15.587,15.586H23.075c-8.609,0-15.587-6.978-15.587-15.586
	l0,0c0-8.609,6.978-15.587,15.587-15.587h465.849C497.534,339.539,504.512,346.517,504.512,355.126L504.512,355.126z"/>
  <path style="fill:#878A8C;" d="M488.925,354.977H23.075c-5.735,0-10.733-3.106-13.44-7.719c-1.356,2.311-2.148,4.995-2.148,7.868
	c0,8.608,6.978,15.586,15.587,15.586h465.849c12.022,0,19.53-13.075,13.44-23.455C499.658,351.871,494.661,354.977,488.925,354.977z
	"/>
  <path d="M488.925,332.051h-10.031v-88.888c9.446-2.89,16.336-11.689,16.336-22.069c0-10.379-6.89-19.178-16.336-22.069v-87.184
	c0-4.135-3.353-7.488-7.488-7.488c-4.135,0-7.488,3.353-7.488,7.488v86.178h-23.352c-33.505-40.749-48.213-109.686-53.836-145.282
	h77.189v24.16c0,4.135,3.353,7.488,7.488,7.488c4.135,0,7.488-3.353,7.488-7.488V52.736h10.031
	c12.724,0,23.075-10.352,23.075-23.075S501.648,6.587,488.925,6.587H23.075C10.352,6.587,0,16.937,0,29.661
	s10.352,23.075,23.075,23.075h16.007v146.288c-21.721,6.645-21.692,37.5,0,44.138v88.889H23.075C10.352,332.051,0,342.403,0,355.126
	c0,12.723,10.352,23.074,23.075,23.074h465.849c12.724,0,23.075-10.352,23.075-23.074C512,342.403,501.648,332.051,488.925,332.051z
	 M389.985,332.051c3.788-40.572,18.706-69.641,31.737-87.881h10.163c-6.863,19.865-13.911,49.037-15.758,87.881H389.985z
	 M143.017,332.051c-3.431-39.428-16.659-69.029-29.58-89.203c15.297-5.42,20.368-24.501,9.804-36.78
	c65.292-45.079,92.837-117.986,102.817-153.332h65.862c9.978,35.346,37.522,108.252,102.816,153.332
	c-10.557,12.272-5.495,31.357,9.804,36.78c-12.921,20.173-26.149,49.774-29.58,89.203H143.017z M101.851,332.051
	c-1.848-38.844-8.896-68.017-15.759-87.881h10.163c13.03,18.241,27.948,47.309,31.737,87.881H101.851z M210.466,52.736
	c-10.743,36.089-38.681,105.132-102.369,145.401c-1.55-0.157-1.631-0.119-11.935-0.119c31.386-44.922,45.055-111.523,50.24-145.282
	C146.402,52.736,210.466,52.736,210.466,52.736z M447.794,244.169h16.123v87.881h-32.804
	C433.095,291.869,440.834,262.796,447.794,244.169z M472.154,212.994c4.466,0,8.099,3.633,8.099,8.099
	c0,4.043-2.959,8.099-8.848,8.099c-14.2,0-53.708,0-59.178,0c-9.457,0-11.177-13.579-2.012-15.929
	c1.45-0.371-0.074-0.27,24.642-0.27c1.801,0.688,3.679,0.656,5.372,0C458.248,212.994,454.055,212.994,472.154,212.994z
	 M421.814,198.018c-10.561,0-10.42-0.035-11.935,0.119C346.19,157.868,318.252,88.825,307.51,52.736h64.063
	C376.759,86.495,390.428,153.098,421.814,198.018z M14.976,29.661c0-4.466,3.633-8.099,8.099-8.099h465.849
	c4.466,0,8.099,3.633,8.099,8.099s-3.633,8.099-8.099,8.099c-8.37,0-458.347,0-465.849,0C18.609,37.76,14.976,34.127,14.976,29.661z
	 M131.248,52.736c-5.623,35.596-20.333,104.532-53.836,145.282H54.059V52.736H131.248z M46.571,212.994h31.176
	c1.674,0.648,3.55,0.696,5.372,0c25.185,0,23.084-0.105,24.734,0.287c9.064,2.444,7.314,15.912-2.104,15.912
	c-6.723,0-53.225,0-59.928,0c-4.467,0-8.1-3.633-8.1-8.099C37.722,217.051,40.681,212.994,46.571,212.994z M54.059,244.169h16.124
	c6.96,18.627,14.699,47.7,16.681,87.881H54.059V244.169z M488.925,363.225H23.075c-4.466,0-8.099-3.633-8.099-8.098
	c0-4.466,3.633-8.099,8.099-8.099c7.064,0,458.945,0,465.849,0c4.466,0,8.099,3.633,8.099,8.099
	C497.024,359.591,493.391,363.225,488.925,363.225z"/>
  <path d="M488.925,459.265h-30.049V420.65c0-12.845-10.449-23.295-23.294-23.295h-38.197c-12.845,0-23.295,10.449-23.295,23.295
	v38.615H353.88V420.65c0-12.845-10.449-23.295-23.295-23.295h-38.199c-12.845,0-23.295,10.449-23.295,23.295v38.615h-20.21V420.65
	c0-12.845-10.449-23.295-23.295-23.295h-38.198c-12.845,0-23.295,10.449-23.295,23.295v38.615h-20.207V420.65
	c0-12.845-10.449-23.295-23.295-23.295H82.392c-12.845,0-23.295,10.449-23.295,23.295v38.615H23.075
	C10.352,459.265,0,469.615,0,482.339s10.352,23.075,23.075,23.075H77.18c4.135,0,7.488-3.353,7.488-7.488
	c0-4.135-3.353-7.488-7.488-7.488H23.075c-4.466,0-8.099-3.633-8.099-8.099c0-4.466,3.633-8.098,8.099-8.098
	c6.255,0,459.224,0,465.849,0c4.466,0,8.099,3.633,8.099,8.098c0,4.466-3.633,8.099-8.099,8.099h-376.8
	c-4.135,0-7.488,3.353-7.488,7.488c0,4.135,3.353,7.488,7.488,7.488h376.8c12.724,0,23.075-10.352,23.075-23.075
	C512,469.615,501.648,459.265,488.925,459.265z M74.076,459.265V420.65c0-4.587,3.731-8.319,8.319-8.319h38.199
	c4.587,0,8.319,3.731,8.319,8.319v38.615H74.076z M179.071,459.265V420.65c0-4.587,3.731-8.319,8.319-8.319h38.198
	c4.587,0,8.319,3.731,8.319,8.319v38.615H179.071z M284.069,459.265V420.65c0-4.587,3.731-8.319,8.319-8.319h38.199
	c4.587,0,8.319,3.731,8.319,8.319v38.615H284.069z M389.066,459.265V420.65c0-4.587,3.731-8.319,8.319-8.319h38.197
	c4.587,0,8.318,3.731,8.318,8.319v38.615H389.066z"/>
  <g>
</g>
  <g>
</g>
  <g>
</g>
  <g>
</g>
  <g>
</g>
  <g>
</g>
  <g>
</g>
  <g>
</g>
  <g>
</g>
  <g>
</g>
  <g>
</g>
  <g>
</g>
  <g>
</g>
  <g>
</g>
  <g>
</g>
</svg>
