<svg id="Capa_1" enable-background="new 0 0 512.147 512.147"
     viewBox="0 0 512.147 512.147"
     height="20px"
     width="24px"     xmlns="http://www.w3.org/2000/svg">
  <g>
    <g>
      <path
        d="m436.959 288.944h-346.908c-11.837 0-21.434-9.596-21.434-21.434v-2.169c0-12.922 10.475-23.397 23.397-23.397h345.652c11.447 0 20.727 9.28 20.727 20.727v4.838c0 11.838-9.596 21.435-21.434 21.435z"
        fill="#d8ecfe"/>
      <path
        d="m437.666 241.945h-27.523c11.447 0 20.727 9.28 20.727 20.727v4.838c0 11.838-9.596 21.434-21.434 21.434h27.523c11.837 0 21.434-9.596 21.434-21.434v-4.838c0-11.447-9.28-20.727-20.727-20.727z"
        fill="#b3dafe"/>
      <path
        d="m431.87 288.944h-278.656l28.06 52.413v101.137l-18.094 40.071c-4.673 10.35 2.896 22.072 14.252 22.072h225.239c12.485 0 19.936-13.911 13.016-24.304l-50.366-75.642s66.549-12.691 66.549-115.747z"
        fill="#d8ecfe"/>
      <path
        d="m365.321 404.691s66.549-12.691 66.549-115.748h-27.523c0 103.057-66.549 115.748-66.549 115.748l50.366 75.642c6.92 10.392-.531 24.304-13.016 24.304h27.523c12.485 0 19.935-13.911 13.016-24.304z"
        fill="#b3dafe"/>
      <path d="m181.269 348.557v83.64h-46.24c-9.45 0-17.11-7.67-17.11-17.12v-49.41c0-9.45 7.66-17.11 17.11-17.11z"
            fill="#365e7d"/>
      <path d="m153.749 348.557h27.52v83.64h-27.52z" fill="#2b4d66"/>
      <path
        d="m149.69 241.945h-69.797c-14.53 0-26.308-11.779-26.308-26.308v-156.988c0-32.174 29.429-56.308 60.98-50.008l43.933 8.772c9.86 1.969 16.959 10.625 16.959 20.679v178.086c-.001 14.231-11.537 25.767-25.767 25.767z"
        fill="#d8ecfe"/>
      <path
        d="m158.498 17.413-43.933-8.772c-8.116-1.621-16.087-1.214-23.458.812l39.867 7.96c9.86 1.969 16.959 10.625 16.959 20.679v178.086c0 14.23-11.536 25.766-25.767 25.766h27.523c14.23 0 25.767-11.536 25.767-25.766v-178.085c.001-10.055-7.098-18.711-16.958-20.68z"
        fill="#b3dafe"/>
      <path
        d="m175.456 82.353h-121.871v-23.704c0-32.174 29.429-56.308 60.98-50.008l43.933 8.772c9.86 1.969 16.959 10.625 16.959 20.679v44.261z"
        fill="#b3dafe"/>
      <path
        d="m158.498 17.413-43.933-8.772c-8.116-1.621-16.087-1.214-23.458.812l39.867 7.96c9.86 1.969 16.959 10.625 16.959 20.679v44.261h27.523v-44.26c.001-10.055-7.098-18.711-16.958-20.68z"
        fill="#a4c7ff"/>
    </g>
    <g>
      <path
        d="m437.666 234.445h-260.193c3.462-5.247 5.484-11.524 5.484-18.267v-64.974c0-4.142-3.358-7.5-7.5-7.5s-7.5 3.358-7.5 7.5v64.974c0 10.072-8.194 18.267-18.267 18.267h-69.797c-10.371 0-18.808-8.438-18.808-18.808v-125.784h106.872v25.331c0 4.142 3.358 7.5 7.5 7.5s7.5-3.358 7.5-7.5v-77.091c0-13.584-9.669-25.375-22.99-28.035l-43.932-8.772c-34.192-7.84-70.926 21.268-69.949 57.363v156.987c0 14.152 8.744 26.294 21.111 31.325-14.697 20.361-1.693 49.398 22.855 49.482h58.671l23.883 44.61h-37.576c-13.571 0-24.612 11.041-24.612 24.612v49.415c0 13.571 11.041 24.612 24.612 24.612h38.744c.94 1.158-17.302 38.473-17.429 39.785-6.886 13.987 4.379 32.95 21.087 32.659h225.239c17.298.538 29.576-20.697 19.258-35.96l-44.925-67.471c29.951-14.861 48.138-33.404 59.275-83.248.743-4.075-1.959-7.98-6.034-8.723-4.074-.745-7.981 1.959-8.723 6.034-18.802 86.883-73.049 73.895-104.74 83.975-4.062.812-6.697 4.763-5.885 8.824.713 3.566 3.844 6.032 7.347 6.032.487 0 .982-.048 1.478-.147l42.141-8.423 47.581 71.459c2.979 4.286.534 12.317-6.773 12.647h-225.239c-4.853-.211-9.719-4.656-7.416-11.486l18.094-40.071c.438-.97.665-2.022.665-3.086v-101.136c0-1.235-.305-2.451-.888-3.54l-22.15-41.373h271.223c17.626.212 30.868-16.246 28.934-33.772-.001-15.564-12.664-28.226-28.228-28.226zm-376.581-175.796c-.706-25.865 25.587-48.56 52.012-42.653l43.932 8.772c5.245 1.551 10.7 5.255 10.928 13.325v36.761h-106.872zm73.945 366.044c-5.3 0-9.612-4.312-9.612-9.612v-49.415c0-5.3 4.312-9.612 9.612-9.612h38.744v26.819h-24.178c-4.142 0-7.5 3.358-7.5 7.5s3.358 7.5 7.5 7.5h24.178v26.819h-38.744zm315.863-157.183c0 7.683-6.25 13.934-13.934 13.934h-346.908c-20.323-.949-17.119-31.962 1.963-31.999h345.652c7.293 0 13.227 5.934 13.227 13.227z"/>
      <path
        d="m127.393 35.256h-21.354c-4.142 0-7.5 3.358-7.5 7.5s3.358 7.5 7.5 7.5h21.354c4.142 0 7.5-3.358 7.5-7.5s-3.358-7.5-7.5-7.5z"/>
      <path
        d="m275.356 124.204c4.142 0 7.5-3.358 7.5-7.5v-24.114c0-4.142-3.358-7.5-7.5-7.5s-7.5 3.358-7.5 7.5v24.114c0 4.142 3.358 7.5 7.5 7.5z"/>
      <path
        d="m275.356 181.674c4.142 0 7.5-3.358 7.5-7.5v-24.114c0-4.142-3.358-7.5-7.5-7.5s-7.5 3.358-7.5 7.5v24.114c0 4.142 3.358 7.5 7.5 7.5z"/>
      <path
        d="m292.034 140.882h24.114c4.142 0 7.5-3.358 7.5-7.5s-3.358-7.5-7.5-7.5h-24.114c-4.142 0-7.5 3.358-7.5 7.5s3.358 7.5 7.5 7.5z"/>
      <path
        d="m234.564 140.882h24.114c4.142 0 7.5-3.358 7.5-7.5s-3.358-7.5-7.5-7.5h-24.114c-4.142 0-7.5 3.358-7.5 7.5s3.358 7.5 7.5 7.5z"/>
      <path
        d="m343.704 192.763h9.178v9.178c0 4.142 3.358 7.5 7.5 7.5s7.5-3.358 7.5-7.5v-9.178h9.177c4.142 0 7.5-3.358 7.5-7.5s-3.358-7.5-7.5-7.5h-9.177v-9.177c0-4.142-3.358-7.5-7.5-7.5s-7.5 3.358-7.5 7.5v9.177h-9.178c-4.142 0-7.5 3.358-7.5 7.5s3.358 7.5 7.5 7.5z"/>
      <path
        d="m384.397 89.691c4.053 0 7.338-3.285 7.338-7.338 0-4.052-3.285-7.338-7.338-7.338-4.052 0-7.338 3.285-7.338 7.338s3.285 7.338 7.338 7.338z"/>
    </g>
  </g>
</svg>
