<svg
  height="20px"
  width="24px"     viewBox="0 0 56 60"
     xmlns="http://www.w3.org/2000/svg">
  <g id="Page-1" fill="none" fill-rule="evenodd">
    <g id="024---Sink" fill-rule="nonzero" transform="translate(0 -1)">
      <path id="Shape"
            d="m53.0000138 28c.005569 4.2451728-1.6783476 8.31808-4.6801407 11.3198731s-7.0747003 4.6857097-11.3198731 4.6801269h-18c-8.836556 0-16-7.163444-16-16z"
            fill="#f5f5f5"/>
      <path id="Shape"
            d="m50 28c.0055828 4.2451728-1.6783338 8.31808-4.6801269 11.3198731s-7.0747003 4.6857097-11.3198731 4.6801407l3-.0000138c4.2451728.0055828 8.31808-1.6783338 11.3198731-4.6801269s4.6857097-7.0747003 4.6801407-11.3198731z"
            fill="#cfd8dc"/>
      <path id="Shape"
            d="m55 26c-.0032948 1.1032019-.8967981 1.9967052-2 2h-50c-1.10116878-.0081672-1.99183278-.8988312-2-2 .0032948-1.1032019.89679813-1.9967052 2-2h50c1.1011688.0081672 1.9918328.8988312 2 2z"
            fill="#cfd8dc"/>
      <path id="Shape"
            d="m33 44v4c-.0032948 1.1032019-.8967981 1.9967052-2 2h-6c-1.1032019-.0032948-1.9967052-.8967981-2-2v-4z"
            fill="#9e9e9e"/>
      <path id="Shape"
            d="m30 44v4c-.0032948 1.1032019-.8967981 1.9967052-2 2h3c1.1032019-.0032948 1.9967052-.8967981 2-2v-4z"
            fill="#707070"/>
      <path id="Shape" d="m31 50v7c0 1.6568542-1.3431458 3-3 3s-3-1.3431458-3-3v-7z" fill="#607d8b"/>
      <path id="Shape"
            d="m28 50v7c.0000702.7955351-.3165773 1.5583676-.88 2.12-.1869199.1807308-.3963035.3366761-.623.464.9256177.5408627 2.0698232.5453555 2.9996598.0117784.9298365-.5335771 1.5032783-1.5237241 1.5033402-2.5957784v-7z"
            fill="#37474f"/>
      <path id="Shape"
            d="m21 20v4h-8v-4c.0032948-1.1032019.8967981-1.9967052 2-2h4c1.1032019.0032948 1.9967052.8967981 2 2z"
            fill="#02a9f4"/>
      <path id="Shape"
            d="m19 18h-3c1.1032019.0032948 1.9967052.8967981 2 2v4h3v-4c-.0032948-1.1032019-.8967981-1.9967052-2-2z"
            fill="#0377bc"/>
      <path id="Shape"
            d="m43 20v4h-8v-4c.0032948-1.1032019.8967981-1.9967052 2-2h4c1.1032019.0032948 1.9967052.8967981 2 2z"
            fill="#f44335"/>
      <path id="Shape"
            d="m41 18h-3c1.1032019.0032948 1.9967052.8967981 2 2v4h3v-4c-.0032948-1.1032019-.8967981-1.9967052-2-2z"
            fill="#c81e1e"/>
      <path id="Shape"
            d="m30 9v15h-4v-14.88c.0276627-1.46034062-.9751297-2.73890092-2.4-3.06-.8827649-.18019364-1.799775.04589782-2.4976038.6157913-.6978287.56989348-1.1025801 1.4232406-1.1023962 2.3242087v1c0 .5522847-.4477153 1-1 1h-2c-.5522847 0-1-.4477153-1-1v-.76c-.0499772-3.57556817 2.5450726-6.64011711 6.08-7.18 1.999086-.26271826 4.0144606.34844711 5.530913 1.67725774 1.5164525 1.32881064 2.3869969 3.24646811 2.389087 5.26274226z"
            fill="#9e9e9e"/>
      <path id="Shape"
            d="m19 17h-4c-1.6568542 0-3 1.3431458-3 3v3h-9c-1.4679927-.003682-2.72182405 1.058199-2.9598965 2.506763s.6099439 2.8558851 2.0018965 3.322237c.44468739 9.0460286 7.90105979 16.1563599 16.958 16.171h3v3c.0052514 1.2667854.8056491 2.3937454 2 2.816v6.184c.0000001 2.209139 1.790861 3.9999999 4 3.9999999s3.9999999-1.7908609 4-3.9999999v-6.184c1.1943509-.4222546 1.9947486-1.5492146 2-2.816v-3h3c9.0569402-.0146401 16.5133126-7.1249714 16.958-16.171 1.3919526-.4663519 2.2399689-1.873673 2.0018965-3.322237-.2380725-1.448564-1.4919038-2.510445-2.9598965-2.506763h-9v-3c0-1.6568542-1.3431458-3-3-3h-4c-1.6568542 0-3 1.3431458-3 3v3h-3v-14c-.0023556-2.3039949-.9968357-4.4953757-2.7293336-6.01420717-1.7324979-1.51883146-4.0351781-2.21797695-6.3196664-1.91879283-4.0392662.59769908-7.0115275 4.09420049-6.951 8.177v.756c0 1.1045695.8954305 2 2 2h2c1.1045695 0 2-.8954305 2-2v-1c-.0005571-.60214961.2702137-1.17250254.7371409-1.5527175.4669273-.38021496 1.0803093-.52982026 1.6698591-.4072825.9526335.23334142 1.6150638 1.09745323 1.593 2.078v13.882h-3v-3c0-1.6568542-1.3431458-3-3-3zm-5 3c0-.5522847.4477153-1 1-1h4c.5522847 0 1 .4477153 1 1v3h-6zm16 37c0 1.1045695-.8954305 2-2 2s-2-.8954305-2-2v-6h4zm2-9c0 .5522847-.4477153 1-1 1h-6c-.5522847 0-1-.4477153-1-1v-3h8zm5-5h-18c-7.8921695-.01012-14.4305634-6.1260761-14.967-14h47.934c-.5364366 7.8739239-7.0748305 13.98988-14.967 14zm-1-23c0-.5522847.4477153-1 1-1h4c.5522847 0 1 .4477153 1 1v3h-6zm-12.211-14.923c-1.1758949-.23659367-2.3958986.06698894-3.3237807.82708115-.9278821.7600922-1.4656952 1.89645848-1.4652193 3.09591885v1h-2v-.756c-.0618515-3.07727025 2.1638971-5.72499609 5.206-6.193 1.7142436-.22588179 3.4427137.29761605 4.7435617 1.4366718 1.300848 1.13905576 2.0479915 2.78326847 2.0504383 4.5123282v14h-2v-13.882c.0314098-1.94076015-1.3133299-3.63309694-3.211-4.041zm2.211 19.923h27c.5522847 0 1 .4477153 1 1s-.4477153 1-1 1h-50c-.55228475 0-1-.4477153-1-1s.44771525-1 1-1z"
            fill="#000"/>
    </g>
  </g>
</svg>
