<svg id="Layer_1"
     height="20px"
     width="24px"     enable-background="new 0 0 512 512"
     viewBox="0 0 512 512"
     xmlns="http://www.w3.org/2000/svg">
  <g clip-rule="evenodd" fill-rule="evenodd">
    <path
      d="m8.264 210.256c-10.418-9.612-11.074-25.996-1.462-36.414 31.263-33.882 68.776-60.913 110.858-79.749 43.674-19.549 90.499-29.434 138.339-29.434 47.841 0 94.666 9.884 138.342 29.434 42.083 18.837 79.599 45.866 110.861 79.75 9.611 10.417 8.951 26.801-1.466 36.413-4.766 4.397-10.985 6.825-17.469 6.825-7.209 0-14.055-2.992-18.944-8.29-54.262-58.808-131.299-92.598-211.324-92.598s-157.06 33.792-211.324 92.598c-9.61 10.412-25.997 11.073-36.411 1.465zm247.734 149.766c24.083 0 43.661 19.579 43.661 43.662 0 24.081-19.581 43.657-43.661 43.657s-43.659-19.576-43.659-43.657c0-24.082 19.577-43.662 43.659-43.662zm70.647-13.027c-17.306-21.529-43.017-33.896-70.647-33.896-27.627 0-53.342 12.365-70.644 33.895-8.876 11.046-25.18 12.821-36.225 3.944-11.048-8.88-12.821-25.182-3.941-36.23 27.114-33.733 67.524-53.141 110.81-53.141 43.287 0 83.698 19.407 110.813 53.141 8.88 11.048 7.105 27.348-3.941 36.229-4.579 3.682-10.257 5.684-16.133 5.684-7.82-.001-15.193-3.532-20.092-9.626zm70.664-68.859c9.353 10.519 25.859 11.482 36.377 2.131 10.519-9.352 11.484-25.86 2.132-36.378-45.622-51.303-111.156-80.777-179.819-80.777-68.661 0-134.195 29.475-179.817 80.777-9.353 10.518-8.387 27.026 2.132 36.378 4.726 4.201 10.793 6.51 17.116 6.51 7.371 0 14.363-3.131 19.262-8.641 35.849-40.314 87.351-63.491 141.308-63.491 53.955.001 105.461 23.175 141.309 63.491z"
      fill="#fdba12"/>
    <path
      d="m255.998 64.658c47.841 0 94.666 9.884 138.342 29.434 42.083 18.837 79.599 45.866 110.861 79.75 9.611 10.417 8.951 26.801-1.466 36.413-4.766 4.397-10.985 6.825-17.469 6.825-7.209 0-14.055-2.992-18.944-8.29-54.262-58.808-131.299-92.598-211.324-92.598zm0 382.684v-87.319c24.083 0 43.661 19.579 43.661 43.662.001 24.08-19.581 43.657-43.661 43.657zm0-134.243v-51.534c43.287 0 83.698 19.407 110.813 53.141 8.88 11.048 7.105 27.348-3.941 36.229-4.579 3.682-10.257 5.684-16.133 5.684-7.819 0-15.193-3.531-20.091-9.625-17.307-21.528-43.018-33.895-70.648-33.895zm0-98.453c53.957 0 105.462 23.174 141.31 63.491 9.353 10.519 25.859 11.482 36.377 2.131 10.519-9.352 11.484-25.86 2.132-36.378-45.622-51.303-111.156-80.777-179.819-80.777z"
      fill="#ff9100"/>
  </g>
</svg>
