<svg
  viewBox="0 0 64 64"
  height="20px"
  width="24px"  xmlns="http://www.w3.org/2000/svg">
  <g id="_22-Blinds" data-name="22-Blinds">
    <path d="m13 38h38v18h-38z" fill="#68b1fc"/>
    <path d="m44 48a.99943.99943 0 0 1 -1-1v-8a1 1 0 0 1 2 0v8a.99943.99943 0 0 1 -1 1z" fill="#e7eaef"/>
    <path d="m7 38h8v18h-8z" fill="#aa744c"/>
    <path d="m49 38h8v18h-8z" fill="#aa744c"/>
    <path
      d="m60.94824 38.68359-2-6a.9989.9989 0 0 0 -.94824-.68359h-52a.9989.9989 0 0 0 -.94824.68359l-2 6a.999.999 0 0 0 .94824 1.31641h56a.999.999 0 0 0 .94824-1.31641z"
      fill="#fcb860"/>
    <path
      d="m60.94824 32.68359-2-6a.9989.9989 0 0 0 -.94824-.68359h-52a.9989.9989 0 0 0 -.94824.68359l-2 6a.999.999 0 0 0 .94824 1.31641h56a.999.999 0 0 0 .94824-1.31641z"
      fill="#fcc67c"/>
    <path
      d="m60.94824 26.68359-2-6a.9989.9989 0 0 0 -.94824-.68359h-52a.9989.9989 0 0 0 -.94824.68359l-2 6a.999.999 0 0 0 .94824 1.31641h56a.999.999 0 0 0 .94824-1.31641z"
      fill="#fcb860"/>
    <path
      d="m60.94824 20.68359-2-6a.9989.9989 0 0 0 -.94824-.68359h-52a.9989.9989 0 0 0 -.94824.68359l-2 6a.999.999 0 0 0 .94824 1.31641h56a.999.999 0 0 0 .94824-1.31641z"
      fill="#fcc67c"/>
    <path d="m57 54h-50v7a1 1 0 0 0 1 1h48a1 1 0 0 0 1-1z" fill="#b38051"/>
    <path
      d="m60.94824 14.68359-2-6a.9989.9989 0 0 0 -.94824-.68359h-52a.9989.9989 0 0 0 -.94824.68359l-2 6a.999.999 0 0 0 .94824 1.31641h56a.999.999 0 0 0 .94824-1.31641z"
      fill="#fcb860"/>
    <path d="m10 9h2v31h-2z" fill="#fdd5a6"/>
    <path d="m52 9h2v31h-2z" fill="#fdd5a6"/>
    <rect fill="#fcaa52" height="8" rx="2" width="60" x="2" y="2"/>
    <circle cx="44" cy="49" fill="#fcb860" r="3"/>
  </g>
</svg>
