<svg
  height="24px"
  width="27px"
  viewBox="-127 1 511 511.999"
  xmlns="http://www.w3.org/2000/svg">
  <path
    d="m256.21875 258.402344-24.039062-114.492188c-5.828126-27.761718-30.644532-47.910156-59.011719-47.910156h-2.554688c7.550781-9.289062 12.085938-21.121094 12.085938-34v-8c0-29.773438-24.222657-54-54-54-29.773438 0-54 24.226562-54 54v8c0 12.878906 4.539062 24.710938 12.089843 34h-2.554687c-28.367187 0-53.1875 20.148438-59.015625 47.910156l-24.035156 114.492188c-1.972656 9.40625.367187 19.082031 6.425781 26.542968 6.058594 7.460938 15.046875 11.742188 24.65625 11.742188 1.769531 0 3.515625-.15625 5.222656-.445312l-11.234375 51.628906c-.640625 2.957031.085938 6.046875 1.984375 8.402344 1.898438 2.355468 4.761719 3.726562 7.789063 3.726562h82.671875v118c0 7.71875-6.277344 14-14 14-7.71875 0-14-6.28125-14-14v-48c0-5.523438-4.476563-10-10-10-5.523438 0-10 4.476562-10 10v48c0 18.746094 15.253906 34 34 34 9.359375 0 17.847656-3.804688 24-9.941406 6.15625 6.140625 14.640625 9.941406 24 9.941406 18.75 0 34-15.253906 34-34v-118h34.675781c3.027344 0 5.886719-1.371094 7.789062-3.726562 1.894532-2.355469 2.625-5.445313 1.984376-8.398438l-11.234376-51.628906c1.707032.289062 3.453126.441406 5.222657.441406 9.609375 0 18.597656-4.277344 24.65625-11.742188 6.058593-7.460937 8.398437-17.136718 6.425781-26.542968zm-161.519531-196.402344v-8c0-18.746094 15.253906-34 34-34 18.75 0 34 15.253906 34 34v8c0 18.746094-15.25 34-34 34-18.746094 0-34-15.253906-34-34zm72 416c0 7.71875-6.277344 14-14 14-7.71875 0-14-6.28125-14-14v-118h28zm67.566406-205.660156c-2.242187 2.761718-5.570313 4.347656-9.128906 4.347656-5.496094 0-10.328125-3.898438-11.492188-9.265625l-.003906-.015625s0 0 0-.003906l-20.46875-94.535156c-1.167969-5.394532-6.492187-8.820313-11.890625-7.65625-5.398438 1.171874-8.828125 6.492187-7.65625 11.890624l35.339844 162.898438h-160.53125l14.871094-68.339844c0-.003906 20.472656-94.558594 20.472656-94.558594 1.167968-5.398437-2.257813-10.722656-7.65625-11.890624-5.402344-1.167969-10.722656 2.261718-11.890625 7.65625l-20.46875 94.535156v.003906l-.003907.015625c-1.164062 5.367187-5.996093 9.265625-11.492187 9.265625-3.558594 0-6.886719-1.585938-9.128906-4.347656-2.242188-2.765625-3.109375-6.347656-2.378907-9.828125l24.035157-114.492188c3.894531-18.554687 20.480469-32.019531 39.441406-32.019531h88.933594c18.957031 0 35.542969 13.464844 39.441406 32.019531l24.035156 114.492188c.730469 3.484375-.136719 7.066406-2.378906 9.828125zm0 0"/>
  <path
    d="m80.699219 400c2.632812 0 5.210937-1.070312 7.070312-2.929688 1.859375-1.859374 2.929688-4.441406 2.929688-7.070312s-1.070313-5.210938-2.929688-7.070312c-1.859375-1.859376-4.429687-2.929688-7.070312-2.929688s-5.207031 1.070312-7.070313 2.929688c-1.859375 1.859374-2.929687 4.441406-2.929687 7.070312s1.070312 5.210938 2.929687 7.070312c1.863282 1.859376 4.441406 2.929688 7.070313 2.929688zm0 0"/>
</svg>
