<svg
  height="24px"
  width="27px"
  id="Capa_1" enable-background="new 0 0 512 512"
  viewBox="0 0 512 512"
  xmlns="http://www.w3.org/2000/svg">
  <g id="XMLID_1701_">
    <g id="XMLID_355_">
      <g id="XMLID_356_">
        <path id="XMLID_358_"
              d="m466.807 376.157v-103.083c0-50.135-33.593-92.566-79.451-105.981-1.665-11.561-6.205-22.556-13.203-31.905 7.304-22.844 1.395-47.794-15.833-65.021-2.931-2.931-6.139-5.574-9.567-7.886-15.295-37.392-52.137-62.281-92.753-62.281-40.617 0-77.458 24.889-92.754 62.281-3.429 2.312-6.636 4.955-9.566 7.885-17.228 17.228-23.137 42.177-15.833 65.021-6.998 9.349-11.538 20.344-13.203 31.905-45.857 13.415-79.451 55.846-79.451 105.981v56.892c0 15.856 6.248 30.27 16.396 40.944-35.065 6.939-61.589 37.92-61.589 74.99v56.101c0 5.523 4.477 10 10 10h301.404c5.523 0 10-4.477 10-10s-4.477-10-10-10h-90.597v-46.101c0-31.128 25.325-56.452 56.453-56.452h42.607c3.782 16.688 18.722 29.188 36.537 29.188s32.755-12.5 36.537-29.188h42.607c31.128 0 56.453 25.324 56.453 56.452v46.101h-90.601c-5.523 0-10 4.477-10 10s4.477 10 10 10h100.6c5.523 0 10-4.477 10-10v-56.101c0-31.021-18.583-57.767-45.193-69.742zm-310.154-232.389c2.602-2.896 3.287-7.038 1.756-10.616-7.176-16.777-3.481-35.949 9.413-48.843 2.604-2.604 5.524-4.879 8.678-6.761 1.964-1.172 3.467-2.981 4.258-5.126 11.57-31.355 41.807-52.422 75.242-52.422s63.672 21.067 75.241 52.422c.792 2.146 2.295 3.955 4.26 5.126 3.152 1.88 6.071 4.155 8.677 6.76 12.894 12.894 16.589 32.066 9.413 48.843-1.531 3.579-.846 7.721 1.756 10.616 5.01 5.576 8.654 12.205 10.73 19.331-3.189-.278-6.414-.429-9.674-.429-16.148 0-31.498 3.486-45.336 9.743 6.021-9.811 9.501-21.342 9.501-33.674v-30.608c0-5.523-4.477-10-10-10h-33.316c-14.103 0-25.576-11.473-25.576-25.575 0-5.523-4.477-10-10-10s-10 4.477-10 10c0 6.576 1.411 12.825 3.928 18.476-4.063 4.459-9.859 7.099-16.041 7.099h-18.131c-5.523 0-10 4.477-10 10v30.608c0 12.331 3.479 23.863 9.501 33.674-13.839-6.257-29.188-9.743-45.337-9.743-3.26 0-6.485.151-9.673.429 2.076-7.125 5.72-13.755 10.73-19.33zm62.91-25.637c10.57 0 20.556-4.011 28.128-10.928 7.965 6.805 18.287 10.928 29.56 10.928h23.316v20.608c0 24.575-19.993 44.568-44.568 44.568s-44.568-19.993-44.568-44.568v-20.608zm36.437 85.177c5.798 0 11.415-.781 16.765-2.221-6.743 7.823-12.407 16.6-16.765 26.097-4.358-9.497-10.022-18.273-16.765-26.097 5.35 1.44 10.967 2.221 16.765 2.221zm-190.807 69.766c0-49.849 40.555-90.404 90.404-90.404s90.403 40.555 90.403 90.404v56.892c0 21.771-17.711 39.482-39.482 39.482h-13.451v-14.38c16.604-11.775 27.471-31.132 27.471-52.991v-30.818c0-5.523-4.477-10-10-10h-33.545c-14.237 0-25.819-11.583-25.819-25.819 0-5.523-4.477-10-10-10s-10 4.477-10 10c0 6.627 1.425 12.923 3.968 18.616-4.104 4.524-9.972 7.204-16.232 7.204h-18.255c-5.523 0-10 4.477-10 10v30.818c0 21.859 10.867 41.216 27.471 52.992v14.38h-13.451c-21.77 0-39.481-17.711-39.481-39.482v-56.894zm45.461 8.184h8.255c10.646 0 20.702-4.049 28.319-11.027 8.014 6.866 18.409 11.027 29.765 11.027h23.545v20.818c0 24.781-20.161 44.942-44.942 44.942s-44.942-20.161-44.942-44.942zm27.471 83.353c5.563 1.556 11.418 2.407 17.471 2.407s11.908-.85 17.471-2.407v16.553c0 9.634-7.837 17.471-17.471 17.471-9.633 0-17.471-7.837-17.471-17.471zm62.682 81.288v46.101h-180.807v-46.101c0-31.128 25.325-56.452 56.453-56.452h42.607c3.782 16.688 18.722 29.188 36.537 29.188s32.755-12.5 36.537-29.188h33.627c-15.324 13.991-24.954 34.117-24.954 56.452zm110.654-164.641h23.545c11.355 0 21.751-4.162 29.765-11.027 7.618 6.978 17.674 11.027 28.319 11.027h8.255v20.818c0 24.781-20.161 44.942-44.942 44.942s-44.942-20.161-44.942-44.942zm44.943 117.377c-9.634 0-17.471-7.837-17.471-17.471v-16.553c5.563 1.556 11.418 2.407 17.471 2.407s11.908-.85 17.471-2.407v16.553c0 9.634-7.838 17.471-17.471 17.471zm37.471-29.188v-14.38c16.604-11.775 27.471-31.132 27.471-52.992v-30.818c0-5.523-4.477-10-10-10h-18.256c-6.26 0-12.128-2.68-16.232-7.204 2.542-5.693 3.968-11.989 3.968-18.616 0-5.523-4.477-10-10-10s-10 4.477-10 10c0 14.237-11.583 25.819-25.819 25.819h-33.545c-5.523 0-10 4.477-10 10v30.818c0 21.859 10.867 41.216 27.471 52.991v14.38h-52.933v-96.374c0-49.849 40.555-90.404 90.404-90.404s90.403 40.555 90.403 90.404v96.374h-52.932z"/>
        <path id="XMLID_357_"
              d="m356.4 492c-2.63 0-5.21 1.07-7.07 2.93s-2.93 4.44-2.93 7.07 1.07 5.21 2.93 7.07 4.44 2.93 7.07 2.93c2.64 0 5.21-1.07 7.07-2.93 1.87-1.86 2.93-4.44 2.93-7.07s-1.06-5.21-2.93-7.07c-1.86-1.86-4.43-2.93-7.07-2.93z"/>
      </g>
    </g>
  </g>
</svg>
